{"glyphs":{"0":{"ha":688,"x_min":0,"x_max":0,"o":""},"1":{"ha":688,"x_min":0,"x_max":0,"o":""},"2":{"ha":688,"x_min":0,"x_max":0,"o":""},"3":{"ha":688,"x_min":0,"x_max":0,"o":""},"4":{"ha":688,"x_min":0,"x_max":0,"o":""},"5":{"ha":688,"x_min":0,"x_max":0,"o":""},"6":{"ha":688,"x_min":0,"x_max":0,"o":""},"7":{"ha":688,"x_min":0,"x_max":0,"o":""},"8":{"ha":688,"x_min":0,"x_max":0,"o":""},"9":{"ha":688,"x_min":0,"x_max":0,"o":""},"\u0000":{"ha":0,"x_min":0,"x_max":0,"o":""}," ":{"ha":345,"x_min":0,"x_max":0,"o":""},"-":{"ha":1997,"x_min":-3,"x_max":1992,"o":"m 1 1356 l 123 1356 q 212 1291 184 1356 q 216 1252 216 1269 q 136 1158 216 1181 q 106 1156 117 1156 l 78 1156 l 78 1044 q 74 1040 78 1040 l 1 1040 q -3 1044 -3 1040 l -3 1352 q 1 1356 -2 1356 m 242 1356 l 433 1356 q 437 1352 437 1356 l 437 1280 q 433 1276 437 1276 l 318 1276 l 318 1239 l 412 1239 q 416 1235 416 1238 l 416 1160 q 412 1156 416 1156 l 318 1156 l 318 1120 l 433 1120 q 437 1116 437 1120 l 437 1044 q 433 1040 437 1040 l 242 1040 q 237 1044 237 1040 l 237 1352 q 242 1356 238 1356 m 482 1356 l 604 1356 q 692 1291 665 1356 q 697 1252 697 1269 q 646 1169 697 1198 q 707 1040 707 1044 l 631 1040 q 572 1156 627 1040 l 559 1156 l 559 1044 q 554 1040 559 1040 l 482 1040 q 478 1044 478 1040 l 478 1352 q 482 1356 479 1356 m 859 1356 q 950 1312 918 1356 q 924 1250 929 1250 l 922 1250 q 846 1288 878 1288 l 837 1288 q 810 1263 810 1282 l 810 1256 q 897 1229 810 1249 q 945 1148 945 1201 l 945 1135 q 876 1046 945 1076 q 833 1040 857 1040 l 816 1040 q 718 1088 761 1040 q 748 1145 718 1100 q 816 1107 790 1107 l 829 1107 q 863 1135 863 1112 l 863 1145 q 801 1175 863 1175 q 739 1212 751 1191 q 726 1252 726 1229 l 726 1263 q 829 1356 726 1337 l 859 1356 m 1116 1356 l 1139 1356 q 1280 1250 1227 1356 q 1286 1209 1286 1223 l 1286 1186 q 1179 1046 1286 1098 q 1139 1040 1152 1040 l 1116 1040 q 975 1145 1027 1040 q 969 1186 969 1173 l 969 1209 q 1076 1350 969 1297 q 1116 1356 1103 1356 m 1314 1356 l 1385 1356 q 1445 1203 1392 1356 l 1447 1203 l 1447 1352 q 1452 1356 1448 1356 l 1524 1356 q 1528 1352 1528 1356 l 1528 1044 q 1524 1040 1528 1040 l 1449 1040 q 1392 1150 1444 1040 l 1390 1150 l 1390 1044 q 1385 1040 1390 1040 l 1314 1040 q 1310 1044 1310 1040 l 1310 1352 q 1314 1356 1310 1356 m 1703 1356 q 1747 1222 1710 1356 q 1805 1042 1756 1202 l 1801 1040 l 1728 1040 q 1711 1097 1722 1040 l 1641 1097 q 1624 1040 1630 1040 l 1552 1040 q 1548 1044 1548 1040 q 1647 1356 1641 1343 l 1703 1356 m 1832 1356 l 1904 1356 q 1909 1352 1909 1356 l 1909 1120 l 1983 1120 q 1988 1116 1988 1120 l 1988 1044 q 1983 1040 1988 1040 l 1832 1040 q 1828 1044 1828 1040 l 1828 1352 q 1832 1356 1829 1356 m 78 1291 l 78 1222 l 99 1222 q 144 1254 144 1222 l 144 1256 q 112 1291 144 1286 l 78 1291 m 559 1291 l 559 1222 l 580 1222 q 625 1254 625 1222 l 625 1256 q 593 1291 625 1286 l 559 1291 m 1050 1188 q 1114 1120 1050 1143 l 1137 1120 q 1205 1184 1183 1120 l 1205 1201 q 1133 1276 1205 1261 l 1118 1276 q 1050 1212 1072 1276 l 1050 1188 m 1675 1233 q 1658 1158 1675 1228 l 1694 1158 q 1677 1233 1677 1228 l 1675 1233 m 1 863 l 212 863 q 216 859 216 862 l 216 312 q 276 220 216 252 q 312 212 294 212 l 331 212 q 429 295 405 212 q 431 325 431 313 l 431 859 q 435 863 432 863 l 646 863 q 650 859 650 862 l 650 312 q 544 68 650 179 q 342 -7 456 -7 l 306 -7 q 31 168 119 -7 q -3 304 -3 246 l -3 859 q 1 863 -2 863 m 1041 863 l 1074 863 q 1345 742 1255 863 l 1345 737 q 1278 568 1292 593 q 1056 680 1144 680 l 1054 680 q 958 608 972 680 l 958 597 q 1105 540 958 559 q 1335 267 1335 494 q 1222 53 1335 147 q 1018 -7 1137 -7 l 982 -7 q 765 72 879 -7 q 709 134 709 123 q 791 289 786 288 q 999 176 899 176 q 1105 235 1078 176 q 1109 265 1109 252 l 1109 278 q 1044 359 1109 336 q 926 374 954 366 q 773 461 823 400 q 733 587 733 517 q 945 848 733 783 q 1041 863 997 863 m 1452 863 l 1988 863 q 1992 859 1992 862 l 1992 648 q 1988 644 1992 644 l 1666 644 l 1666 538 l 1934 538 q 1939 533 1939 537 l 1939 323 q 1934 319 1939 319 l 1666 319 l 1666 212 l 1988 212 q 1992 208 1992 212 l 1992 -3 q 1988 -7 1992 -7 l 1452 -7 q 1447 -3 1447 -7 l 1447 859 q 1452 863 1448 863 z "},".":{"ha":1997,"x_min":-3,"x_max":1992,"o":"m 1 1356 l 123 1356 q 212 1291 184 1356 q 216 1252 216 1269 q 136 1158 216 1181 q 106 1156 117 1156 l 78 1156 l 78 1044 q 74 1040 78 1040 l 1 1040 q -3 1044 -3 1040 l -3 1352 q 1 1356 -2 1356 m 242 1356 l 433 1356 q 437 1352 437 1356 l 437 1280 q 433 1276 437 1276 l 318 1276 l 318 1239 l 412 1239 q 416 1235 416 1238 l 416 1160 q 412 1156 416 1156 l 318 1156 l 318 1120 l 433 1120 q 437 1116 437 1120 l 437 1044 q 433 1040 437 1040 l 242 1040 q 237 1044 237 1040 l 237 1352 q 242 1356 238 1356 m 482 1356 l 604 1356 q 692 1291 665 1356 q 697 1252 697 1269 q 646 1169 697 1198 q 707 1040 707 1044 l 631 1040 q 572 1156 627 1040 l 559 1156 l 559 1044 q 554 1040 559 1040 l 482 1040 q 478 1044 478 1040 l 478 1352 q 482 1356 479 1356 m 859 1356 q 950 1312 918 1356 q 924 1250 929 1250 l 922 1250 q 846 1288 878 1288 l 837 1288 q 810 1263 810 1282 l 810 1256 q 897 1229 810 1249 q 945 1148 945 1201 l 945 1135 q 876 1046 945 1076 q 833 1040 857 1040 l 816 1040 q 718 1088 761 1040 q 748 1145 718 1100 q 816 1107 790 1107 l 829 1107 q 863 1135 863 1112 l 863 1145 q 801 1175 863 1175 q 739 1212 751 1191 q 726 1252 726 1229 l 726 1263 q 829 1356 726 1337 l 859 1356 m 1116 1356 l 1139 1356 q 1280 1250 1227 1356 q 1286 1209 1286 1223 l 1286 1186 q 1179 1046 1286 1098 q 1139 1040 1152 1040 l 1116 1040 q 975 1145 1027 1040 q 969 1186 969 1173 l 969 1209 q 1076 1350 969 1297 q 1116 1356 1103 1356 m 1314 1356 l 1385 1356 q 1445 1203 1392 1356 l 1447 1203 l 1447 1352 q 1452 1356 1448 1356 l 1524 1356 q 1528 1352 1528 1356 l 1528 1044 q 1524 1040 1528 1040 l 1449 1040 q 1392 1150 1444 1040 l 1390 1150 l 1390 1044 q 1385 1040 1390 1040 l 1314 1040 q 1310 1044 1310 1040 l 1310 1352 q 1314 1356 1310 1356 m 1703 1356 q 1747 1222 1710 1356 q 1805 1042 1756 1202 l 1801 1040 l 1728 1040 q 1711 1097 1722 1040 l 1641 1097 q 1624 1040 1630 1040 l 1552 1040 q 1548 1044 1548 1040 q 1647 1356 1641 1343 l 1703 1356 m 1832 1356 l 1904 1356 q 1909 1352 1909 1356 l 1909 1120 l 1983 1120 q 1988 1116 1988 1120 l 1988 1044 q 1983 1040 1988 1040 l 1832 1040 q 1828 1044 1828 1040 l 1828 1352 q 1832 1356 1829 1356 m 78 1291 l 78 1222 l 99 1222 q 144 1254 144 1222 l 144 1256 q 112 1291 144 1286 l 78 1291 m 559 1291 l 559 1222 l 580 1222 q 625 1254 625 1222 l 625 1256 q 593 1291 625 1286 l 559 1291 m 1050 1188 q 1114 1120 1050 1143 l 1137 1120 q 1205 1184 1183 1120 l 1205 1201 q 1133 1276 1205 1261 l 1118 1276 q 1050 1212 1072 1276 l 1050 1188 m 1675 1233 q 1658 1158 1675 1228 l 1694 1158 q 1677 1233 1677 1228 l 1675 1233 m 1 863 l 212 863 q 216 859 216 862 l 216 312 q 276 220 216 252 q 312 212 294 212 l 331 212 q 429 295 405 212 q 431 325 431 313 l 431 859 q 435 863 432 863 l 646 863 q 650 859 650 862 l 650 312 q 544 68 650 179 q 342 -7 456 -7 l 306 -7 q 31 168 119 -7 q -3 304 -3 246 l -3 859 q 1 863 -2 863 m 1041 863 l 1074 863 q 1345 742 1255 863 l 1345 737 q 1278 568 1292 593 q 1056 680 1144 680 l 1054 680 q 958 608 972 680 l 958 597 q 1105 540 958 559 q 1335 267 1335 494 q 1222 53 1335 147 q 1018 -7 1137 -7 l 982 -7 q 765 72 879 -7 q 709 134 709 123 q 791 289 786 288 q 999 176 899 176 q 1105 235 1078 176 q 1109 265 1109 252 l 1109 278 q 1044 359 1109 336 q 926 374 954 366 q 773 461 823 400 q 733 587 733 517 q 945 848 733 783 q 1041 863 997 863 m 1452 863 l 1988 863 q 1992 859 1992 862 l 1992 648 q 1988 644 1992 644 l 1666 644 l 1666 538 l 1934 538 q 1939 533 1939 537 l 1939 323 q 1934 319 1939 319 l 1666 319 l 1666 212 l 1988 212 q 1992 208 1992 212 l 1992 -3 q 1988 -7 1992 -7 l 1452 -7 q 1447 -3 1447 -7 l 1447 859 q 1452 863 1448 863 z "},"A":{"ha":1085,"x_min":0,"x_max":1017,"o":"m 1012 1356 q 1017 1351 1017 1356 l 1017 38 q 841 -24 1017 29 q 713 -68 841 -27 l 711 -62 l 711 735 l 708 735 q 304 -271 309 -271 l 5 -271 l 0 -269 q 610 1356 600 1332 l 1012 1356 m 939 1004 q 933 998 939 998 l 922 1001 q 914 998 917 998 q 903 1001 909 1001 l 895 987 l 901 985 q 906 990 901 990 l 909 990 l 917 985 q 925 990 917 990 q 933 987 930 987 q 939 993 934 993 l 941 993 l 947 990 l 952 998 q 939 1004 945 998 m 787 977 l 781 968 l 784 968 l 798 971 q 800 968 798 968 l 806 977 l 803 977 l 789 974 q 787 977 789 977 m 841 947 l 841 944 q 852 941 852 944 l 857 944 l 882 944 q 884 941 884 944 l 890 944 l 898 944 q 901 941 901 944 l 906 944 l 914 944 l 920 941 l 920 952 l 917 952 q 906 949 907 949 q 898 952 901 952 q 890 949 892 949 l 884 952 q 841 947 850 947 m 602 920 l 602 914 l 605 914 l 605 920 l 602 920 m 572 909 l 572 906 q 578 911 578 906 l 578 914 q 572 909 572 913 m 724 909 l 724 906 q 743 903 732 906 q 773 909 754 909 l 773 914 l 768 911 l 760 911 q 757 914 757 911 q 724 909 754 911 m 922 903 l 922 898 l 936 901 l 936 903 l 922 903 m 873 901 l 873 898 l 879 898 l 879 901 l 873 901 m 890 901 l 890 898 l 895 898 l 895 901 l 890 901 m 958 898 q 960 882 960 894 q 982 887 975 887 l 982 890 l 977 898 l 971 895 q 966 901 966 895 q 958 898 960 898 m 914 871 q 892 854 909 854 q 882 868 882 860 l 879 868 q 873 860 879 860 l 871 860 q 865 868 865 860 l 863 868 q 857 860 863 860 l 854 860 q 849 868 849 860 l 846 868 q 841 857 846 864 l 841 852 l 917 852 l 922 849 l 925 868 q 914 871 919 868 m 985 836 l 985 833 l 990 833 l 990 836 l 985 836 m 952 787 q 928 789 937 789 q 917 762 928 778 q 939 757 939 762 l 930 746 l 930 741 q 944 735 944 741 l 944 732 q 933 719 937 719 l 928 719 q 922 724 922 719 q 925 732 925 730 l 911 732 q 906 724 911 724 l 903 724 l 898 727 q 841 703 897 722 q 817 686 817 691 l 819 686 q 895 713 854 693 l 911 713 q 933 692 925 709 q 936 686 936 692 l 939 686 q 944 703 939 703 l 947 703 q 955 673 955 703 q 952 670 952 673 l 960 670 q 966 684 960 684 l 971 684 q 977 675 977 684 q 1001 686 1001 680 q 993 692 993 686 q 1004 703 996 703 l 1004 708 q 993 711 998 708 q 985 708 987 708 l 979 711 q 966 692 968 711 l 960 692 q 955 697 955 692 l 955 703 q 966 708 955 708 l 958 722 q 971 746 962 746 l 968 751 l 968 754 l 974 754 q 979 749 979 753 q 977 746 977 749 q 990 724 983 746 q 993 722 993 724 q 1004 724 998 724 l 1004 746 q 996 751 996 746 l 1004 762 l 1004 822 l 993 822 q 966 795 977 822 q 952 787 959 795 m 863 789 l 863 781 l 865 762 l 868 762 q 882 781 868 768 l 890 781 l 895 779 l 895 789 l 863 789 m 849 770 l 849 762 l 852 762 l 852 770 l 849 770 m 871 754 l 868 749 l 873 746 l 887 746 l 887 751 l 882 749 l 879 749 l 871 754 m 958 757 l 960 751 q 955 746 960 746 l 952 751 q 958 757 953 757 m 982 754 l 987 754 q 993 749 993 753 l 987 746 q 982 751 982 746 l 982 754 m 920 689 q 914 673 920 673 l 911 673 q 906 684 906 673 l 903 684 q 884 665 903 665 q 838 646 845 646 q 849 635 838 642 q 857 643 849 639 l 868 637 l 890 651 l 892 651 q 895 648 895 651 q 941 665 901 648 l 947 665 l 947 670 q 922 684 934 670 l 922 689 l 920 689 m 798 681 l 779 667 l 781 667 q 806 678 795 675 l 806 681 l 798 681 m 830 654 l 836 654 l 836 659 q 830 654 830 659 m 770 627 l 770 624 l 779 624 q 798 637 779 628 q 817 646 798 640 l 817 648 l 811 648 l 770 627 m 925 624 l 922 624 l 917 627 l 909 618 q 911 610 911 613 q 947 624 943 624 l 960 621 q 987 648 987 635 l 982 648 q 925 624 960 636 m 751 618 q 741 613 751 613 l 741 608 l 743 608 q 757 616 752 616 l 757 618 l 751 618 m 906 578 q 920 575 915 578 l 944 594 q 906 578 935 594 m 827 581 l 827 578 l 833 578 l 833 581 l 827 581 m 887 564 l 887 562 l 892 562 l 895 567 q 887 564 890 564 m 854 551 q 857 543 857 545 l 860 543 q 879 553 872 553 l 879 556 l 873 556 q 854 551 865 551 m 968 515 q 955 505 968 507 l 952 499 l 958 496 q 977 513 977 508 l 971 515 l 968 515 m 928 488 q 930 486 930 488 q 941 494 941 490 l 933 494 q 928 488 928 493 m 985 274 l 985 269 q 1001 271 989 271 l 1001 279 l 996 279 q 985 274 989 274 m 998 122 l 1001 117 l 1001 114 l 996 106 l 998 106 q 1004 111 1004 106 l 1004 122 l 998 122 m 958 98 q 963 92 963 97 q 993 106 993 101 q 977 111 983 106 q 958 98 958 100 m 160 84 l 165 84 l 165 90 q 160 84 160 89 m 901 87 l 901 81 l 903 81 l 903 87 l 901 87 m 149 76 l 149 73 l 155 73 l 155 81 q 149 76 149 81 m 890 79 l 890 76 l 895 76 l 895 79 l 890 79 m 998 71 l 998 68 l 1001 54 l 1004 54 l 1004 71 l 998 71 m 977 65 q 949 41 949 50 q 936 30 949 30 q 941 24 937 24 l 944 24 q 966 35 951 31 q 977 46 968 46 l 985 46 q 990 62 985 56 l 977 65 m 887 49 l 887 46 l 892 46 l 892 49 l 887 49 m 871 43 l 871 41 l 876 41 l 876 43 l 871 43 m 914 27 q 906 19 914 19 q 911 14 907 14 l 914 14 q 930 19 920 19 l 930 27 l 914 27 m 155 19 q 149 8 155 15 l 152 8 l 160 19 l 155 19 m 184 -16 l 184 -22 l 187 -22 l 187 -16 l 184 -16 m 144 -52 q 141 -65 144 -60 q 144 -76 144 -70 l 149 -76 q 152 -68 149 -68 q 149 -52 149 -64 l 144 -52 m 179 -117 q 165 -146 179 -122 q 171 -152 171 -147 l 171 -155 l 152 -176 q 149 -198 152 -198 q 152 -214 152 -202 l 155 -214 q 165 -179 155 -199 l 165 -165 q 176 -149 176 -165 l 184 -130 l 184 -117 l 179 -117 m 98 -195 l 98 -198 q 103 -203 98 -203 l 103 -195 l 98 -195 m 315 -198 l 315 -203 q 320 -198 320 -203 l 315 -198 m 98 -209 l 98 -214 q 103 -220 98 -220 l 103 -214 q 98 -209 103 -209 m 19 -258 l 43 -258 l 43 -244 l 38 -236 l 38 -228 q 41 -225 38 -225 q 38 -217 38 -220 q 19 -258 33 -217 m 98 -225 l 98 -231 q 103 -236 98 -236 l 103 -231 q 98 -225 103 -225 m 98 -241 l 98 -247 q 103 -252 98 -252 l 103 -247 q 98 -241 103 -241 m 73 -247 l 73 -252 l 79 -252 q 73 -247 79 -247 z "},"B":{"ha":1153,"x_min":0,"x_max":1120,"o":"m 0 1356 l 613 1356 q 922 1229 786 1356 q 1020 949 1020 1120 q 863 553 1018 632 q 833 545 842 545 l 833 543 q 990 477 917 532 q 1120 152 1120 364 l 1120 122 q 798 -244 1120 -146 q 613 -271 699 -271 l 408 -271 l 408 35 l 613 35 q 762 174 762 54 l 762 203 q 656 331 762 293 q 594 339 629 339 l 307 339 l 307 -68 q 0 35 8 30 l 0 1356 m 165 1343 q 168 1335 168 1337 q 176 1337 174 1337 l 176 1340 l 165 1343 m 665 1337 q 667 1329 667 1332 q 678 1335 674 1335 l 678 1337 l 665 1337 m 572 1326 l 572 1321 l 575 1321 l 575 1326 l 572 1326 m 716 1326 q 697 1313 716 1320 q 692 1318 697 1318 l 684 1318 l 684 1310 q 697 1302 697 1310 l 713 1302 l 727 1299 q 732 1308 727 1308 q 716 1326 732 1326 m 277 1310 l 277 1305 l 285 1305 q 279 1310 285 1310 l 277 1310 m 768 1310 q 787 1297 768 1299 l 787 1305 q 768 1310 785 1305 m 646 1289 l 670 1294 l 667 1299 q 646 1289 646 1294 m 285 1289 l 285 1283 l 288 1283 q 293 1289 293 1283 l 285 1289 m 686 1272 l 692 1272 l 700 1278 l 708 1272 l 708 1280 l 694 1280 q 686 1272 690 1280 m 749 1275 l 751 1270 q 732 1248 751 1266 q 751 1242 745 1248 q 762 1245 756 1245 l 765 1240 l 765 1234 l 762 1229 q 773 1213 773 1229 q 770 1210 770 1213 q 779 1207 773 1210 q 784 1215 779 1215 l 789 1215 l 798 1210 q 833 1221 812 1221 l 833 1223 q 803 1232 803 1227 q 800 1229 800 1232 q 768 1237 768 1231 l 768 1245 q 773 1251 768 1251 l 781 1251 l 792 1242 l 795 1242 l 798 1253 q 762 1264 762 1261 l 762 1267 l 765 1280 q 749 1275 760 1280 m 857 1264 q 844 1251 857 1251 l 844 1245 q 863 1232 848 1245 l 873 1232 q 860 1264 865 1242 l 857 1264 m 719 1261 l 719 1256 l 722 1256 l 722 1261 l 719 1261 m 692 1259 q 686 1245 692 1245 l 673 1245 l 673 1240 l 675 1226 q 694 1242 694 1227 q 705 1256 699 1242 l 705 1259 l 700 1256 l 697 1256 l 692 1259 m 722 1248 l 722 1240 q 727 1245 727 1240 l 722 1248 m 46 1226 l 46 1221 q 52 1215 47 1215 l 54 1229 q 46 1226 49 1226 m 749 1226 q 738 1207 749 1207 l 738 1204 q 762 1202 760 1204 l 762 1204 q 754 1226 754 1212 l 749 1226 m 882 1221 q 873 1213 882 1217 l 868 1213 l 863 1215 l 857 1207 q 892 1185 877 1200 q 901 1191 892 1191 l 909 1191 q 922 1204 911 1204 l 906 1223 l 901 1221 l 882 1221 m 689 1207 l 689 1204 q 705 1196 696 1204 l 708 1196 l 716 1202 l 722 1202 l 727 1199 l 730 1204 q 713 1213 722 1204 l 689 1207 m 673 1202 l 673 1199 l 678 1199 l 678 1202 l 673 1202 m 925 1177 l 925 1172 l 930 1164 q 928 1156 928 1158 l 933 1153 l 939 1153 q 944 1164 939 1164 l 947 1158 l 941 1150 l 941 1142 q 952 1128 949 1142 l 968 1115 l 977 1115 q 968 1134 968 1128 l 963 1131 l 958 1131 q 952 1137 952 1131 l 952 1142 q 960 1147 952 1147 l 960 1150 q 925 1177 949 1177 m 879 1161 q 884 1150 884 1154 q 903 1153 895 1153 l 901 1158 l 895 1156 l 890 1156 l 882 1161 l 879 1161 m 833 1139 q 830 1131 833 1137 l 836 1131 q 844 1139 840 1131 l 833 1139 m 933 1134 q 928 1120 933 1120 l 925 1120 q 920 1128 920 1120 l 917 1128 q 909 1104 917 1115 l 917 1099 l 928 1099 q 933 1109 928 1109 l 936 1109 l 944 1104 q 960 1109 944 1109 q 936 1131 960 1113 l 936 1134 l 933 1134 m 884 1115 q 879 1104 884 1104 l 876 1104 q 871 1112 871 1104 l 868 1112 q 863 1099 868 1105 l 868 1090 l 863 1082 l 876 1082 l 890 1099 q 892 1109 892 1103 l 884 1115 m 836 1101 q 825 1090 836 1090 l 825 1085 l 841 1082 l 838 1101 l 836 1101 m 977 1088 l 979 1074 l 990 1074 q 982 1088 987 1088 l 977 1088 m 779 1072 q 770 1066 779 1066 l 770 1061 l 773 1061 q 787 1066 780 1066 l 787 1069 q 779 1072 784 1069 m 974 1053 l 974 1047 l 979 1050 l 985 1047 l 990 1055 l 987 1055 l 974 1053 m 309 1050 l 309 781 l 608 781 q 705 860 677 781 q 713 917 713 892 q 618 1047 713 1029 q 589 1050 609 1050 l 309 1050 m 977 960 l 977 958 l 982 958 l 982 960 l 977 960 m 35 477 l 35 472 q 41 477 41 472 l 35 477 m 939 472 l 939 467 l 941 467 l 941 472 l 939 472 m 914 467 l 911 461 l 911 456 q 925 461 918 461 l 925 464 l 914 467 m 76 448 l 76 439 l 79 439 l 79 448 l 76 448 m 952 423 l 949 423 l 941 429 q 922 423 935 423 l 922 418 q 933 410 933 416 l 933 407 l 930 401 l 936 401 q 960 420 960 416 q 974 426 969 426 q 966 434 974 430 l 952 423 m 960 410 q 1001 363 981 363 l 1001 350 q 1020 361 1016 350 l 1020 366 l 996 396 q 987 407 996 400 l 987 418 l 1006 418 l 1006 420 l 996 423 q 960 410 979 410 m 906 418 l 906 415 l 914 415 l 914 418 l 906 418 m 890 412 l 890 410 q 901 404 894 410 l 901 412 l 890 412 m 873 407 l 873 404 q 882 399 882 404 l 882 396 q 873 391 882 391 q 879 385 874 385 l 884 385 q 887 393 884 393 q 884 407 884 398 l 873 407 m 1017 407 q 1015 396 1017 401 l 1020 396 l 1020 407 l 1017 407 m 127 404 l 127 401 l 133 401 l 133 404 l 127 404 m 1023 374 l 1034 374 q 1044 385 1034 385 l 1044 391 l 1039 391 q 1023 374 1023 384 m 906 377 q 911 366 911 377 q 930 382 924 371 l 930 388 l 922 388 q 906 377 906 380 m 43 350 l 52 350 q 65 369 52 363 q 73 377 65 377 l 73 382 q 43 350 47 368 m 1009 372 l 1012 366 l 1006 363 l 1004 369 l 1009 372 m 1061 361 q 1050 342 1061 357 q 1061 334 1061 342 l 1061 326 q 1074 331 1074 326 q 1063 361 1074 334 l 1061 361 m 71 358 l 71 355 l 76 355 l 76 358 l 71 358 m 887 350 l 887 345 l 890 345 l 890 350 l 887 350 m 966 326 q 998 336 986 336 l 998 350 l 996 350 q 966 326 966 348 m 879 342 l 876 331 q 882 339 882 331 l 882 342 l 879 342 m 895 334 l 895 328 q 901 320 901 328 l 906 320 q 895 334 901 332 m 1034 328 q 1009 312 1034 317 q 1015 277 1015 288 l 1015 271 q 1001 258 1001 260 l 1001 255 q 1006 239 1006 249 l 1017 239 q 1023 250 1017 250 l 1031 250 l 1039 244 l 1039 263 l 1031 274 l 1031 282 q 1039 288 1031 288 l 1039 290 l 1036 296 l 1031 293 l 1028 293 q 1023 298 1023 293 l 1023 304 q 1036 315 1036 311 q 1047 320 1036 320 l 1047 323 q 1034 328 1040 323 m 779 320 l 779 315 q 787 307 779 311 l 789 307 q 792 315 789 309 l 784 320 l 779 320 m 941 301 l 949 296 l 963 296 l 963 298 q 947 307 956 298 q 941 301 941 306 m 65 288 l 65 282 l 71 282 q 76 288 76 282 l 76 290 q 65 288 71 288 m 1066 290 q 1055 279 1066 279 q 1069 271 1055 273 q 1080 277 1069 277 l 1080 279 q 1074 290 1074 286 l 1066 290 m 806 279 l 806 277 l 811 277 l 811 279 l 806 279 m 52 274 l 54 269 l 54 266 q 46 258 54 262 q 49 250 49 252 q 60 266 55 250 q 57 274 57 271 l 52 274 m 1077 263 l 1085 247 q 1093 250 1090 250 l 1093 258 q 1088 269 1088 264 l 1085 269 l 1077 263 m 27 195 l 35 190 l 41 190 q 52 222 41 205 l 52 236 l 49 236 q 35 209 40 236 q 27 195 33 209 m 130 220 l 114 184 l 114 182 q 141 212 119 182 l 144 212 l 144 214 q 130 220 139 214 m 1082 209 q 1085 201 1085 203 q 1104 214 1098 201 l 1099 217 q 1082 209 1082 211 m 1101 198 q 1093 184 1101 193 l 1104 184 l 1104 198 l 1101 198 m 179 155 l 193 155 q 203 184 193 163 q 193 193 193 184 q 179 155 188 193 m 1053 168 l 1053 165 q 1074 155 1053 162 l 1074 152 l 1066 141 q 1069 133 1069 136 q 1107 155 1099 155 l 1107 182 l 1104 182 q 1080 155 1104 165 l 1077 155 q 1072 160 1072 155 l 1072 165 q 1082 171 1072 171 l 1082 176 q 1072 184 1072 176 l 1061 168 l 1053 168 m 103 155 l 103 146 l 117 146 l 117 155 l 114 174 q 103 155 111 174 m 228 174 l 225 160 l 236 160 l 233 165 l 236 171 q 228 174 233 171 m 222 157 l 222 152 l 225 152 l 225 157 l 222 157 m 225 130 l 225 127 l 228 127 q 236 130 233 130 q 250 127 239 127 q 255 141 250 132 l 252 141 q 225 130 242 132 m 41 133 l 41 122 q 46 127 46 122 q 41 133 46 133 m 201 133 q 187 103 201 103 q 179 92 187 92 l 182 87 l 182 79 q 179 76 182 76 q 187 57 182 57 q 195 60 193 60 l 201 52 l 201 46 l 195 38 q 212 27 208 38 l 212 24 l 201 14 l 201 5 l 214 14 l 217 14 l 225 8 l 225 14 q 217 30 219 14 q 212 33 212 30 q 209 62 209 56 l 190 62 q 184 68 184 62 l 184 76 q 190 81 185 81 l 198 81 q 201 79 201 81 q 209 81 206 81 q 201 98 201 92 q 206 130 201 104 l 201 133 m 901 130 l 901 125 l 903 125 l 903 130 l 901 130 m 16 119 l 16 106 q 27 95 16 102 l 33 95 l 33 103 l 35 117 q 16 119 27 117 m 1082 114 l 1082 111 q 1093 100 1082 107 l 1090 117 q 1082 114 1085 114 m 285 103 l 285 100 q 293 109 289 100 l 290 109 q 285 103 285 108 m 84 106 q 76 81 81 81 q 46 92 69 81 q 30 71 46 74 l 16 73 l 16 60 l 54 38 q 52 30 52 33 l 54 30 l 71 33 q 90 19 75 19 l 90 24 q 79 30 79 24 l 79 41 q 92 57 92 52 l 103 57 l 109 54 l 109 62 q 103 84 109 65 q 109 90 104 90 l 106 95 l 106 98 l 109 103 q 84 106 94 103 m 1001 103 l 1001 100 l 1006 100 l 1006 103 l 1001 103 m 122 90 l 122 81 q 141 68 137 81 l 141 57 q 122 35 132 35 q 125 14 125 20 l 138 16 l 152 16 q 157 11 157 16 l 157 8 l 152 0 l 152 -3 l 157 0 l 165 0 l 171 -3 l 174 3 q 171 14 171 7 q 187 41 187 22 l 182 38 l 179 38 q 171 46 175 38 l 171 60 q 138 84 138 78 q 130 98 138 98 q 122 90 126 98 m 1101 84 l 1101 79 l 1104 79 l 1104 84 l 1101 84 m 57 65 l 65 65 q 73 57 69 65 l 73 54 q 65 46 73 50 l 54 46 q 49 54 49 46 q 57 65 53 65 m 285 35 l 285 30 l 290 30 l 290 35 l 285 35 m 171 33 l 174 27 q 168 22 174 22 l 165 27 q 171 33 166 33 m 160 24 l 163 19 l 157 16 l 155 16 l 155 19 q 160 24 155 24 m 190 -16 l 198 -16 l 201 -3 q 190 -16 197 -3 m 252 -14 l 252 -19 l 255 -19 l 255 -14 l 252 -14 z "},"C":{"ha":1057,"x_min":0,"x_max":1028,"o":"m 806 1356 l 1028 1356 l 1028 1050 l 814 1050 q 453 914 623 1050 q 307 543 307 775 q 890 -38 307 136 q 1017 -71 947 -54 l 817 -271 l 806 -271 q 220 -14 473 -271 q 0 545 0 229 q 345 1210 0 941 q 806 1356 566 1356 m 165 873 l 165 868 l 168 868 l 168 873 l 165 873 m 160 863 l 160 857 l 163 857 l 163 863 l 160 863 m 65 825 q 62 817 65 822 l 68 817 l 68 825 l 65 825 m 60 803 l 65 800 l 65 808 q 60 803 60 808 m 60 787 l 65 784 l 65 792 q 60 787 60 791 m 60 770 q 65 765 60 765 l 65 776 q 60 770 60 775 m 57 754 l 62 751 l 62 760 q 57 754 57 759 m 49 735 q 38 738 44 738 l 22 651 l 24 651 l 33 656 q 49 640 49 656 l 57 640 l 60 651 q 54 656 54 651 l 54 659 l 57 665 l 54 665 l 46 659 q 41 665 41 659 l 41 678 q 35 684 35 678 l 35 689 q 46 703 46 696 l 57 703 l 57 694 q 62 700 62 694 l 49 713 l 49 719 l 57 719 l 54 732 l 54 735 l 60 735 l 60 741 l 49 735 m 49 692 l 49 689 q 57 681 49 685 l 60 681 l 60 684 q 57 692 57 689 l 49 692 m 157 686 l 160 673 q 152 659 156 673 q 155 656 152 656 l 152 643 q 157 637 153 637 q 160 643 157 643 q 157 646 160 646 q 163 686 163 680 l 157 686 m 195 646 q 187 629 195 629 l 190 624 l 190 621 l 184 613 q 187 602 187 608 l 179 597 l 182 591 l 182 589 q 174 581 182 585 q 184 570 176 572 q 195 613 190 576 l 198 613 l 195 618 q 198 640 195 621 l 198 646 l 195 646 m 22 640 q 16 605 20 634 l 24 610 l 30 610 q 46 600 46 603 l 46 597 l 43 591 l 49 591 q 54 624 54 617 l 52 624 l 41 610 q 27 637 37 610 l 22 640 m 54 637 l 54 629 l 57 629 l 57 637 l 54 637 m 152 635 l 149 624 q 157 627 155 627 q 155 635 155 632 l 152 635 m 95 591 l 95 586 l 98 586 l 98 591 l 95 591 m 16 586 l 16 532 l 33 521 l 33 515 q 22 510 33 510 l 22 507 q 41 480 41 507 l 41 477 q 22 461 41 474 l 43 448 l 49 448 l 54 450 q 52 458 52 456 q 54 515 54 506 q 46 521 46 515 l 46 529 q 49 532 46 532 q 46 540 46 537 q 52 564 48 564 q 49 572 49 570 l 43 572 q 38 562 43 562 q 22 586 22 572 l 16 586 m 136 581 l 136 572 l 138 572 l 138 581 l 136 581 m 133 564 l 133 556 l 136 556 q 138 564 136 559 l 133 564 m 130 548 l 130 545 l 136 545 l 136 548 l 130 548 m 168 545 q 163 532 168 538 l 163 529 l 165 529 q 174 540 165 533 q 168 545 174 545 m 260 540 l 260 532 l 266 532 l 266 545 q 260 540 260 545 m 81 513 q 73 483 81 490 q 76 472 76 478 q 71 467 71 471 q 76 461 76 466 l 76 458 l 68 448 l 68 437 l 81 415 l 81 412 q 54 401 81 405 l 52 407 l 54 412 l 49 415 q 27 401 47 401 q 43 361 37 361 l 46 361 q 60 374 46 368 l 62 374 q 71 361 71 374 l 73 361 q 90 388 85 388 l 106 388 q 122 412 106 397 l 109 434 l 103 431 l 98 431 q 92 437 92 431 l 92 439 q 106 445 92 445 l 106 448 q 81 464 93 448 l 81 467 l 87 475 q 81 480 81 475 l 81 483 l 87 491 q 84 502 84 496 q 90 507 90 502 l 81 513 m 160 499 l 160 486 q 155 469 160 478 q 157 458 157 465 l 152 450 q 157 439 157 450 l 160 439 q 165 499 165 494 l 160 499 m 231 429 l 231 426 l 239 426 l 239 429 l 231 429 m 98 429 l 103 429 q 109 423 109 428 l 109 420 q 103 415 109 415 l 98 415 q 92 420 92 415 l 92 423 q 98 429 93 429 m 228 420 q 225 412 228 418 l 231 412 l 231 420 l 228 420 m 293 415 l 293 407 l 296 407 q 298 415 296 410 l 293 415 m 43 399 l 46 393 l 41 391 l 38 396 l 43 399 m 157 339 q 163 334 158 334 l 171 334 q 168 342 168 339 q 157 339 163 339 m 136 331 q 133 323 136 328 l 136 323 q 144 326 141 326 q 138 331 144 331 l 136 331 m 130 320 l 130 312 l 133 312 l 133 320 l 130 320 m 79 263 l 79 258 l 81 258 l 81 263 l 79 263 m 369 260 l 369 250 l 372 250 l 372 260 l 369 260 m 464 35 l 461 22 q 469 24 467 24 l 469 30 q 464 35 469 35 m 906 -62 q 898 -87 903 -87 l 892 -87 q 871 -79 884 -87 q 863 -81 865 -81 q 882 -146 865 -112 q 890 -155 890 -146 l 895 -152 l 903 -152 l 911 -157 l 971 -95 l 966 -87 l 966 -84 q 977 -76 966 -77 l 982 -79 l 985 -79 l 985 -76 q 906 -62 931 -62 m 909 -81 l 920 -81 q 944 -106 944 -91 l 944 -117 q 928 -133 944 -119 l 922 -133 q 911 -117 911 -127 q 914 -114 914 -117 l 909 -111 q 895 -133 909 -127 l 890 -133 l 876 -117 q 887 -100 882 -100 l 892 -100 q 898 -109 898 -100 l 909 -109 q 903 -92 903 -100 l 903 -87 q 909 -81 904 -81 m 844 -109 l 844 -122 q 852 -141 844 -131 l 852 -163 l 854 -163 l 860 -160 l 857 -155 l 860 -141 q 846 -109 854 -141 l 844 -109 m 521 -117 l 521 -125 l 524 -125 l 524 -117 l 521 -117 m 876 -184 l 882 -184 q 895 -171 885 -184 q 887 -165 887 -171 q 876 -184 880 -165 m 863 -184 l 863 -187 q 868 -198 868 -194 q 873 -193 873 -198 l 873 -184 l 863 -184 m 656 -222 l 656 -228 l 662 -228 q 656 -222 662 -222 m 770 -231 l 770 -236 q 776 -247 776 -243 l 779 -247 l 779 -244 q 776 -231 776 -239 l 770 -231 m 662 -236 l 662 -241 l 667 -241 q 662 -236 667 -236 z "},"D":{"ha":1381,"x_min":0,"x_max":1324,"o":"m 0 1356 l 496 1356 q 966 1223 718 1356 q 1324 543 1324 1005 q 792 -222 1324 -35 q 507 -271 626 -271 l 407 -271 l 407 35 l 510 35 q 871 171 701 35 q 1017 543 1017 311 q 618 1036 1017 939 q 510 1050 557 1050 l 307 1050 l 307 -68 l 0 35 l 0 1356 m 16 1343 l 14 1324 l 41 1299 l 41 1294 q 35 1289 41 1289 l 30 1289 l 14 1302 l 14 1278 l 35 1278 q 79 1343 35 1284 l 16 1343 m 488 1324 q 491 1316 491 1318 l 496 1316 q 524 1343 517 1329 l 518 1343 q 488 1324 507 1343 m 174 1337 l 174 1335 l 179 1335 l 179 1337 l 174 1337 m 160 1324 l 160 1313 l 163 1313 q 168 1324 163 1317 l 168 1326 q 160 1324 163 1324 m 149 1310 l 149 1305 l 152 1305 l 152 1310 l 149 1310 m 716 1310 l 716 1305 q 722 1299 717 1299 l 727 1308 q 716 1310 721 1308 m 540 1299 l 540 1294 q 548 1302 544 1294 q 540 1299 543 1299 m 678 1299 q 686 1291 678 1295 q 697 1294 691 1294 q 692 1302 694 1302 l 678 1299 m 814 1278 q 806 1272 814 1272 q 808 1264 808 1267 q 825 1275 825 1270 l 814 1278 m 646 1259 l 646 1256 l 648 1251 q 659 1264 659 1253 q 646 1259 650 1259 m 857 1248 l 857 1245 q 863 1234 863 1238 q 852 1221 857 1222 q 836 1226 844 1221 q 817 1210 836 1220 q 827 1199 817 1206 l 838 1199 q 887 1226 853 1210 q 903 1240 903 1232 l 887 1248 q 876 1234 882 1236 q 871 1251 871 1234 l 857 1248 m 770 1242 l 770 1237 q 779 1240 776 1240 l 779 1242 l 770 1242 m 627 1232 l 627 1226 q 632 1232 632 1226 l 627 1232 m 700 1226 l 700 1223 q 705 1229 705 1223 l 705 1232 q 700 1226 700 1231 m 898 1172 q 892 1180 892 1172 l 879 1180 l 876 1169 l 882 1166 q 887 1175 882 1175 l 890 1169 q 873 1158 890 1164 q 884 1128 873 1156 l 890 1131 l 895 1131 q 901 1126 901 1131 l 895 1115 l 901 1112 l 909 1112 q 914 1120 909 1120 l 920 1118 l 920 1123 l 914 1131 l 914 1137 q 925 1153 925 1143 l 928 1158 q 920 1166 924 1158 l 936 1183 l 941 1183 l 963 1169 l 966 1169 q 990 1188 966 1183 l 990 1191 q 955 1210 960 1210 q 949 1204 955 1204 l 944 1204 l 936 1210 q 920 1191 920 1205 q 901 1175 920 1180 q 898 1172 901 1172 m 933 1158 l 933 1156 q 944 1139 944 1156 q 939 1134 939 1139 l 939 1131 l 944 1134 l 947 1134 q 968 1126 967 1134 l 968 1120 q 960 1112 968 1116 l 947 1118 l 944 1118 l 944 1115 q 955 1107 955 1114 l 955 1101 q 947 1093 955 1097 l 933 1096 l 933 1085 q 949 1069 940 1085 l 958 1069 q 952 1090 952 1079 q 968 1101 966 1101 l 966 1107 q 971 1112 966 1112 l 974 1112 q 990 1096 990 1104 l 993 1096 l 998 1099 l 996 1104 l 996 1107 l 1001 1115 q 990 1120 990 1115 l 990 1139 l 993 1153 l 977 1156 q 971 1150 977 1150 l 968 1150 q 963 1158 963 1150 l 933 1158 m 1020 1147 q 1012 1139 1020 1139 l 1012 1137 l 1017 1128 l 1017 1120 l 990 1047 l 990 1036 q 996 1031 991 1031 q 1034 1128 1015 1108 q 1039 1139 1034 1133 l 1028 1147 l 1020 1147 m 887 1147 l 890 1142 q 884 1137 890 1137 l 882 1142 q 887 1147 882 1147 m 863 1139 l 863 1128 l 865 1128 l 868 1139 l 863 1139 m 1055 1137 l 1055 1134 l 1058 1120 l 1061 1120 q 1063 1137 1061 1133 l 1055 1137 m 977 1128 l 979 1128 q 985 1123 985 1128 l 985 1120 q 979 1115 985 1115 q 971 1123 975 1115 q 977 1128 972 1128 m 822 1118 l 822 1112 l 825 1112 l 825 1118 l 822 1118 m 876 1055 l 879 1055 q 903 1072 903 1065 l 898 1072 q 876 1055 876 1059 m 1126 1063 l 1126 1055 q 1131 1050 1126 1050 l 1134 1055 l 1134 1066 q 1126 1063 1128 1063 m 1120 1044 q 1115 1028 1120 1034 l 1115 1025 l 1123 1025 q 1128 1039 1123 1032 l 1128 1044 l 1120 1044 m 936 1031 l 936 1023 l 939 1023 q 941 1031 939 1025 l 936 1031 m 1134 1017 q 1139 1012 1135 1012 l 1142 1012 l 1142 1017 l 1134 1017 m 1109 1012 l 1109 1001 l 1112 1001 l 1112 1012 l 1109 1012 m 52 741 l 54 727 l 52 722 l 52 719 l 54 719 q 65 754 65 752 q 52 741 62 754 m 14 686 l 14 670 l 19 673 q 16 686 16 677 l 14 686 m 14 646 l 14 637 q 19 643 19 637 l 14 646 m 38 589 l 41 572 l 46 572 l 46 586 l 52 594 l 52 610 l 38 589 m 35 567 q 38 559 38 562 l 41 559 l 41 570 l 35 567 m 27 545 l 27 543 l 35 543 l 35 551 l 33 551 q 27 545 27 550 m 176 502 q 179 491 179 497 l 182 491 q 190 507 182 498 l 190 513 l 187 513 q 176 502 184 513 m 214 404 q 203 380 214 380 l 212 369 q 220 372 217 372 l 217 385 q 222 391 222 385 q 217 404 217 397 l 214 404 m 22 396 q 14 382 22 391 l 14 380 l 22 380 l 24 393 l 24 396 l 22 396 m 90 382 l 90 377 l 92 361 q 81 339 81 361 q 92 323 92 339 q 111 353 111 334 q 92 382 92 361 l 90 382 m 157 328 l 165 328 l 168 342 q 157 328 165 342 m 195 339 q 201 334 196 334 l 203 339 l 195 339 m 87 301 q 84 304 84 301 l 79 301 q 65 320 65 313 l 62 320 q 46 307 62 307 l 46 304 q 60 282 60 294 q 54 277 54 281 q 60 271 55 271 q 81 296 64 296 l 90 296 l 103 285 q 138 317 118 317 q 152 304 138 314 l 157 312 l 157 315 q 144 320 144 315 l 146 334 q 87 301 128 311 m 182 312 q 184 304 184 307 q 165 288 184 298 q 155 279 165 279 q 157 266 157 275 l 160 266 q 168 279 161 279 q 187 263 186 263 q 193 279 193 272 l 193 288 l 187 296 q 214 320 214 315 l 214 323 q 182 312 202 312 m 250 317 q 233 301 250 309 q 203 241 227 294 l 206 241 l 225 250 q 233 258 225 258 l 233 263 l 225 274 l 225 285 q 263 307 227 293 l 263 309 l 250 317 m 260 298 l 260 288 l 263 288 l 263 298 l 260 298 m 250 271 l 247 266 l 255 255 q 239 228 239 240 l 241 228 q 263 260 263 250 q 250 271 258 260 m 263 269 l 263 263 l 266 263 l 266 269 l 263 269 m 146 250 l 149 250 q 155 255 155 250 l 155 258 q 146 250 151 258 m 1072 252 q 1077 247 1072 247 l 1077 252 l 1072 252 m 160 250 l 160 244 q 168 241 163 244 l 168 247 q 160 250 165 247 m 955 247 l 955 241 l 958 241 l 958 247 l 955 247 m 1063 239 l 1063 236 q 1072 233 1066 236 l 1074 233 l 1074 236 q 1066 239 1072 236 l 1063 239 m 174 209 l 174 206 q 187 187 187 206 l 190 187 q 214 225 190 212 l 214 228 q 201 233 208 228 q 174 209 184 209 m 266 203 l 271 201 l 277 201 q 293 220 284 202 l 293 233 q 266 203 281 233 m 949 233 l 949 228 l 952 228 l 952 233 l 949 233 m 1058 225 l 1058 220 l 1063 220 l 1063 225 l 1058 225 m 941 220 q 947 214 942 214 l 947 220 l 941 220 m 27 212 l 35 212 l 35 217 l 33 217 q 27 212 27 216 m 76 174 q 81 168 77 168 l 87 168 q 98 174 94 174 q 95 193 95 177 q 76 174 87 193 m 930 187 l 930 184 l 936 184 l 936 187 l 930 187 m 255 176 q 252 163 255 168 q 258 155 258 163 q 269 163 269 159 q 255 176 267 163 m 271 160 l 269 144 q 277 146 274 146 l 274 160 l 271 160 m 71 149 l 71 144 q 76 138 71 138 l 76 155 q 71 149 71 154 m 1012 92 l 1012 81 l 1015 81 q 1034 117 1025 117 l 1031 122 q 1012 92 1023 122 m 106 114 q 111 109 106 109 l 111 114 l 106 114 m 125 109 l 125 103 l 127 103 l 127 109 l 125 109 m 141 109 q 122 92 141 98 q 103 62 122 90 l 109 62 l 119 79 q 146 106 138 79 l 146 109 l 141 109 m 282 98 l 282 87 l 288 87 q 293 92 293 87 l 293 95 q 282 98 287 95 m 100 92 l 100 87 l 103 87 l 103 92 l 100 92 m 1004 73 l 1004 71 q 1009 76 1009 71 l 1009 79 q 1004 73 1004 78 m 136 68 q 133 54 136 59 l 141 54 q 152 65 145 54 q 136 68 140 65 m 225 60 q 222 49 225 54 l 225 49 l 231 57 l 231 60 l 225 60 m 643 35 l 643 33 q 651 30 646 33 l 651 35 l 643 35 m 111 27 l 117 24 l 117 33 q 111 27 111 32 m 632 30 l 632 19 l 635 19 l 635 30 l 632 30 m 865 24 l 865 16 l 868 16 l 868 24 l 865 24 m 231 14 l 231 5 l 241 5 l 241 11 q 231 14 235 11 m 694 8 l 694 -8 q 703 14 701 -8 l 700 14 q 694 8 694 13 m 502 5 q 510 -11 505 -11 q 518 -3 510 -3 l 515 11 l 513 11 q 502 5 506 5 m 860 11 l 860 3 l 863 3 l 863 11 l 860 11 m 214 3 q 220 -3 215 -3 l 222 3 l 214 3 m 453 0 l 453 -3 l 458 -3 l 458 0 l 453 0 m 420 -8 l 420 -27 l 423 -27 l 431 -22 l 429 -16 q 434 -11 429 -11 l 437 -11 l 445 -16 l 453 -5 l 439 -8 l 431 -3 l 426 -3 q 420 -8 420 -3 m 854 -3 l 854 -8 l 857 -8 l 857 -3 l 854 -3 m 684 -22 l 686 -22 l 694 -11 l 692 -11 q 684 -22 688 -11 m 773 -19 l 773 -24 l 784 -24 l 784 -14 q 773 -19 777 -19 m 768 -35 l 768 -38 l 773 -38 l 773 -30 q 768 -35 768 -31 m 974 -33 l 974 -38 l 977 -38 l 977 -33 l 974 -33 m 928 -122 l 928 -127 q 944 -106 932 -127 l 941 -92 l 947 -90 l 952 -92 q 966 -41 966 -59 q 928 -122 946 -66 m 591 -52 l 591 -57 l 594 -57 l 594 -52 l 591 -52 m 578 -65 l 578 -73 q 586 -65 582 -73 l 578 -65 m 423 -76 l 423 -87 l 426 -87 q 439 -73 426 -81 l 439 -71 q 423 -76 429 -76 m 553 -84 l 553 -90 l 559 -90 l 559 -84 l 553 -84 m 524 -92 l 526 -98 q 502 -114 526 -103 q 472 -141 502 -125 q 475 -149 475 -146 q 505 -125 497 -125 l 513 -125 q 518 -119 513 -119 l 526 -119 l 534 -125 q 545 -114 537 -114 l 545 -98 q 529 -90 538 -98 l 524 -92 m 429 -95 l 420 -106 l 420 -109 q 434 -98 433 -103 l 429 -95 m 822 -95 q 798 -146 806 -120 q 789 -152 789 -146 l 789 -157 l 792 -157 q 827 -95 827 -118 l 822 -95 m 692 -130 l 692 -136 l 694 -136 l 694 -130 l 692 -130 m 876 -136 q 846 -176 876 -142 l 844 -176 l 844 -187 q 882 -149 882 -175 q 887 -138 887 -149 l 882 -136 l 876 -136 m 719 -155 l 719 -160 l 722 -160 l 722 -155 l 719 -155 m 806 -184 q 800 -201 806 -195 l 800 -203 q 825 -187 825 -195 l 819 -184 l 806 -184 m 589 -187 l 591 -193 l 591 -201 q 583 -209 591 -205 l 581 -209 l 572 -203 l 570 -203 l 559 -214 q 543 -203 556 -214 l 534 -203 q 529 -212 534 -212 l 518 -203 q 505 -231 505 -219 l 505 -236 l 515 -236 q 540 -225 515 -225 q 556 -241 556 -232 q 600 -203 567 -241 q 594 -187 594 -195 l 589 -187 m 773 -195 l 773 -209 q 781 -206 779 -206 l 781 -201 q 776 -195 781 -195 l 773 -195 m 420 -201 l 420 -203 l 423 -220 q 420 -228 420 -225 l 426 -228 q 434 -217 426 -217 l 434 -206 q 420 -201 429 -206 m 635 -217 q 618 -241 635 -222 l 621 -241 q 640 -225 635 -225 l 640 -222 q 635 -217 640 -217 m 439 -220 l 439 -222 l 445 -222 l 445 -220 l 439 -220 m 553 -217 l 556 -222 l 551 -225 l 548 -220 l 553 -217 m 675 -222 l 675 -228 l 678 -228 l 678 -222 l 675 -222 m 665 -228 l 665 -233 l 667 -233 l 667 -228 l 665 -228 m 651 -236 l 651 -241 l 656 -241 l 656 -236 l 651 -236 m 420 -241 l 420 -250 l 423 -250 l 423 -241 l 420 -241 m 480 -247 l 480 -258 l 496 -258 l 496 -252 q 486 -247 492 -252 l 480 -247 z "},"E":{"ha":1085,"x_min":0,"x_max":1017,"o":"m 0 1356 l 1017 1356 l 1017 1050 l 307 1050 l 307 646 l 814 646 l 814 339 l 307 339 l 307 35 l 1017 35 l 1017 -271 l 0 -271 l 0 1356 m 14 1343 l 14 1286 l 60 1343 l 14 1343 m 244 751 l 244 746 q 250 751 250 746 l 244 751 m 705 629 q 697 602 705 622 q 703 597 703 602 l 703 589 l 700 583 l 705 581 q 711 586 711 581 l 711 594 q 705 605 705 601 l 708 624 l 708 629 l 705 629 m 684 618 l 681 608 q 686 616 686 608 l 686 618 l 684 618 m 779 591 l 781 586 q 779 578 779 581 l 784 578 q 795 594 784 586 q 792 602 792 600 l 789 602 q 779 591 785 602 m 675 600 q 665 591 675 591 l 651 594 l 643 567 q 654 551 648 551 l 656 551 q 681 570 656 564 q 686 583 681 576 q 675 600 681 600 m 705 564 l 708 559 q 697 543 708 543 l 700 537 q 686 532 700 532 l 686 529 q 694 507 686 524 l 697 507 q 703 518 697 518 l 705 518 q 711 507 711 518 l 716 510 l 727 510 l 732 507 q 738 518 732 518 q 741 510 741 513 l 743 510 l 743 515 l 741 529 l 730 521 q 724 537 724 530 l 724 545 q 708 564 708 545 l 705 564 m 567 551 l 572 551 l 572 556 q 567 551 567 555 m 675 548 q 681 543 676 543 l 686 543 l 686 548 l 675 548 m 404 537 l 404 532 l 407 532 l 407 537 l 404 537 m 697 505 q 684 491 697 491 l 684 486 q 689 483 689 486 l 694 486 l 697 486 l 703 483 q 705 494 703 494 q 697 505 701 505 m 285 496 l 285 488 l 288 488 l 288 496 l 285 496 m 610 494 l 610 488 l 613 475 q 610 472 610 475 q 629 477 621 477 l 629 480 q 610 494 626 480 m 716 494 q 711 477 716 484 q 722 456 722 466 l 724 456 q 727 467 724 467 l 724 480 l 724 494 l 716 494 m 795 483 q 792 475 795 480 l 800 475 l 800 483 l 795 483 m 640 458 l 648 458 l 654 461 q 651 480 651 472 q 640 458 647 480 m 675 448 l 670 439 l 670 434 q 689 415 689 420 l 692 415 q 694 420 692 420 q 675 448 686 448 m 553 442 q 551 434 553 439 q 553 426 553 429 l 548 423 q 551 415 551 418 l 556 418 l 570 418 l 570 434 q 553 442 564 434 m 635 434 l 635 418 l 637 418 q 651 434 642 418 l 651 439 q 635 434 645 434 m 532 434 l 532 426 l 534 426 l 534 434 l 532 434 m 784 415 q 776 404 784 404 l 773 404 l 765 410 q 751 399 760 399 l 751 393 l 757 385 l 754 380 l 760 380 q 787 407 772 380 l 787 415 l 784 415 m 594 404 q 583 385 594 396 l 586 385 q 602 404 589 385 l 594 404 m 621 391 q 635 372 621 388 l 627 361 l 627 358 l 629 358 q 643 374 635 358 l 643 382 l 637 391 l 632 388 l 627 388 l 621 391 m 703 382 l 684 366 l 684 358 l 689 358 q 694 366 689 366 l 700 366 l 711 353 l 716 353 q 722 358 722 353 q 703 382 722 373 m 537 380 l 534 374 q 540 366 540 374 l 543 366 l 543 374 q 537 380 543 380 m 768 358 l 768 353 l 773 353 q 779 358 779 353 l 768 358 m 795 19 q 800 14 795 14 l 803 14 l 803 19 l 795 19 m 817 19 q 814 11 817 16 q 822 0 822 11 q 836 14 825 0 l 836 16 l 822 19 l 817 19 m 846 -38 q 852 -49 852 -45 l 860 -49 q 865 -33 860 -33 l 879 -33 q 892 -14 879 -28 q 887 -8 887 -14 q 892 -3 888 -3 q 903 -19 892 -7 l 903 -24 l 895 -35 q 901 -57 901 -54 l 901 -68 q 895 -73 901 -73 q 873 -65 887 -73 l 873 -71 q 892 -90 884 -87 q 901 -79 897 -79 l 909 -79 q 917 -87 913 -79 l 917 -90 q 895 -98 917 -98 q 917 -130 911 -128 l 920 -125 q 909 -114 916 -125 l 909 -103 q 914 -98 909 -98 l 922 -98 l 928 -100 l 928 -92 q 922 -71 922 -73 q 930 -62 922 -66 l 936 -62 q 949 -79 947 -79 l 952 -79 l 960 -57 q 949 -49 949 -57 l 949 -46 q 963 -19 955 -39 l 968 -19 q 974 -24 974 -20 l 974 -30 l 971 -35 l 974 -35 q 993 0 983 -35 q 1004 8 1004 4 l 1004 11 l 1001 11 q 993 8 996 8 q 990 19 990 13 l 958 19 q 939 8 947 8 q 947 -11 947 -2 l 947 -14 q 925 -24 947 -20 q 903 19 903 6 l 901 19 q 873 0 873 4 q 857 -38 857 -12 l 846 -38 m 928 19 q 933 14 928 14 l 933 19 l 928 19 m 974 14 l 977 14 q 982 8 982 13 l 982 5 q 977 0 982 0 l 974 0 q 968 5 968 0 l 968 8 q 974 14 969 14 m 987 -76 l 990 -81 l 990 -87 q 985 -92 990 -92 l 977 -92 l 977 -87 l 971 -90 l 968 -90 q 963 -81 963 -90 l 958 -81 l 960 -87 l 960 -90 q 952 -114 960 -104 q 958 -119 958 -115 l 958 -125 q 936 -171 943 -134 l 944 -176 l 958 -176 q 966 -163 958 -163 l 968 -163 q 974 -168 974 -163 l 974 -174 q 966 -195 966 -186 q 985 -184 985 -188 q 977 -179 977 -184 l 977 -176 q 993 -163 985 -163 q 990 -160 993 -160 q 1001 -130 996 -130 q 996 -114 996 -121 l 996 -109 q 998 -106 996 -106 l 996 -100 l 996 -95 q 1004 -76 996 -86 l 1004 -54 q 993 -76 997 -54 l 987 -76 m 968 -92 l 977 -92 l 977 -103 q 971 -109 977 -109 l 968 -109 q 963 -103 963 -109 l 963 -98 q 968 -92 964 -92 m 806 -109 l 806 -114 l 811 -114 l 811 -109 l 806 -109 m 990 -122 l 993 -127 q 987 -133 993 -133 l 985 -127 q 990 -122 985 -122 m 974 -130 l 977 -130 q 982 -136 982 -131 l 982 -138 q 968 -160 972 -160 l 960 -160 q 955 -155 955 -160 q 974 -130 961 -139 m 860 -165 l 860 -171 q 865 -176 861 -176 l 865 -165 l 860 -165 m 996 -182 q 998 -195 998 -186 l 1004 -195 l 1004 -179 l 1001 -179 l 996 -182 m 901 -209 l 901 -212 l 903 -225 l 909 -225 l 906 -209 l 901 -209 m 987 -220 l 990 -225 l 990 -231 q 985 -236 990 -236 l 982 -236 q 977 -228 977 -236 l 974 -228 q 971 -241 974 -237 q 977 -258 977 -241 l 990 -258 q 1004 -250 999 -250 l 1004 -214 l 996 -214 l 987 -220 m 955 -217 l 955 -222 l 958 -222 l 958 -217 l 955 -217 m 901 -244 q 898 -258 901 -253 l 906 -258 l 903 -244 l 901 -244 m 985 -244 l 987 -244 q 993 -250 993 -245 l 987 -252 l 985 -252 q 979 -247 979 -252 l 985 -244 z "},"F":{"ha":1085,"x_min":0,"x_max":1017,"o":"m 5 1356 l 1017 1356 l 1017 1050 l 307 1050 l 307 646 l 814 646 l 814 339 l 307 339 l 307 -271 l 0 -271 l 0 1351 q 5 1356 1 1356 m 114 1343 q 92 1302 104 1309 q 84 1324 86 1302 l 81 1324 q 73 1310 75 1324 q 81 1294 77 1310 q 127 1275 127 1280 l 127 1272 q 111 1264 127 1264 l 114 1259 l 114 1251 q 109 1245 114 1245 l 103 1245 q 81 1259 92 1257 l 79 1242 q 90 1237 90 1242 l 90 1234 l 87 1229 q 95 1223 95 1229 l 95 1221 l 92 1215 l 106 1215 q 109 1229 106 1229 l 106 1234 l 106 1237 q 122 1245 106 1245 l 119 1259 q 136 1272 136 1270 q 141 1283 136 1283 l 149 1283 q 155 1270 155 1283 q 163 1278 159 1270 l 163 1289 l 155 1299 l 155 1302 l 168 1326 l 165 1343 l 155 1335 q 127 1343 135 1337 l 114 1343 m 179 1343 l 179 1340 q 195 1335 189 1340 q 198 1343 195 1337 l 179 1343 m 255 1343 q 247 1324 255 1324 q 236 1326 241 1324 l 233 1326 l 233 1324 q 244 1308 241 1324 q 266 1302 254 1302 l 269 1302 l 277 1308 l 274 1313 l 274 1321 q 277 1324 274 1324 l 274 1329 l 274 1343 l 255 1343 m 632 1343 l 635 1337 l 635 1329 q 632 1326 635 1326 l 635 1321 l 635 1313 l 632 1308 l 640 1302 l 640 1305 l 637 1316 l 640 1321 l 637 1337 l 637 1343 l 632 1343 m 673 1340 l 675 1335 l 681 1337 l 694 1337 q 700 1332 700 1337 l 700 1329 q 686 1324 700 1324 l 686 1321 q 700 1316 700 1321 l 700 1313 q 689 1308 700 1308 l 689 1305 q 700 1299 700 1305 l 700 1297 q 692 1291 700 1291 l 692 1289 q 700 1280 700 1289 l 703 1280 q 708 1286 708 1280 q 705 1297 705 1295 q 708 1305 708 1302 q 705 1313 705 1310 q 708 1321 708 1318 q 705 1329 705 1326 q 708 1340 708 1334 l 703 1343 l 686 1340 l 681 1343 q 673 1340 675 1340 m 863 1343 q 857 1321 863 1321 l 860 1316 l 860 1308 q 857 1305 860 1305 q 860 1294 860 1300 l 865 1294 q 868 1308 865 1308 l 865 1313 l 865 1321 q 868 1324 865 1324 l 865 1329 l 865 1337 l 868 1343 l 863 1343 m 947 1343 l 947 1340 l 949 1329 q 947 1326 949 1326 l 949 1313 l 949 1283 l 977 1283 l 974 1289 q 977 1299 974 1295 q 974 1310 974 1304 q 977 1313 974 1313 l 974 1318 l 974 1321 q 977 1332 974 1327 q 974 1343 974 1337 l 947 1343 m 87 1335 l 87 1329 l 90 1329 l 90 1335 l 87 1335 m 171 1329 l 179 1318 l 179 1313 l 176 1308 q 184 1302 184 1308 l 184 1297 l 179 1289 q 190 1280 190 1284 l 195 1283 l 198 1283 l 209 1275 q 220 1286 209 1286 l 220 1291 q 190 1313 190 1291 q 179 1332 187 1324 q 171 1329 174 1329 m 781 1326 l 781 1324 q 789 1308 789 1315 l 800 1308 l 800 1324 l 787 1324 l 781 1326 m 125 1321 q 149 1313 149 1320 l 149 1310 q 138 1302 149 1302 q 117 1310 117 1304 l 117 1316 q 125 1321 117 1321 m 345 1316 l 345 1283 l 350 1283 q 353 1291 350 1286 q 347 1297 347 1291 l 347 1299 l 355 1310 q 350 1316 355 1316 l 345 1316 m 437 1291 q 431 1280 437 1287 q 437 1264 437 1274 l 439 1264 l 439 1291 l 437 1291 m 640 1289 l 640 1283 l 643 1283 l 643 1289 l 640 1289 m 41 1286 l 41 1283 l 46 1283 l 46 1286 l 41 1286 m 33 1283 q 30 1272 33 1277 l 35 1272 l 35 1283 l 33 1283 m 52 1280 q 46 1270 52 1276 l 54 1270 q 60 1275 60 1270 q 54 1280 60 1280 l 52 1280 m 838 1280 l 844 1272 l 838 1264 q 844 1259 839 1259 l 849 1267 l 849 1275 q 844 1280 849 1280 l 838 1280 m 692 1275 l 692 1272 l 697 1272 l 697 1275 l 692 1275 m 640 1272 l 640 1267 l 643 1267 l 643 1272 l 640 1272 m 269 1264 q 271 1251 271 1259 l 274 1251 q 277 1261 274 1257 l 271 1264 l 269 1264 m 203 1259 l 201 1245 q 209 1237 201 1241 q 214 1242 210 1242 l 212 1248 l 212 1253 l 214 1259 l 203 1259 m 692 1259 l 692 1256 l 700 1256 l 700 1259 l 692 1259 m 640 1256 l 640 1251 l 643 1251 l 643 1256 l 640 1256 m 168 1248 l 168 1245 q 174 1240 169 1240 l 174 1242 q 168 1248 174 1248 m 890 1242 q 895 1226 895 1232 l 898 1226 q 901 1240 898 1240 q 898 1248 898 1245 l 890 1242 m 16 1245 l 16 1240 q 22 1245 22 1240 l 16 1245 m 692 1242 l 692 1194 q 697 1188 692 1188 q 700 1191 697 1191 l 697 1204 l 700 1210 q 697 1221 697 1215 q 700 1223 697 1223 l 697 1229 l 697 1232 l 700 1245 q 692 1242 694 1242 m 640 1240 l 640 1234 l 643 1234 l 643 1240 l 640 1240 m 176 1237 l 176 1223 l 179 1223 l 179 1237 l 176 1237 m 184 1218 l 184 1207 l 190 1207 q 187 1218 187 1212 l 184 1218 m 347 1207 l 347 1204 q 353 1210 353 1204 l 353 1213 q 347 1207 347 1212 m 100 1202 q 106 1185 106 1202 l 111 1185 l 114 1199 q 109 1210 109 1206 q 100 1202 104 1210 m 71 1199 l 71 1191 q 76 1185 71 1185 l 84 1185 q 76 1204 76 1194 q 71 1199 71 1204 m 190 1204 l 190 1194 l 195 1194 l 195 1199 q 190 1204 195 1204 m 719 1191 q 716 1177 719 1177 q 719 1166 719 1173 l 727 1166 l 727 1188 q 719 1191 724 1188 m 532 1183 l 532 1180 q 534 1169 534 1175 l 532 1164 q 540 1153 540 1164 q 553 1164 552 1158 l 553 1166 q 534 1183 534 1166 l 532 1183 m 209 1156 l 209 1150 q 214 1145 210 1145 l 214 1156 l 209 1156 m 98 1145 l 98 1142 q 106 1131 102 1131 l 106 1134 q 103 1142 103 1139 q 106 1145 106 1142 l 98 1145 m 922 1145 l 920 1139 l 928 1139 q 922 1145 928 1145 m 654 1131 l 654 1123 l 656 1123 l 656 1131 l 654 1131 m 920 1123 l 930 1123 q 925 1128 930 1128 q 920 1123 920 1128 m 654 1112 l 654 1107 l 659 1107 l 659 1118 q 654 1112 654 1117 m 920 1107 l 930 1107 q 925 1112 930 1112 q 920 1107 920 1112 m 654 1096 l 654 1090 l 659 1090 l 659 1101 q 654 1096 654 1101 m 920 1090 l 930 1090 q 925 1096 930 1096 q 920 1090 920 1095 m 654 1080 l 654 1074 l 659 1074 l 659 1085 q 654 1080 654 1084 m 920 1074 l 930 1074 q 925 1080 930 1080 q 920 1074 920 1079 m 654 1063 l 659 1063 l 659 1069 q 654 1063 654 1068 m 16 800 l 16 795 q 19 787 19 789 l 24 787 l 24 792 q 16 800 24 796 m 16 203 l 16 168 l 27 168 q 19 203 27 178 l 16 203 m 19 144 l 16 138 l 16 98 l 33 114 l 35 114 q 41 106 41 114 l 43 106 l 43 109 q 19 144 43 139 m 35 92 l 35 90 l 41 90 l 41 92 l 35 92 m 16 81 l 16 65 l 24 54 l 24 52 l 16 41 l 16 38 l 19 38 l 43 41 q 49 35 44 35 l 49 41 q 27 60 34 41 q 22 65 22 60 l 22 71 q 33 76 22 76 q 30 87 30 81 q 16 81 23 81 m 43 79 q 38 60 43 71 q 52 52 43 60 l 52 54 l 49 79 l 43 79 m 30 27 l 27 22 q 52 14 52 19 l 52 -5 q 71 -11 64 -5 l 71 -8 l 68 -3 l 71 14 l 68 19 l 62 16 l 57 16 q 30 27 39 27 m 144 22 l 144 19 l 149 19 l 149 22 l 144 22 m 149 5 l 149 3 l 155 3 l 155 5 l 149 5 m 22 0 q 16 -11 22 -4 l 16 -16 q 24 -24 16 -20 l 27 -24 l 24 -19 l 27 -14 l 24 0 l 22 0 m 62 -27 l 62 -33 l 68 -33 l 68 -27 l 62 -27 m 38 -60 q 35 -65 38 -65 q 41 -84 37 -84 q 57 -65 48 -84 q 38 -60 44 -65 m 100 -81 l 100 -84 q 109 -103 109 -94 l 111 -103 q 114 -92 111 -92 q 100 -81 113 -85 m 16 -106 l 16 -133 q 24 -141 16 -137 q 30 -125 24 -131 q 19 -106 26 -125 l 16 -106 m 92 -106 q 76 -127 92 -115 l 73 -127 q 46 -109 46 -124 q 41 -114 41 -109 q 68 -138 68 -134 q 65 -146 68 -141 q 73 -174 68 -167 l 73 -176 q 65 -184 73 -180 l 60 -184 q 52 -176 56 -184 l 52 -163 l 46 -163 q 16 -176 35 -163 q 27 -184 16 -180 q 33 -174 27 -174 l 35 -174 q 52 -187 46 -187 q 68 -214 52 -199 l 68 -217 q 84 -201 72 -217 q 76 -168 76 -175 q 95 -144 90 -161 l 92 -138 l 92 -127 q 103 -122 92 -122 q 92 -106 100 -106 m 174 -109 l 174 -111 l 176 -127 l 176 -133 l 179 -133 q 187 -125 183 -133 l 187 -117 q 174 -109 187 -111 m 79 -130 q 84 -136 84 -131 l 79 -138 q 73 -133 73 -138 l 79 -130 m 144 -138 q 149 -149 149 -145 l 157 -149 l 155 -144 l 155 -138 l 157 -133 l 149 -133 q 144 -138 144 -134 m 179 -141 l 179 -144 l 182 -160 q 168 -176 182 -176 l 168 -179 q 182 -187 182 -179 l 201 -182 q 184 -157 196 -167 q 195 -149 184 -153 q 193 -141 193 -144 l 187 -144 q 179 -141 182 -141 m 119 -160 l 125 -163 l 127 -163 l 127 -155 l 125 -155 q 119 -160 119 -155 m 100 -163 q 98 -174 100 -169 q 106 -176 100 -174 l 106 -174 q 103 -163 103 -169 l 100 -163 m 114 -187 q 125 -195 125 -189 q 122 -206 125 -201 l 125 -212 l 122 -225 q 136 -206 136 -225 q 130 -201 130 -206 l 130 -198 q 136 -193 131 -193 l 141 -193 l 146 -195 l 146 -190 q 130 -179 130 -190 q 114 -187 114 -182 m 27 -187 q 16 -195 27 -195 l 16 -201 l 22 -198 q 27 -203 27 -199 q 24 -206 27 -206 l 27 -212 l 27 -214 q 22 -220 27 -220 q 27 -233 27 -229 q 16 -250 27 -236 l 27 -258 l 30 -258 q 33 -252 30 -252 q 27 -239 27 -243 q 41 -225 27 -231 l 38 -212 l 38 -209 l 41 -203 q 27 -187 31 -187 m 168 -193 l 168 -198 q 179 -195 173 -195 l 179 -193 l 168 -193 m 201 -195 q 198 -203 201 -198 q 212 -222 198 -213 l 212 -236 l 217 -236 q 201 -195 214 -195 m 174 -209 q 168 -225 168 -223 l 179 -225 l 179 -209 l 174 -209 m 225 -222 l 231 -222 l 231 -217 q 225 -222 225 -218 m 119 -233 q 109 -250 109 -247 q 138 -258 121 -250 l 146 -244 l 141 -241 q 136 -250 141 -250 l 133 -244 l 138 -236 q 119 -233 130 -236 m 220 -236 q 214 -255 220 -249 l 220 -258 l 241 -258 l 241 -255 q 225 -236 225 -240 l 220 -236 m 168 -241 l 168 -244 q 184 -258 184 -244 l 209 -258 l 209 -255 q 184 -239 209 -252 l 168 -241 m 266 -255 l 266 -258 l 271 -258 l 271 -255 l 266 -255 z "},"G":{"ha":1195,"x_min":0,"x_max":1120,"o":"m 825 1356 l 1120 1356 l 1120 1050 l 825 1050 q 439 903 614 1050 q 301 540 301 767 q 624 73 301 193 q 814 35 736 35 l 814 236 q 540 404 617 236 q 510 537 510 475 q 515 543 511 543 l 1120 543 l 1120 -271 l 825 -271 q 320 -119 575 -271 q 0 545 0 100 q 540 1308 0 1122 q 825 1356 701 1356 m 385 1226 l 385 1221 l 388 1221 l 410 1234 l 423 1234 l 445 1215 q 475 1267 458 1215 l 472 1267 q 385 1226 435 1251 m 494 1261 l 494 1256 q 499 1261 499 1256 l 499 1267 q 494 1261 494 1266 m 545 1261 l 545 1259 l 553 1259 l 553 1261 l 545 1261 m 532 1253 l 532 1248 l 534 1248 l 534 1253 l 532 1253 m 423 1175 l 423 1169 q 429 1175 429 1169 l 423 1175 m 407 1161 l 393 1161 q 336 1128 366 1149 l 336 1126 q 420 1166 398 1150 l 420 1169 l 412 1169 q 407 1161 407 1169 m 578 1161 l 578 1156 l 583 1156 l 583 1161 l 578 1161 m 475 1156 l 475 1150 l 477 1150 l 477 1156 l 475 1156 m 464 1134 l 464 1128 q 472 1131 469 1131 l 472 1134 l 464 1134 m 431 1112 q 437 1101 437 1105 l 439 1101 q 461 1120 456 1110 l 461 1128 l 453 1128 q 431 1112 439 1112 m 326 1126 l 323 1120 l 323 1118 q 334 1123 330 1123 l 334 1126 l 326 1126 m 312 1118 l 309 1112 l 309 1109 q 320 1115 316 1115 l 320 1118 l 312 1118 m 255 1085 l 255 1080 l 307 1107 l 307 1109 l 298 1109 q 255 1085 264 1085 m 307 1069 q 377 1109 347 1084 l 374 1109 q 307 1069 363 1106 m 244 1080 l 244 1077 l 252 1077 l 252 1080 l 244 1080 m 537 1080 q 488 1050 536 1075 l 480 1039 l 480 1036 q 543 1069 536 1069 l 543 1074 q 537 1080 543 1080 m 100 882 l 100 879 l 106 879 q 130 895 124 886 l 127 895 q 100 882 107 882 m 279 513 q 266 505 279 507 l 266 499 l 269 499 q 285 507 277 507 q 279 513 285 513 m 309 271 q 304 258 309 264 l 304 255 q 309 250 304 250 q 317 258 309 254 l 315 263 q 317 271 317 269 l 309 271 m 73 260 l 73 258 l 81 258 l 81 263 q 73 260 76 260 m 269 220 q 279 214 273 220 l 279 220 l 274 220 q 288 247 274 229 q 282 250 282 247 q 269 220 270 250 m 312 233 l 312 222 l 317 222 q 320 231 317 225 q 312 233 317 231 m 81 220 l 81 214 l 84 214 l 84 220 l 81 220 m 119 198 q 122 190 122 193 l 136 195 q 133 209 133 200 l 130 209 q 119 198 127 209 m 165 203 q 149 184 165 193 l 149 174 q 168 187 152 174 l 171 187 q 176 179 176 187 l 182 179 l 182 190 l 176 187 l 174 187 l 174 193 l 179 193 l 179 198 q 165 203 172 198 m 119 184 l 119 179 l 122 179 l 122 184 l 119 184 m 212 163 l 214 149 l 212 144 l 217 144 q 241 168 217 164 l 241 171 q 231 179 231 171 q 212 163 222 178 m 168 171 l 174 168 l 174 176 q 168 171 168 176 m 111 165 l 111 163 q 119 165 117 165 l 119 171 l 117 171 q 111 165 111 170 m 187 165 l 187 152 l 190 152 l 193 165 l 187 165 m 266 160 l 266 157 l 274 157 l 274 160 l 266 160 m 160 146 l 155 127 q 160 122 155 122 q 163 144 160 141 l 163 146 l 160 146 m 258 144 q 228 111 258 129 q 252 103 243 111 q 266 111 252 111 l 266 127 q 258 144 266 142 m 345 138 l 350 138 l 350 144 q 345 138 345 143 m 339 117 l 339 111 l 342 111 l 342 117 l 339 117 m 157 103 l 157 90 q 165 98 161 90 l 157 103 m 201 95 l 201 92 q 214 90 210 92 l 214 95 l 201 95 m 849 79 l 849 76 l 857 76 l 857 81 q 849 79 852 79 m 836 71 l 836 65 l 844 65 l 844 73 q 836 71 838 71 m 827 62 l 827 60 l 833 60 l 833 62 l 827 62 m 285 41 q 277 35 285 35 l 277 33 q 288 27 281 33 l 293 27 q 296 35 293 30 l 285 41 m 203 27 l 203 24 l 209 24 l 209 27 l 203 27 m 193 19 l 193 16 q 198 11 193 11 q 201 24 198 20 l 198 24 q 193 19 193 24 m 401 24 l 401 19 q 415 22 406 22 l 415 24 l 401 24 m 779 24 l 779 19 l 781 19 l 781 24 l 779 24 m 1099 24 q 1085 8 1099 8 q 1090 3 1086 3 q 1107 24 1107 15 l 1099 24 m 212 16 q 201 11 212 11 l 201 8 l 209 8 q 217 11 214 11 q 212 16 217 16 m 1055 0 l 1042 -16 q 1055 -35 1043 -24 l 1063 -60 l 1063 -62 q 1055 -68 1063 -68 q 1063 -87 1055 -77 l 1063 -95 l 1058 -103 q 1066 -109 1066 -103 l 1069 -109 l 1066 -95 l 1066 -92 q 1069 -90 1066 -90 l 1066 -84 l 1066 -76 q 1072 -71 1067 -71 q 1063 -49 1068 -55 l 1063 -38 q 1077 -8 1074 -28 q 1069 0 1073 -8 l 1063 -3 l 1061 -3 l 1055 0 m 225 -19 l 225 -22 l 236 -30 l 236 -24 q 225 -19 232 -24 m 448 -24 l 442 -33 l 453 -33 l 453 -30 q 448 -24 453 -24 m 274 -30 l 274 -38 l 277 -52 l 279 -52 q 282 -33 279 -43 l 277 -30 l 274 -30 m 423 -41 l 423 -46 q 439 -43 427 -43 l 439 -38 l 423 -41 m 1006 -38 l 1006 -43 q 1012 -38 1012 -43 l 1006 -38 m 703 -49 l 713 -49 q 711 -41 711 -43 q 703 -49 707 -41 m 326 -54 q 339 -60 326 -60 l 345 -49 l 342 -49 q 326 -54 336 -54 m 700 -52 q 697 -60 700 -54 l 703 -60 l 703 -52 l 700 -52 m 290 -57 l 290 -65 l 293 -65 l 293 -57 l 290 -57 m 982 -60 l 985 -65 q 974 -76 985 -69 q 966 -73 968 -73 q 952 -81 966 -81 l 952 -87 l 960 -87 l 960 -81 l 963 -81 q 968 -87 968 -82 q 958 -109 960 -94 l 955 -109 q 933 -103 947 -109 q 922 -117 933 -117 l 922 -133 l 925 -133 q 939 -111 925 -118 l 949 -111 q 966 -119 960 -119 l 963 -114 l 963 -103 q 968 -98 964 -98 l 977 -98 q 985 -106 981 -98 l 985 -109 q 968 -119 981 -119 q 974 -136 974 -128 l 974 -146 q 947 -165 949 -160 q 936 -184 947 -184 q 939 -193 939 -190 q 963 -160 949 -186 q 977 -149 973 -160 q 1017 -127 1002 -149 l 1020 -127 l 1020 -122 q 1006 -114 1006 -120 l 1006 -111 q 1015 -103 1006 -107 l 1028 -103 l 1028 -100 q 1017 -79 1017 -90 q 1009 -100 1012 -79 l 998 -109 l 979 -95 q 971 -90 971 -95 q 993 -57 993 -75 l 990 -57 q 982 -60 985 -60 m 1031 -57 l 1031 -65 l 1044 -65 q 1031 -57 1044 -60 m 529 -60 l 529 -65 q 534 -60 534 -65 l 529 -60 m 681 -62 l 681 -71 l 689 -71 l 689 -62 l 681 -62 m 1082 -62 l 1080 -68 l 1080 -71 l 1088 -71 l 1088 -68 q 1082 -62 1088 -62 m 521 -65 l 518 -71 q 526 -68 524 -68 l 526 -65 l 521 -65 m 279 -68 q 285 -73 280 -73 l 288 -68 l 279 -68 m 328 -76 l 326 -87 q 331 -79 331 -87 l 331 -76 l 328 -76 m 510 -76 l 510 -79 l 515 -79 l 515 -76 l 510 -76 m 361 -81 l 353 -92 l 353 -95 q 366 -84 366 -87 l 361 -81 m 350 -98 q 345 -117 350 -111 l 363 -127 q 385 -117 385 -120 l 385 -114 q 380 -109 385 -109 l 363 -122 l 361 -122 q 353 -114 357 -122 l 353 -111 q 355 -109 353 -109 q 353 -98 353 -104 l 350 -98 m 464 -109 l 461 -114 l 461 -119 q 472 -111 472 -115 q 464 -109 469 -111 m 1074 -114 l 1074 -117 q 1093 -127 1086 -117 q 1090 -130 1093 -130 l 1093 -136 l 1088 -144 l 1088 -146 q 1104 -163 1104 -146 l 1107 -163 l 1107 -144 l 1101 -136 q 1107 -125 1107 -129 q 1093 -109 1103 -113 l 1090 -109 q 1074 -114 1084 -114 m 393 -119 q 396 -127 396 -125 l 401 -127 l 401 -114 l 393 -119 m 1039 -117 q 1042 -130 1042 -121 l 1047 -130 l 1047 -114 q 1039 -117 1042 -117 m 646 -119 q 608 -149 619 -149 l 608 -155 q 616 -157 610 -155 q 656 -127 616 -149 l 656 -122 l 646 -119 m 507 -179 q 515 -182 510 -179 q 526 -168 515 -172 q 545 -146 526 -157 l 545 -144 q 537 -127 537 -135 q 518 -168 528 -127 q 507 -179 509 -171 m 1069 -130 l 1069 -138 l 1074 -138 l 1074 -130 l 1069 -130 m 586 -136 l 586 -141 l 589 -141 l 589 -136 l 586 -136 m 760 -141 l 760 -149 l 762 -149 q 765 -141 762 -146 l 760 -141 m 1015 -146 l 1015 -149 l 1047 -168 l 1050 -168 l 1050 -165 q 1031 -144 1031 -151 q 1015 -146 1027 -146 m 399 -146 l 399 -149 l 404 -149 l 404 -146 l 399 -146 m 572 -146 l 572 -155 l 581 -155 l 581 -146 l 572 -146 m 1080 -146 q 1069 -163 1080 -152 l 1069 -165 q 1077 -171 1077 -165 l 1077 -184 l 1074 -190 q 1082 -201 1082 -190 q 1088 -195 1088 -201 q 1082 -163 1082 -176 l 1082 -152 l 1085 -146 l 1080 -146 m 415 -149 l 412 -155 l 420 -155 q 415 -149 420 -149 m 439 -152 l 439 -155 q 467 -176 439 -176 q 483 -165 471 -165 l 483 -163 l 467 -163 q 461 -171 467 -171 l 456 -171 q 450 -165 450 -171 l 453 -160 q 448 -149 451 -149 q 439 -152 442 -152 m 873 -157 q 892 -176 873 -176 q 895 -184 895 -182 l 901 -184 l 903 -171 q 879 -155 879 -164 l 873 -157 m 564 -157 l 564 -165 l 567 -165 l 567 -157 l 564 -157 m 581 -157 l 589 -168 l 583 -176 l 583 -179 l 591 -179 q 600 -165 591 -174 l 600 -160 l 581 -157 m 795 -163 q 781 -174 795 -171 q 779 -182 781 -176 q 795 -209 795 -191 l 800 -209 l 800 -206 q 792 -187 800 -199 l 792 -179 q 803 -171 792 -172 l 803 -163 l 795 -163 m 827 -163 l 827 -165 l 833 -165 l 833 -163 l 827 -163 m 998 -163 q 993 -176 998 -170 q 1001 -179 996 -176 l 1001 -163 l 998 -163 m 570 -168 l 570 -174 l 572 -174 l 572 -168 l 570 -168 m 1090 -193 l 1090 -195 l 1099 -195 q 1107 -179 1099 -189 l 1107 -171 q 1090 -193 1095 -193 m 551 -179 l 556 -179 l 556 -174 q 551 -179 551 -174 m 814 -179 l 819 -179 l 819 -174 q 814 -179 814 -174 m 1028 -184 q 1039 -201 1039 -184 l 1042 -201 q 1066 -195 1048 -201 l 1066 -193 q 1044 -174 1044 -184 q 1028 -184 1028 -181 m 559 -179 l 559 -184 l 570 -184 l 570 -176 q 559 -179 565 -179 m 754 -176 q 746 -187 754 -180 l 754 -187 q 757 -179 754 -184 l 757 -176 l 754 -176 m 841 -176 q 822 -206 841 -206 q 803 -222 821 -208 l 798 -222 q 773 -209 789 -215 q 768 -220 773 -220 l 762 -220 q 757 -214 757 -220 l 757 -212 q 765 -206 757 -206 l 765 -193 l 760 -193 q 754 -206 760 -206 l 749 -206 l 741 -201 l 741 -212 l 749 -222 l 749 -225 l 746 -231 l 751 -233 q 757 -225 751 -225 l 760 -225 q 765 -231 765 -226 l 765 -244 l 760 -252 l 760 -255 l 781 -255 q 803 -236 792 -255 l 811 -236 q 819 -255 819 -236 l 822 -255 l 833 -247 l 844 -247 q 852 -258 852 -247 l 871 -258 q 865 -241 865 -247 l 857 -247 l 841 -228 q 830 -231 836 -231 l 827 -225 l 827 -222 q 860 -209 827 -218 q 863 -201 860 -201 q 844 -179 863 -184 q 841 -176 844 -176 m 534 -182 q 524 -187 534 -187 l 524 -198 q 540 -206 524 -203 q 548 -201 540 -201 q 534 -179 548 -179 l 534 -182 m 494 -182 l 494 -187 q 499 -193 494 -193 l 499 -182 l 494 -182 m 610 -201 q 618 -212 614 -212 l 627 -206 l 624 -193 l 629 -184 l 629 -182 q 610 -201 625 -182 m 575 -190 l 575 -193 l 581 -193 l 581 -190 l 575 -190 m 651 -212 l 656 -220 l 656 -222 l 648 -236 q 656 -239 651 -236 q 678 -209 659 -209 q 692 -220 690 -220 q 700 -206 692 -215 l 700 -201 q 692 -193 700 -197 q 656 -212 669 -193 l 651 -212 m 570 -203 l 556 -203 l 556 -206 q 575 -217 556 -214 q 581 -206 575 -213 l 581 -203 q 575 -201 575 -203 l 570 -203 m 987 -201 q 977 -222 987 -222 q 963 -233 977 -231 q 958 -241 963 -241 q 952 -236 952 -241 l 958 -228 q 949 -225 955 -228 q 933 -239 949 -239 l 936 -244 l 933 -258 l 955 -258 q 982 -252 960 -252 q 977 -236 977 -243 l 977 -231 q 982 -225 977 -225 l 993 -225 l 1001 -231 l 1004 -231 l 987 -201 m 1104 -203 q 1090 -214 1104 -214 l 1090 -220 l 1099 -231 l 1090 -241 l 1093 -241 q 1107 -236 1100 -236 l 1107 -203 l 1104 -203 m 868 -206 l 868 -212 l 871 -212 l 871 -206 l 868 -206 m 909 -212 l 892 -209 l 895 -214 l 892 -220 q 920 -228 913 -223 l 928 -217 q 920 -206 921 -217 l 909 -212 m 1025 -209 q 1034 -222 1029 -222 l 1036 -217 l 1036 -209 l 1025 -209 m 684 -241 l 684 -244 l 692 -244 q 694 -233 692 -238 l 692 -233 q 684 -241 688 -233 m 746 -239 q 741 -250 746 -243 l 749 -250 l 749 -239 l 746 -239 m 1047 -239 q 1042 -252 1047 -245 l 1042 -258 l 1047 -255 q 1069 -258 1062 -258 l 1069 -247 l 1066 -247 l 1058 -252 q 1050 -239 1050 -252 l 1047 -239 m 708 -244 l 708 -247 l 722 -250 l 722 -244 l 708 -244 m 903 -250 q 906 -258 906 -255 l 911 -258 l 911 -247 q 903 -250 906 -250 z "},"H":{"ha":1194,"x_min":0,"x_max":1120,"o":"m 307 1356 l 307 646 l 814 646 l 814 1351 q 819 1356 814 1356 l 1115 1356 q 1120 1351 1120 1356 l 1120 33 l 814 -67 l 814 339 l 312 339 q 307 334 307 338 l 307 -271 l 0 -271 l 0 1356 l 307 1356 m 868 1337 l 865 1337 q 854 1340 859 1337 q 830 1329 830 1333 l 830 1316 l 838 1316 q 890 1326 844 1321 q 892 1324 890 1324 q 898 1332 892 1332 l 917 1329 q 947 1337 917 1337 l 947 1343 l 890 1343 q 868 1337 887 1343 m 966 1343 l 966 1340 q 979 1335 979 1340 l 979 1329 q 974 1324 979 1324 l 949 1326 q 936 1321 949 1321 l 952 1310 l 977 1318 q 1009 1310 998 1318 q 1039 1343 1020 1310 l 966 1343 m 1104 1340 l 1104 1332 l 1107 1332 l 1107 1340 l 1104 1340 m 1093 1329 l 1093 1321 l 1101 1321 l 1101 1329 l 1093 1329 m 1082 1318 l 1082 1310 l 1090 1310 l 1090 1318 l 1082 1318 m 1072 1308 l 1072 1299 l 1080 1299 l 1080 1308 l 1072 1308 m 1061 1291 l 1061 1289 l 1072 1289 l 1072 1297 q 1061 1291 1065 1291 m 1050 1286 q 1042 1275 1050 1275 l 1042 1272 q 1061 1267 1055 1272 q 1058 1286 1058 1278 l 1050 1286 m 979 1270 q 987 1261 979 1265 q 1001 1267 987 1267 l 1001 1278 q 979 1270 979 1275 m 963 1256 l 974 1256 q 968 1261 974 1261 q 963 1256 963 1261 m 288 1256 q 285 1245 288 1250 l 290 1242 l 293 1242 l 293 1256 l 288 1256 m 68 1248 l 68 1240 q 73 1245 73 1240 l 68 1248 m 1004 1237 q 998 1221 1004 1221 l 996 1221 q 990 1232 990 1221 l 987 1232 q 982 1215 987 1215 l 979 1215 q 974 1223 974 1215 l 971 1223 q 966 1210 971 1210 l 963 1210 q 958 1218 958 1210 l 955 1218 q 949 1204 955 1204 l 947 1204 q 941 1213 941 1204 l 939 1213 q 933 1199 939 1199 l 930 1199 q 925 1207 925 1199 l 922 1207 q 917 1194 922 1194 l 914 1194 q 909 1202 909 1194 l 906 1202 q 901 1185 906 1192 l 903 1185 q 960 1204 909 1185 q 998 1199 986 1199 q 1017 1221 1009 1206 q 1031 1232 1024 1221 l 1034 1232 l 1034 1234 q 1020 1237 1025 1234 q 1015 1226 1020 1226 l 1012 1226 q 1006 1237 1006 1226 l 1004 1237 m 901 1234 l 901 1232 l 909 1232 l 909 1234 l 901 1234 m 225 1223 l 225 1221 q 244 1210 244 1221 q 255 1215 251 1215 l 263 1215 q 271 1223 263 1219 l 274 1223 q 279 1213 279 1223 l 282 1213 q 285 1229 282 1225 l 271 1226 l 269 1226 q 266 1229 266 1226 q 225 1223 252 1223 m 871 1223 l 871 1221 l 876 1221 l 876 1223 l 871 1223 m 201 1210 l 201 1207 l 209 1207 q 206 1215 206 1213 q 201 1210 201 1215 m 171 1207 q 165 1194 171 1200 l 165 1191 l 179 1194 l 179 1202 q 174 1207 179 1207 l 171 1207 m 1093 1207 q 1063 1183 1065 1190 q 1107 1199 1093 1186 l 1107 1207 l 1101 1204 l 1099 1204 l 1093 1207 m 890 1196 l 890 1188 l 892 1188 l 892 1196 l 890 1196 m 873 1185 l 873 1180 l 876 1175 l 892 1177 q 873 1185 892 1182 m 830 1177 l 830 1175 l 833 1175 q 844 1177 838 1177 l 844 1180 l 838 1180 q 830 1177 833 1177 m 209 1169 l 209 1164 q 217 1158 217 1164 l 231 1161 q 236 1153 236 1161 l 233 1139 l 236 1139 l 247 1147 l 244 1153 q 255 1161 244 1160 l 252 1166 q 269 1175 255 1175 q 274 1164 274 1168 q 285 1169 281 1169 q 282 1177 282 1175 l 277 1177 q 209 1169 256 1177 m 1099 1175 q 1101 1164 1101 1170 q 1107 1169 1107 1164 q 1101 1175 1107 1175 l 1099 1175 m 288 1169 l 288 1166 l 293 1166 l 293 1169 l 288 1169 m 1069 1158 l 1069 1153 q 1074 1158 1074 1153 l 1069 1158 m 163 1153 q 144 1134 163 1145 q 141 1142 141 1139 q 119 1139 138 1139 l 119 1137 q 136 1128 136 1137 l 133 1123 l 141 1123 q 171 1139 159 1139 q 163 1153 168 1153 m 1053 1153 l 1053 1147 q 1058 1153 1058 1147 l 1053 1153 m 269 1150 l 269 1147 l 282 1145 q 274 1150 282 1150 l 269 1150 m 203 1145 q 209 1128 209 1136 l 209 1126 l 206 1120 l 212 1120 q 220 1137 212 1137 q 217 1145 217 1142 l 203 1145 m 174 1123 l 174 1120 q 187 1115 178 1120 q 195 1120 187 1120 l 195 1123 q 190 1126 190 1123 q 174 1123 186 1123 m 193 1107 q 198 1088 198 1096 l 193 1085 q 203 1069 198 1069 q 214 1099 211 1069 q 206 1109 206 1099 q 193 1107 201 1107 m 228 1101 l 228 1099 q 233 1104 233 1099 l 233 1107 q 228 1101 228 1106 m 187 1090 l 187 1085 l 190 1085 l 190 1090 l 187 1090 m 146 1061 q 144 1055 146 1055 q 146 1044 146 1050 l 155 1044 q 160 1061 155 1052 l 146 1061 m 98 1050 q 100 1042 100 1044 l 103 1042 q 106 1055 103 1050 q 98 1050 98 1053 m 71 1053 l 71 1050 l 73 1036 l 76 1036 q 81 1047 76 1040 l 81 1053 l 71 1053 m 57 1039 l 57 1034 l 60 1034 l 60 1039 l 57 1039 m 138 1012 l 138 1001 q 174 1023 155 1001 l 168 1025 q 138 1012 156 1013 m 152 968 l 157 968 l 157 974 q 152 968 152 973 m 16 960 l 16 958 q 24 939 24 947 q 19 933 19 938 l 19 928 l 24 928 q 54 968 24 935 l 49 968 q 16 960 41 962 m 122 968 l 122 963 l 125 963 l 125 968 l 122 968 m 27 903 q 52 914 41 911 q 46 920 52 920 l 35 920 q 27 903 30 920 m 65 911 l 65 895 l 73 895 l 73 906 q 68 911 73 911 l 65 911 m 22 898 l 22 892 l 24 892 l 24 898 l 22 898 m 38 890 q 16 871 30 871 l 16 860 q 43 882 35 869 l 43 884 q 38 890 43 890 m 19 841 l 16 836 l 16 822 l 30 822 l 30 830 q 19 841 30 834 m 100 814 l 98 803 l 98 798 l 100 798 q 103 811 100 806 l 103 814 l 100 814 m 171 773 l 171 770 l 176 770 l 176 773 l 171 773 m 38 751 q 30 746 38 746 l 30 743 l 35 743 q 43 746 41 746 q 38 751 43 751 m 174 735 l 179 735 l 179 741 q 174 735 174 740 m 16 730 l 16 727 q 27 705 16 705 q 38 700 31 705 l 41 719 l 41 722 q 22 730 32 722 l 16 730 m 119 692 l 119 686 l 122 686 l 122 692 l 119 692 m 16 686 l 19 670 l 27 670 l 27 684 q 16 686 21 684 m 1093 665 l 1099 665 l 1099 670 q 1093 665 1093 669 m 1006 643 l 1006 637 l 1009 637 l 1009 643 l 1006 643 m 24 613 l 24 610 q 33 602 24 606 l 33 613 l 24 613 m 109 586 l 109 583 l 111 583 l 114 594 q 109 586 109 594 m 73 583 q 65 559 65 564 l 65 556 q 87 581 80 581 l 87 583 l 73 583 m 95 564 l 109 562 l 111 581 l 109 581 q 95 564 104 581 m 16 567 l 16 562 q 30 559 25 562 l 30 562 q 24 567 30 567 l 16 567 m 41 551 q 46 529 41 546 q 60 543 60 532 l 41 551 m 73 526 q 68 515 73 522 l 68 513 l 84 515 l 84 518 q 73 526 84 522 m 35 515 q 52 491 52 497 l 54 491 l 54 507 q 46 518 46 507 q 35 515 41 515 m 209 507 l 212 494 l 214 494 l 214 507 l 209 507 m 103 499 l 103 496 l 106 496 q 111 502 111 496 l 111 505 l 109 505 q 103 499 103 504 m 79 496 l 81 483 l 81 475 q 87 472 87 475 q 95 475 92 475 l 95 480 q 84 496 84 480 l 79 496 m 16 491 l 16 477 q 30 480 21 480 l 30 483 q 16 491 25 483 m 198 480 l 212 480 l 212 491 l 209 491 q 198 480 205 491 m 152 458 q 144 434 149 440 l 149 431 q 155 439 149 439 l 152 453 l 152 456 l 157 456 l 157 458 l 152 458 m 27 456 l 24 450 q 30 439 30 450 l 38 439 l 38 445 q 27 456 38 449 m 244 439 l 228 415 l 247 410 l 247 415 l 244 431 l 247 437 l 247 439 l 244 439 m 68 426 q 79 418 79 425 q 73 412 79 412 l 65 412 q 60 420 60 412 l 54 418 l 41 418 q 35 429 35 418 q 30 423 30 428 q 46 410 40 410 q 90 391 73 391 q 103 399 90 395 q 111 396 109 396 l 100 407 l 103 426 q 81 434 92 426 l 76 434 q 68 426 72 434 m 1031 410 l 1031 407 l 1036 407 l 1036 410 l 1031 410 m 19 399 q 27 382 27 387 l 33 382 l 35 396 l 35 407 l 19 399 m 187 407 l 187 401 l 190 401 l 190 407 l 187 407 m 141 396 l 141 391 l 144 391 l 144 396 l 141 396 m 231 396 q 222 380 231 389 l 222 377 l 225 377 q 233 380 231 380 l 233 396 l 231 396 m 163 382 l 163 380 q 171 374 171 380 l 171 372 q 163 366 171 366 q 168 355 168 359 l 179 355 l 182 369 l 179 382 l 163 382 m 133 380 q 127 369 133 376 l 130 369 q 138 372 136 372 q 136 380 136 377 l 133 380 m 27 366 l 16 350 q 24 339 24 350 l 38 342 l 41 342 q 49 320 47 342 q 41 317 43 317 l 41 315 q 46 309 41 309 q 52 320 46 320 l 57 320 l 65 315 l 65 323 q 27 366 47 361 m 212 350 q 214 347 214 350 q 225 350 219 350 l 225 363 l 222 363 q 212 350 217 362 m 160 350 q 165 345 161 345 l 165 350 l 160 350 m 157 334 l 157 331 q 174 320 161 331 q 182 336 174 328 l 176 339 l 168 339 q 157 334 161 334 m 127 331 l 127 326 l 141 323 l 144 323 l 144 326 q 133 331 140 326 l 127 331 m 81 328 q 76 312 81 318 q 79 304 79 307 q 73 298 73 303 l 79 298 q 90 326 85 298 l 84 328 l 81 328 m 16 320 l 16 301 l 19 301 q 27 323 27 319 q 16 320 22 320 m 182 304 q 187 298 182 298 l 187 304 l 182 304 m 111 301 q 95 274 111 283 l 98 269 l 98 263 l 92 255 q 103 250 96 255 q 111 263 105 263 l 119 263 l 127 258 q 133 266 127 266 l 138 263 q 146 266 144 266 l 146 269 q 136 277 136 269 l 138 290 q 111 301 135 290 m 146 301 q 144 290 146 295 q 157 285 157 290 l 157 277 l 152 269 l 160 269 q 165 288 160 281 q 160 301 160 288 l 146 301 m 16 296 l 16 290 q 24 285 24 290 l 24 279 q 19 274 24 274 l 22 269 l 16 260 l 16 250 q 24 252 22 252 l 24 274 q 38 288 24 277 l 57 288 q 68 293 57 293 l 68 296 l 60 296 q 52 290 60 290 q 38 293 48 293 q 30 285 38 289 l 16 296 m 206 274 l 206 263 l 209 263 l 209 274 l 206 274 m 125 250 q 119 244 125 244 l 109 244 l 103 247 l 100 241 q 109 236 109 241 q 100 217 100 228 l 98 217 l 92 220 l 92 212 l 95 212 q 117 231 106 224 q 125 241 118 241 l 136 241 q 146 228 146 236 q 165 236 157 236 q 157 244 165 240 l 149 239 l 146 239 q 125 250 139 247 m 187 244 l 187 241 q 198 236 191 241 l 201 236 l 198 250 q 187 244 191 244 m 76 244 q 71 233 76 240 q 81 222 71 229 l 90 222 q 95 228 95 222 l 95 236 q 76 244 95 241 m 141 222 q 136 209 141 216 l 136 206 l 146 206 q 144 222 144 210 l 141 222 m 157 209 l 157 206 l 163 206 l 163 209 l 157 209 m 76 193 l 79 187 l 79 184 q 73 174 73 178 q 79 165 76 165 l 92 168 q 79 193 83 193 l 76 193 m 136 193 l 136 190 l 141 190 l 141 193 l 136 193 m 95 168 q 103 157 99 157 l 106 157 q 111 171 106 164 l 130 168 l 138 168 q 155 176 153 168 q 149 182 155 182 q 141 174 149 178 l 136 174 q 130 184 130 174 l 122 184 q 100 168 100 174 l 95 168 m 16 163 l 16 155 q 30 149 23 155 l 33 149 l 33 157 q 16 163 25 157 m 130 149 l 130 141 l 133 141 l 133 149 l 130 149 m 111 136 q 122 125 111 132 l 125 130 l 125 133 l 111 136 m 19 125 q 16 109 16 111 l 16 106 l 19 106 q 22 122 19 108 l 22 125 l 19 125 m 19 98 l 22 84 q 38 95 38 87 q 19 98 30 95 m 165 92 q 160 79 165 79 l 160 76 l 165 76 l 174 92 l 165 92 m 16 62 l 16 57 l 19 57 l 19 62 l 16 62 m 30 38 q 35 33 31 33 l 35 38 l 30 38 m 241 27 l 241 24 l 244 24 q 252 27 250 27 l 252 33 q 241 27 245 27 m 16 5 l 16 3 q 30 -8 30 3 l 27 -27 q 41 -38 39 -33 l 41 -41 l 35 -49 l 46 -57 q 62 -52 52 -52 q 43 -19 62 -41 l 43 -16 l 54 -3 q 43 5 43 -3 l 33 3 l 19 5 l 16 5 m 111 0 l 109 -5 l 109 -8 l 111 -8 q 114 0 111 -5 l 111 0 m 184 -11 q 160 -46 184 -26 q 127 -92 135 -85 q 125 -106 127 -101 q 136 -111 136 -106 q 127 -119 136 -115 q 109 -106 118 -107 l 103 -117 q 109 -127 109 -117 l 122 -125 l 125 -130 l 106 -155 q 114 -168 112 -155 l 117 -168 q 130 -152 117 -159 q 133 -160 133 -157 q 146 -141 137 -160 l 146 -138 q 133 -133 133 -138 l 133 -127 q 144 -122 133 -122 l 141 -117 l 141 -103 q 130 -95 130 -103 q 163 -81 130 -81 l 160 -62 q 174 -52 174 -55 q 165 -46 165 -52 l 165 -41 l 179 -38 q 193 -46 179 -43 q 201 -41 193 -41 q 184 -11 193 -16 m 71 -57 l 71 -68 q 81 -62 77 -62 l 81 -52 q 71 -57 75 -57 m 30 -71 q 16 -90 26 -90 l 16 -95 q 22 -100 17 -100 l 30 -100 l 38 -95 l 41 -95 q 49 -100 42 -95 l 52 -100 l 54 -87 q 43 -73 47 -73 l 30 -71 m 168 -92 q 163 -114 168 -101 l 163 -117 l 165 -117 q 179 -98 165 -112 l 179 -95 q 168 -92 173 -95 m 277 -100 l 277 -111 q 288 -95 288 -109 q 277 -100 281 -100 m 16 -133 l 16 -136 l 19 -146 l 19 -157 q 33 -165 33 -158 q 22 -179 22 -178 q 24 -182 24 -179 q 43 -171 43 -177 q 41 -160 41 -166 q 43 -157 43 -160 q 27 -138 31 -157 q 16 -133 23 -138 m 16 -217 l 16 -236 q 41 -214 41 -222 q 43 -212 43 -214 q 38 -206 38 -212 l 38 -198 q 54 -182 54 -185 l 49 -182 q 24 -209 46 -182 q 16 -217 20 -209 m 222 -182 l 222 -190 q 228 -184 228 -190 l 228 -182 l 222 -182 m 87 -201 l 73 -201 q 43 -236 60 -236 q 41 -247 41 -241 l 41 -258 l 46 -258 q 52 -247 46 -247 l 57 -247 q 62 -255 62 -247 l 65 -255 q 71 -247 65 -247 l 79 -247 q 84 -258 84 -247 l 111 -258 l 111 -250 l 117 -250 q 122 -258 122 -250 l 133 -258 l 133 -241 l 125 -247 q 119 -241 119 -247 l 119 -239 l 122 -220 l 111 -214 q 90 -233 111 -218 l 84 -233 q 79 -228 79 -233 l 79 -214 q 100 -203 79 -211 q 98 -193 98 -199 l 87 -201 m 138 -198 l 138 -209 l 141 -209 l 141 -198 l 138 -198 m 193 -222 q 190 -231 193 -225 l 193 -231 q 198 -225 198 -231 l 198 -222 l 193 -222 m 98 -236 l 100 -236 q 106 -241 106 -237 l 106 -244 q 100 -250 106 -250 l 98 -250 q 92 -244 92 -250 l 92 -241 q 98 -236 93 -236 m 260 -247 l 260 -258 l 274 -255 q 260 -247 274 -249 m 16 -250 l 16 -255 l 19 -255 l 19 -250 l 16 -250 z "},"I":{"ha":365,"x_min":0,"x_max":307,"o":"m 307 1357 l 307 -68 l 0 31 l 0 1357 l 307 1357 m 19 1331 l 19 1328 l 24 1328 l 24 1331 l 19 1331 m 260 902 l 260 899 q 269 907 264 899 l 266 907 q 260 902 260 907 m 282 907 l 282 905 l 293 905 l 293 907 l 282 907 m 187 810 l 190 804 q 174 793 190 793 l 176 788 q 165 777 176 784 q 160 785 160 777 l 157 785 q 155 777 157 777 q 157 766 157 772 l 160 766 q 209 807 168 766 l 212 807 l 206 815 q 228 831 206 831 q 247 850 235 831 q 271 875 251 850 q 282 883 277 883 l 282 888 q 250 875 256 888 q 220 842 250 857 q 201 826 220 839 l 190 812 q 187 810 190 810 m 92 886 q 84 878 92 882 q 87 869 87 872 q 98 883 91 869 l 92 886 m 146 788 l 155 788 l 155 793 l 152 793 q 146 788 146 793 m 22 772 l 16 764 l 16 761 l 24 750 q 41 764 36 754 l 35 772 l 30 769 l 27 769 l 22 772 m 76 766 q 81 761 77 761 l 81 766 l 76 766 m 285 766 l 274 755 l 274 747 q 279 736 279 741 q 269 726 277 726 l 269 720 q 277 704 277 710 l 293 704 l 293 723 l 288 731 q 290 764 290 742 l 285 766 m 117 761 q 106 750 117 750 l 106 742 q 119 726 119 742 l 122 726 q 138 742 122 742 l 141 747 q 122 761 122 753 l 117 761 m 255 755 l 255 753 q 260 747 256 747 l 263 747 q 260 755 260 753 l 255 755 m 146 745 l 152 745 l 152 750 q 146 745 146 749 m 182 734 l 182 726 q 195 699 195 711 l 198 699 q 203 707 198 707 l 212 707 l 222 699 l 225 699 q 255 723 225 721 q 247 731 255 727 q 239 728 241 728 q 233 734 239 734 q 228 728 233 728 l 222 731 q 212 712 222 719 l 203 712 q 198 718 198 712 l 198 739 l 195 739 q 182 734 189 734 m 87 720 l 100 699 l 114 699 q 119 690 119 699 l 122 690 q 127 701 122 694 q 122 707 122 701 l 127 709 q 138 699 130 701 l 141 699 l 141 701 l 136 701 l 136 704 q 141 709 136 709 q 144 701 144 704 q 152 709 148 701 l 152 715 q 141 726 152 719 l 138 726 q 130 712 138 712 l 127 712 q 119 723 121 712 l 114 720 l 109 720 l 100 726 q 87 720 94 720 m 24 699 l 27 685 q 38 688 28 685 l 43 685 q 60 688 47 688 q 49 709 56 709 q 24 699 39 699 m 176 704 q 182 699 177 699 l 184 704 l 176 704 m 198 690 l 198 685 l 225 655 l 233 655 l 231 674 l 217 674 l 198 690 m 125 688 l 125 685 l 130 685 l 130 688 l 125 688 m 22 677 l 16 669 l 16 658 l 30 661 q 49 644 30 657 l 49 642 l 30 590 q 22 587 24 587 l 22 585 l 30 585 q 35 593 30 593 l 46 593 l 52 590 l 52 593 q 43 625 43 618 l 46 625 q 68 623 66 623 q 79 636 75 636 q 81 625 81 631 q 103 636 94 636 l 103 644 q 95 650 103 650 q 87 647 90 647 l 81 655 l 81 658 q 92 674 92 671 l 87 677 l 60 655 q 43 674 43 660 l 41 674 l 27 671 q 22 677 27 677 m 100 677 l 98 671 q 111 658 111 669 l 119 658 l 119 674 q 100 677 111 674 m 160 666 q 163 658 163 661 l 174 658 q 171 666 171 663 l 160 666 m 263 650 q 258 644 263 644 l 252 644 l 247 647 q 239 642 247 642 q 244 623 244 628 l 247 623 q 274 642 247 638 l 274 647 q 263 650 268 647 m 157 642 q 152 631 157 637 q 163 612 156 612 l 165 612 q 171 628 165 622 q 163 642 165 628 l 157 642 m 195 625 l 195 614 l 203 620 l 209 620 l 214 617 l 214 623 l 201 623 l 195 625 m 182 585 q 179 571 182 576 l 184 568 q 187 571 184 571 q 184 585 184 576 l 182 585 m 103 566 l 103 563 l 109 563 l 109 566 l 103 566 m 160 547 l 160 544 l 168 544 l 168 547 l 160 547 m 279 514 q 288 506 279 510 l 290 519 q 279 514 283 514 z "},"J":{"ha":455,"x_min":-850,"x_max":374,"o":"m 374 1356 l 374 -242 q 178 -739 374 -542 q -220 -882 17 -882 l -256 -882 q -804 -505 -655 -882 q -850 -275 -850 -367 l -844 -272 l -549 -272 q -245 -576 -466 -576 l -231 -576 q 56 -345 -5 -576 q 67 -250 67 -301 l 67 1356 l 374 1356 m 81 1342 l 81 1323 l 83 1323 l 94 1326 q 113 1301 113 1318 q 105 1293 113 1297 l 100 1293 l 94 1296 l 92 1272 q 108 1277 102 1277 l 111 1272 q 92 1247 92 1251 q 100 1234 95 1234 l 102 1234 q 116 1250 102 1241 l 113 1255 q 121 1274 119 1274 l 119 1280 q 127 1299 127 1296 q 124 1307 124 1304 l 130 1310 l 135 1310 q 143 1301 139 1310 l 143 1291 q 138 1285 143 1285 q 140 1277 140 1280 q 154 1280 145 1280 l 151 1285 l 151 1288 q 157 1293 152 1293 q 146 1339 146 1327 q 149 1342 149 1339 l 81 1342 m 165 1329 l 165 1315 l 170 1307 l 165 1274 q 189 1307 178 1295 q 205 1334 189 1334 l 205 1342 l 203 1342 l 195 1337 l 189 1337 l 181 1342 l 176 1342 q 165 1329 172 1342 m 224 1342 l 224 1334 l 230 1337 l 235 1337 q 249 1310 242 1337 l 254 1310 l 252 1323 l 260 1329 q 254 1342 254 1337 l 224 1342 m 338 1342 l 341 1337 q 352 1339 346 1339 l 352 1342 l 338 1342 m 211 1326 q 208 1310 208 1312 q 211 1299 211 1305 l 216 1299 l 219 1326 l 211 1326 m 330 1312 l 333 1307 l 333 1301 q 328 1296 333 1296 l 330 1282 q 322 1255 322 1269 l 328 1253 q 341 1318 328 1261 l 338 1318 l 330 1312 m 292 1307 q 295 1288 295 1303 q 300 1304 300 1288 q 292 1307 295 1307 m 246 1299 l 246 1293 q 252 1299 252 1293 l 246 1299 m 151 1228 l 151 1223 l 157 1223 q 165 1266 165 1256 q 154 1231 159 1266 q 151 1228 151 1231 m 287 1261 l 290 1255 l 290 1250 l 284 1242 l 284 1228 l 279 1228 q 281 1220 281 1223 l 284 1220 q 300 1250 284 1225 l 300 1253 l 290 1261 l 287 1261 m 130 1234 l 130 1231 l 132 1225 q 140 1228 138 1228 l 140 1231 q 130 1234 134 1231 m 102 1228 q 86 1215 102 1219 q 83 1201 86 1206 l 86 1201 q 108 1217 101 1201 q 105 1228 105 1222 l 102 1228 m 227 1217 l 227 1212 l 230 1212 l 230 1217 l 227 1217 m 149 1215 l 149 1201 l 151 1201 l 154 1212 l 149 1215 m 276 1212 q 271 1193 276 1199 l 276 1190 l 290 1204 l 290 1206 q 279 1212 286 1206 l 276 1212 m 309 1209 l 309 1206 l 314 1206 l 314 1209 l 309 1209 m 303 1193 l 303 1190 l 311 1190 l 311 1193 l 303 1193 m 300 1177 l 300 1174 l 306 1174 l 306 1177 l 300 1177 m 295 1160 l 295 1158 l 303 1158 l 303 1160 l 295 1160 m 203 317 l 197 292 l 197 290 l 203 290 q 211 309 203 304 q 208 317 208 314 l 203 317 m 81 290 l 81 287 l 86 287 l 86 290 l 81 290 m 192 284 l 192 273 l 197 273 l 197 276 q 195 284 195 281 l 192 284 m 173 227 q 181 219 181 227 l 184 219 l 184 227 q 178 233 178 227 l 178 235 q 184 241 179 241 l 189 238 l 189 241 l 184 249 l 184 252 q 189 257 184 257 l 195 254 l 195 257 q 189 262 195 262 q 173 227 183 262 m 176 214 l 176 203 l 178 203 l 178 214 l 176 214 m 165 200 l 168 195 l 168 192 q 159 170 159 180 q 168 186 163 170 l 173 186 q 170 200 170 191 l 165 200 m 347 138 l 347 124 l 349 124 l 352 138 l 347 138 m 328 86 l 328 83 l 336 83 l 336 86 l 328 86 m 306 40 l 306 37 l 317 35 q 325 56 321 50 l 319 59 l 309 40 l 306 40 m 357 18 q 341 -3 357 4 l 344 -17 l 344 -41 l 352 -36 l 349 -31 q 360 -12 349 -12 l 357 -6 q 360 10 357 -4 l 360 18 l 357 18 m 344 -52 q 336 -96 344 -86 l 344 -96 q 360 -85 344 -85 l 357 -79 l 357 -58 q 344 -52 351 -58 m 352 -60 l 355 -66 l 349 -68 l 347 -63 l 352 -60 m 325 -125 l 325 -134 q 336 -128 332 -128 l 336 -125 l 325 -125 m -714 -313 q -720 -326 -720 -321 q -709 -321 -713 -321 l -709 -318 q -714 -313 -709 -313 m -739 -364 l -730 -364 l -730 -342 q -722 -337 -730 -337 l -722 -332 q -739 -364 -732 -332 m -787 -394 l -787 -397 q -774 -405 -774 -397 q -760 -391 -766 -403 l -760 -389 q -787 -394 -765 -394 m -592 -421 l -592 -427 l -589 -427 l -589 -421 l -592 -421 m -809 -435 l -809 -443 q -804 -448 -808 -448 q -801 -440 -804 -446 l -809 -435 m -603 -435 l -606 -446 l -600 -446 l -600 -435 l -603 -435 m -638 -470 q -646 -481 -638 -481 l -646 -484 q -638 -486 -644 -484 l -635 -481 l -635 -470 l -638 -470 m -717 -505 l -714 -505 q -709 -500 -709 -505 l -711 -500 q -717 -505 -717 -500 m -587 -500 l -592 -508 q -584 -524 -590 -524 l -578 -524 q -573 -505 -578 -516 q -587 -500 -580 -505 m -505 -500 q -511 -513 -505 -513 q -503 -532 -503 -525 l -494 -532 q -486 -516 -494 -525 q -497 -500 -497 -516 l -505 -500 m -752 -543 q -760 -541 -758 -541 l -768 -554 q -736 -600 -768 -561 q -728 -614 -736 -607 l -733 -622 q -709 -657 -709 -651 l -706 -657 q -692 -630 -692 -651 q -703 -625 -703 -630 l -703 -619 q -698 -614 -703 -614 l -690 -614 q -665 -635 -688 -614 q -657 -625 -664 -625 l -654 -625 l -649 -627 q -644 -619 -649 -619 l -641 -619 q -635 -625 -635 -620 q -641 -633 -638 -633 l -638 -638 l -638 -644 q -646 -652 -638 -648 l -657 -644 l -660 -644 q -657 -657 -657 -648 q -638 -649 -648 -657 l -635 -649 q -616 -665 -616 -662 l -616 -673 q -625 -690 -616 -688 l -622 -695 l -622 -701 q -627 -706 -622 -706 l -635 -706 q -660 -682 -635 -698 q -665 -668 -665 -675 l -668 -668 l -671 -682 l -671 -687 q -633 -720 -633 -705 q -630 -741 -630 -734 l -622 -736 q -611 -739 -617 -739 q -603 -725 -610 -725 l -597 -725 q -573 -749 -589 -739 l -573 -755 l -557 -752 l -557 -747 q -578 -730 -565 -747 l -578 -728 q -549 -706 -574 -718 l -546 -706 l -538 -711 l -532 -711 l -532 -709 l -538 -701 l -538 -682 q -513 -646 -538 -646 l -511 -646 q -522 -627 -522 -631 l -519 -614 l -522 -600 q -519 -597 -519 -600 l -522 -597 q -530 -600 -527 -600 l -532 -595 l -505 -584 l -508 -578 l -508 -576 l -503 -568 l -508 -570 q -524 -559 -522 -559 q -546 -587 -524 -573 q -551 -573 -551 -587 l -554 -573 q -576 -616 -554 -591 q -587 -614 -582 -616 q -595 -616 -592 -616 q -614 -592 -600 -605 q -595 -581 -595 -587 l -595 -573 l -608 -559 l -608 -549 l -606 -543 l -616 -535 q -627 -538 -621 -538 q -630 -535 -627 -535 q -649 -578 -630 -546 l -652 -578 q -657 -573 -657 -578 l -657 -554 l -660 -554 l -668 -559 l -671 -559 q -676 -554 -676 -559 l -676 -546 l -660 -524 q -665 -519 -660 -519 l -673 -519 q -687 -538 -673 -529 q -714 -576 -695 -564 q -725 -587 -714 -580 l -730 -587 q -741 -576 -734 -587 l -747 -578 l -749 -578 q -755 -573 -755 -578 l -755 -559 q -739 -543 -739 -549 q -733 -538 -733 -543 l -736 -519 q -752 -543 -749 -543 m -638 -530 l -638 -532 l -630 -532 l -630 -530 l -638 -530 m -730 -559 l -730 -562 l -722 -562 l -722 -559 l -730 -559 m -682 -568 l -673 -568 q -657 -589 -670 -568 l -657 -595 q -668 -606 -657 -599 l -673 -606 l -690 -592 l -690 -589 q -682 -568 -690 -569 m 260 -570 q 249 -595 253 -595 l 252 -600 l 252 -603 q 233 -649 243 -613 q 230 -652 230 -649 l 233 -652 q 262 -584 252 -640 q 265 -581 265 -584 l 265 -576 q 260 -570 265 -570 m -619 -581 l -616 -587 l -622 -589 l -625 -584 l -619 -581 m -370 -584 l -372 -595 l -372 -597 l -370 -597 l -367 -587 l -367 -584 l -370 -584 m -44 -587 q -50 -606 -44 -592 q -47 -616 -47 -610 l -44 -616 q -39 -603 -44 -603 l -41 -587 l -44 -587 m 222 -592 q 214 -622 222 -597 l 214 -625 l 216 -625 q 224 -595 216 -620 l 224 -592 l 222 -592 m -649 -592 l -646 -592 q -641 -600 -641 -592 l -627 -597 l -625 -597 q -592 -630 -595 -616 l -576 -633 q -568 -630 -570 -630 q -538 -663 -538 -645 q -546 -671 -538 -667 q -581 -652 -556 -671 l -595 -654 q -627 -635 -620 -645 l -627 -616 q -649 -606 -637 -616 q -654 -600 -654 -606 l -654 -597 q -649 -592 -654 -592 m -720 -616 l -717 -622 q -722 -627 -717 -627 l -725 -622 q -720 -616 -724 -616 m 208 -638 l 208 -641 q 214 -635 214 -641 l 214 -633 q 208 -638 208 -633 m -530 -638 l -527 -644 l -532 -646 l -535 -641 l -530 -638 m 205 -649 q 200 -657 205 -657 l 200 -673 q 168 -720 175 -690 l 162 -720 q 165 -728 165 -725 q 195 -698 183 -715 l 195 -695 l 189 -687 l 189 -684 l 195 -684 l 200 -687 q 208 -652 200 -681 l 208 -649 l 205 -649 m -508 -663 l -508 -676 l -505 -676 l -503 -665 l -508 -663 m -191 -663 l -191 -671 l -188 -671 l -188 -663 l -191 -663 m -66 -663 q -96 -739 -77 -715 q -109 -763 -101 -763 l -104 -771 l -104 -777 q -112 -785 -104 -781 l -117 -782 q -125 -828 -125 -811 l -123 -828 q -117 -823 -117 -828 l -120 -806 q -90 -747 -105 -801 q -66 -684 -75 -722 l -68 -679 l -63 -665 l -63 -663 l -66 -663 m 132 -676 l 132 -684 l 135 -684 l 138 -671 q 132 -676 132 -671 m -608 -671 l -600 -671 q -595 -676 -595 -671 l -595 -679 q -603 -687 -595 -683 l -608 -687 q -614 -682 -614 -687 l -614 -676 q -608 -671 -613 -671 m -193 -679 l -193 -684 l -191 -684 l -191 -679 l -193 -679 m -554 -679 l -551 -684 l -554 -690 l -551 -690 q -543 -687 -546 -687 l -541 -692 q -551 -703 -541 -696 l -554 -703 q -559 -695 -559 -703 l -568 -701 q -576 -692 -572 -701 l -576 -690 q -554 -679 -576 -682 m -201 -695 q -199 -706 -199 -700 l -196 -706 l -196 -695 l -201 -695 m -418 -703 l -418 -706 l -410 -706 l -410 -703 l -418 -703 m 121 -709 q 116 -725 121 -719 l 116 -728 q 127 -709 122 -728 l 121 -709 m -207 -711 q -204 -722 -204 -716 l -201 -722 q -196 -711 -201 -718 l -207 -711 m -532 -714 l -532 -722 q -522 -725 -531 -722 l -522 -720 q -532 -714 -526 -720 m -475 -720 q -473 -728 -473 -725 q -475 -736 -475 -733 l -473 -736 q -465 -728 -469 -736 q -467 -720 -467 -722 l -475 -720 m -505 -730 q -503 -739 -503 -736 q -505 -747 -505 -744 q -497 -722 -498 -747 q -505 -730 -499 -722 m -437 -739 l -437 -741 q -435 -749 -435 -747 l -432 -749 l -432 -739 l -437 -739 m -543 -747 q -554 -755 -543 -755 l -554 -760 q -543 -766 -543 -760 q -562 -785 -543 -770 l -565 -785 l -576 -777 l -578 -777 q -557 -787 -572 -787 l -557 -782 l -549 -782 l -538 -790 q -530 -752 -530 -772 l -530 -749 q -543 -747 -538 -749 m -391 -755 l -386 -755 l -386 -749 q -391 -755 -391 -750 m -481 -755 q -489 -768 -481 -768 q -486 -779 -486 -773 q -478 -763 -482 -779 l -475 -763 l -475 -755 l -481 -755 m -302 -758 l -302 -766 l -299 -766 l -299 -758 l -302 -758 m -513 -763 l -513 -766 l -508 -766 l -508 -763 l -513 -763 m -397 -768 q -394 -779 -394 -773 l -389 -779 q -380 -771 -385 -779 q -386 -763 -386 -771 l -389 -763 l -397 -768 m -446 -771 l -446 -774 q -440 -779 -445 -779 l -435 -779 q -443 -771 -435 -775 l -446 -771 m -307 -777 q -318 -812 -313 -805 l -318 -814 l -315 -833 q -323 -847 -320 -833 l -313 -850 l -315 -844 l -315 -833 q -299 -798 -311 -833 q -304 -777 -304 -793 l -307 -777 m -494 -785 l -492 -790 l -492 -793 l -497 -801 q -494 -812 -494 -806 q -503 -820 -498 -812 q -494 -823 -500 -820 q -484 -793 -494 -813 q -489 -782 -489 -793 l -494 -785 m -397 -790 q -405 -804 -397 -795 l -399 -806 l -391 -806 l -391 -790 l -397 -790 m -239 -790 l -261 -858 l -253 -858 q -239 -839 -250 -839 l -242 -833 l -242 -828 q -229 -806 -235 -806 l -226 -806 q -239 -790 -229 -790 m -451 -804 l -446 -804 l -446 -798 q -451 -804 -451 -799 m -465 -804 l -465 -806 l -454 -806 l -454 -804 l -465 -804 m -459 -825 q -462 -836 -459 -831 q -451 -839 -456 -836 l -448 -833 l -459 -825 m -413 -831 q -416 -833 -413 -833 q -413 -842 -413 -839 q -416 -850 -416 -847 l -405 -850 q -399 -836 -405 -843 l -399 -833 l -413 -831 z "},"K":{"ha":1153,"x_min":0,"x_max":1118,"o":"m 307 1356 l 307 852 l 713 1356 l 1118 1356 l 420 529 l 1118 -271 l 713 -271 l 231 304 l 0 38 l 0 1356 l 307 1356 m 14 1321 l 19 1313 l 19 1310 l 14 1302 q 19 1286 19 1293 q 14 1280 14 1285 q 19 1264 19 1274 l 24 1264 q 35 1270 31 1270 l 35 1278 q 24 1305 24 1295 l 24 1308 q 33 1316 24 1312 l 46 1316 q 52 1329 46 1329 l 76 1329 l 79 1343 l 73 1343 q 54 1335 64 1343 l 52 1335 q 46 1343 46 1335 q 14 1321 29 1343 m 98 1343 q 103 1337 98 1337 l 106 1343 l 98 1343 m 176 1343 l 176 1340 q 187 1324 187 1332 l 190 1324 q 195 1343 190 1329 l 176 1343 m 241 1343 l 241 1332 l 244 1332 l 244 1343 l 241 1343 m 269 1343 l 271 1329 l 263 1324 l 260 1324 l 255 1326 l 252 1321 l 266 1313 q 288 1343 266 1318 l 269 1343 m 103 1316 l 103 1313 q 111 1321 107 1313 l 111 1324 q 103 1316 107 1324 m 157 1324 l 157 1318 q 160 1310 160 1313 l 155 1308 q 136 1310 143 1310 q 133 1294 133 1307 l 155 1294 q 171 1299 155 1299 l 171 1310 q 157 1324 171 1314 m 288 1321 q 293 1316 288 1316 l 293 1321 l 288 1321 m 49 1313 l 49 1302 q 60 1286 60 1291 q 81 1316 73 1293 l 68 1313 q 65 1316 65 1313 q 49 1313 61 1313 m 187 1278 l 190 1259 l 190 1248 q 187 1245 190 1245 q 190 1237 190 1240 q 201 1248 194 1237 l 195 1256 l 195 1259 q 203 1267 195 1263 l 206 1267 l 212 1264 q 228 1272 212 1270 q 231 1270 228 1270 q 239 1286 234 1286 l 247 1286 q 266 1275 266 1278 l 263 1270 q 271 1259 271 1270 l 279 1259 q 293 1264 293 1259 q 260 1286 279 1286 q 255 1291 260 1291 l 233 1291 l 220 1294 q 214 1286 220 1286 l 212 1286 q 206 1297 206 1286 q 187 1278 195 1278 m 133 1278 q 138 1272 134 1272 l 138 1278 l 133 1278 m 138 1270 q 125 1261 138 1261 l 125 1256 q 160 1245 136 1256 q 174 1251 160 1251 q 163 1261 174 1255 l 160 1261 l 146 1259 q 141 1270 141 1265 l 138 1270 m 54 1261 l 54 1259 l 60 1259 l 60 1261 l 54 1261 m 266 1253 q 260 1237 266 1237 l 263 1232 l 263 1229 q 258 1223 263 1223 q 255 1226 255 1223 l 250 1223 l 236 1234 q 233 1232 236 1232 q 236 1223 236 1226 l 228 1210 q 255 1199 228 1206 q 258 1196 255 1196 l 263 1196 q 269 1204 263 1204 l 277 1204 q 285 1196 281 1204 l 285 1194 q 269 1185 285 1185 l 269 1169 q 263 1164 269 1164 q 233 1175 256 1164 l 233 1169 q 263 1128 263 1139 l 255 1115 q 260 1109 260 1114 l 260 1107 l 255 1099 q 282 1080 282 1099 l 285 1080 q 293 1096 285 1086 l 279 1120 q 277 1123 277 1120 l 277 1134 q 293 1139 277 1139 l 293 1153 q 288 1156 288 1153 l 282 1153 l 274 1153 l 274 1161 q 293 1172 274 1168 l 293 1180 q 290 1204 293 1190 q 293 1213 293 1210 q 288 1218 288 1213 l 288 1223 l 290 1229 q 282 1245 286 1229 l 277 1242 l 274 1242 q 269 1253 269 1242 l 266 1253 m 92 1240 l 98 1240 l 98 1245 q 92 1240 92 1244 m 144 1234 q 138 1223 144 1230 q 157 1204 156 1204 l 157 1207 l 152 1215 l 152 1221 l 157 1229 q 146 1234 153 1229 l 144 1234 m 103 1223 l 103 1215 q 109 1221 109 1215 l 103 1223 m 43 1218 q 41 1204 43 1209 q 54 1202 50 1204 l 54 1213 q 43 1218 50 1213 m 19 1215 l 19 1210 l 22 1210 l 22 1215 l 19 1215 m 182 1213 q 187 1207 182 1207 l 195 1207 l 195 1210 l 182 1213 m 90 1199 q 100 1191 100 1195 l 100 1188 q 92 1183 100 1183 l 92 1180 l 103 1177 q 111 1180 109 1180 l 111 1183 q 100 1210 111 1189 q 90 1199 96 1210 m 198 1204 l 198 1188 q 179 1166 189 1166 q 190 1139 189 1156 q 212 1177 212 1155 l 233 1177 q 212 1191 233 1187 q 198 1204 212 1204 m 163 1191 l 163 1185 l 165 1185 l 165 1191 l 163 1191 m 35 1175 l 38 1175 q 49 1177 43 1177 l 49 1183 q 35 1175 35 1179 m 38 1166 l 33 1158 l 38 1156 l 41 1156 q 43 1164 41 1158 l 38 1166 m 87 1164 l 84 1158 l 84 1153 l 103 1128 q 111 1137 107 1128 l 111 1142 q 87 1164 102 1142 m 27 1120 q 22 1109 27 1116 l 22 1101 l 30 1101 l 33 1118 l 27 1120 m 222 1101 l 217 1101 q 193 1107 200 1107 l 193 1096 q 198 1090 198 1095 l 198 1082 l 193 1074 q 203 1063 203 1074 l 193 1044 l 195 1039 q 209 1055 199 1039 q 201 1077 205 1071 l 201 1085 q 212 1096 201 1089 l 220 1096 l 228 1090 q 233 1107 228 1107 l 247 1107 l 247 1112 q 222 1101 233 1112 m 92 1107 l 92 1099 l 95 1085 l 98 1085 l 100 1099 q 92 1107 100 1103 m 233 1072 q 222 1031 222 1036 l 225 1031 q 241 1036 233 1031 q 252 1025 252 1034 l 255 1025 l 255 1028 q 250 1044 250 1039 l 269 1055 q 241 1072 269 1067 l 233 1072 m 62 977 l 62 968 q 68 963 63 963 l 90 1066 q 71 998 78 1066 q 62 977 66 981 m 179 1050 l 179 1044 l 184 1044 q 179 1050 184 1050 m 176 1036 q 171 1017 176 1028 l 176 1015 q 182 1028 176 1028 l 184 1028 q 176 1036 184 1032 m 214 998 q 212 982 214 986 l 225 982 q 217 998 217 991 l 214 998 m 279 982 l 279 979 q 288 968 283 968 l 290 968 l 293 982 l 279 982 m 206 960 l 206 955 l 209 955 l 209 960 l 206 960 m 244 920 l 244 917 q 247 909 247 911 l 252 909 l 252 911 q 244 920 252 916 m 323 849 l 323 846 l 328 846 l 328 849 l 323 849 m 271 822 q 277 817 277 821 q 258 803 277 808 q 247 792 258 792 l 247 787 l 255 792 l 271 792 l 290 795 l 285 803 q 290 808 286 808 l 296 808 l 301 806 l 301 808 q 293 817 297 808 l 298 825 l 298 833 q 282 838 288 833 l 279 838 q 271 822 275 838 m 236 768 l 239 768 q 244 773 244 768 l 244 781 q 236 768 239 781 m 255 770 l 255 757 l 263 757 q 277 768 263 768 q 271 779 271 774 l 269 779 q 255 770 260 770 m 369 762 l 369 760 l 377 760 l 380 765 l 377 765 q 369 762 372 762 m 225 751 l 222 738 l 236 738 q 247 722 239 738 l 247 719 q 241 713 247 713 q 233 724 235 713 l 231 724 q 212 697 214 711 l 217 700 l 231 700 l 239 694 q 255 722 239 702 l 255 727 q 244 735 244 727 l 247 741 q 228 751 228 741 l 225 751 m 350 722 l 353 722 q 363 738 358 722 l 361 738 q 350 722 356 738 m 298 640 l 301 640 q 323 673 318 673 l 334 689 l 334 694 q 298 643 315 679 l 298 640 m 209 684 l 203 667 q 244 643 218 667 l 244 656 q 236 665 244 661 l 220 665 l 220 673 l 225 681 q 209 684 213 681 m 250 643 l 250 640 l 255 640 l 255 643 l 250 643 m 236 629 l 239 624 q 236 613 239 618 q 239 602 239 608 l 252 605 q 241 629 241 617 l 236 629 m 193 618 l 193 616 q 209 605 193 610 l 209 624 q 193 618 200 618 m 225 600 q 222 591 225 597 l 225 591 q 233 600 229 591 l 225 600 m 260 586 q 258 572 260 577 l 260 572 q 269 575 266 575 l 269 586 l 260 586 m 176 548 l 176 545 l 193 545 l 190 551 l 190 562 l 195 570 l 190 570 l 176 548 m 212 559 l 209 545 l 209 540 l 212 540 q 222 548 212 548 q 214 559 218 559 l 212 559 m 193 505 l 195 505 l 201 507 l 212 502 q 228 510 214 510 l 222 518 l 222 524 l 228 532 l 225 532 q 214 529 220 529 q 212 537 212 534 q 193 505 203 535 m 168 529 q 160 513 160 523 q 174 505 174 512 l 174 502 q 157 488 166 488 l 157 486 q 165 477 157 481 q 179 483 165 483 q 174 494 174 490 l 182 507 l 182 510 q 174 515 174 510 q 182 518 179 518 l 182 526 q 168 529 173 526 m 260 505 l 260 499 l 263 499 l 263 505 l 260 505 m 241 477 l 241 475 q 244 467 244 469 q 241 464 241 467 l 244 464 q 252 467 250 467 l 258 464 l 260 464 l 260 467 q 244 477 255 467 l 241 477 m 182 434 l 182 431 q 198 420 190 431 l 201 420 q 209 439 203 439 l 220 439 l 225 437 q 231 448 225 441 l 231 450 l 225 448 l 220 448 q 214 464 214 448 l 212 464 q 201 434 205 464 l 182 434 m 285 456 q 271 442 285 442 l 274 437 q 293 439 285 439 q 288 456 288 448 l 285 456 m 331 442 l 331 439 l 336 439 l 336 442 l 331 442 m 298 434 l 298 423 q 304 429 304 423 q 298 434 304 434 m 225 382 q 212 410 221 386 l 209 410 l 212 396 l 212 393 q 206 388 212 388 l 190 388 q 174 410 174 403 q 168 404 168 409 l 168 399 q 190 380 176 399 l 203 382 l 233 366 q 241 355 235 355 l 244 355 q 239 380 239 368 q 260 410 248 382 q 271 412 262 410 q 266 418 271 418 q 247 399 258 417 q 225 382 244 399 m 203 415 l 203 412 l 209 412 l 209 415 l 203 415 m 293 404 q 296 393 296 399 l 301 393 l 301 415 q 293 404 297 415 m 111 396 q 106 372 109 376 q 125 391 125 372 q 127 393 127 391 l 125 393 q 117 391 119 391 q 111 396 117 396 m 160 372 q 157 361 160 366 l 168 361 l 168 363 q 160 372 168 368 m 301 366 l 301 358 l 298 345 l 304 345 q 320 363 307 345 l 301 366 m 109 355 q 92 345 109 347 l 92 342 q 109 336 107 336 l 111 342 l 111 355 l 109 355 m 206 355 q 201 342 206 349 q 209 339 203 342 l 209 355 l 206 355 m 133 353 q 136 345 136 347 q 130 336 133 336 q 133 328 133 331 l 152 331 q 138 353 143 353 l 133 353 m 174 353 q 160 334 174 348 l 168 328 l 171 328 q 198 342 171 340 l 198 345 q 174 353 178 353 m 258 345 l 258 336 l 263 336 l 263 345 l 258 345 m 228 320 l 233 320 l 233 326 q 228 320 228 325 m 114 320 q 103 298 114 309 q 106 290 106 293 q 98 282 102 290 q 103 277 98 277 q 122 307 103 290 q 114 320 119 320 m 171 304 l 176 296 l 176 290 q 165 277 170 277 l 136 298 l 133 288 l 152 274 l 152 266 l 149 260 q 163 255 163 260 l 163 252 q 155 244 163 248 l 149 244 q 144 255 144 244 l 138 255 l 138 244 l 136 231 q 146 228 142 231 l 190 282 q 184 288 184 282 l 184 290 q 190 296 185 296 l 193 296 l 201 290 l 203 301 l 198 304 q 193 298 198 298 l 187 298 q 182 304 182 298 l 182 309 q 198 315 182 315 q 193 320 198 320 q 171 304 174 313 m 260 309 l 255 301 q 274 298 263 301 l 277 304 q 260 309 267 304 m 60 255 l 43 222 l 43 220 q 71 241 58 237 l 68 247 l 68 250 l 71 255 l 60 255 m 81 220 l 84 206 l 84 184 l 103 187 q 106 184 103 184 q 117 203 106 203 q 127 206 123 203 q 125 228 125 217 q 114 225 120 225 l 114 212 q 103 201 114 208 l 98 201 q 92 206 92 201 l 92 217 q 100 222 92 222 l 100 231 q 81 220 88 220 m 60 214 q 54 195 54 197 l 62 195 l 65 209 l 65 214 l 60 214 m 30 198 q 33 187 33 193 q 41 190 38 190 q 38 198 38 195 l 30 198 m 84 174 q 54 152 75 152 l 54 149 q 68 136 54 146 q 76 157 71 157 l 79 157 l 84 155 l 92 165 q 84 174 92 170 m 19 138 l 19 136 q 33 133 28 136 l 33 144 q 19 138 26 138 m 14 98 l 14 92 q 22 84 22 92 l 27 87 l 24 103 l 19 103 q 14 98 14 102 m 667 57 q 635 14 659 43 q 640 3 640 7 l 643 3 q 673 52 643 11 q 667 57 673 57 m 304 33 l 304 -271 l 0 -271 l 304 33 m 203 -90 q 209 -95 204 -95 l 209 -90 l 203 -90 m 163 -146 l 163 -152 q 168 -146 168 -152 l 163 -146 m 81 -209 l 87 -209 q 90 -206 90 -209 l 103 -209 l 114 -209 q 130 -179 130 -197 q 125 -165 125 -179 q 81 -209 121 -165 m 155 -165 l 155 -168 q 174 -198 155 -188 l 176 -198 l 176 -193 l 187 -193 l 187 -198 q 176 -203 187 -203 q 182 -209 177 -209 q 193 -201 193 -205 l 193 -193 q 176 -168 188 -193 q 155 -165 165 -168 m 258 -165 q 260 -174 260 -171 l 263 -174 l 263 -165 l 258 -165 m 247 -179 l 244 -190 q 252 -179 248 -190 l 247 -179 m 906 -190 l 906 -201 l 920 -201 q 917 -187 917 -196 q 906 -190 912 -190 m 233 -198 q 228 -209 233 -202 l 228 -214 l 233 -214 l 236 -201 l 236 -198 l 233 -198 m 998 -212 q 982 -233 998 -217 l 993 -244 q 1004 -214 993 -233 l 1004 -212 l 998 -212 m 220 -220 l 220 -228 q 228 -220 224 -228 l 228 -217 q 220 -220 222 -220 m 168 -231 q 163 -247 163 -239 l 163 -250 l 171 -250 q 182 -241 171 -241 l 182 -233 q 168 -231 173 -233 m 106 -241 l 100 -250 q 103 -258 103 -255 l 136 -258 l 133 -252 l 127 -255 q 111 -247 121 -247 q 106 -241 111 -241 m 285 -244 q 279 -258 285 -251 l 290 -258 l 290 -244 l 285 -244 m 201 -247 l 198 -258 l 206 -258 l 206 -247 l 201 -247 m 987 -250 l 987 -255 l 990 -255 l 990 -250 l 987 -250 m 33 -255 l 33 -258 l 38 -258 l 38 -255 l 33 -255 z "},"L":{"ha":959,"x_min":0,"x_max":914,"o":"m 307 1356 l 307 35 l 811 35 l 914 -271 l 0 -272 l 0 1356 l 307 1356 m 57 1343 l 57 1337 l 68 1335 l 71 1340 l 71 1343 l 57 1343 m 90 1343 l 90 1340 l 95 1340 l 95 1343 l 90 1343 m 125 1337 l 127 1324 q 100 1305 100 1307 l 100 1302 q 106 1297 101 1297 q 117 1313 111 1313 l 122 1313 q 130 1305 126 1313 l 130 1299 q 109 1289 130 1289 q 133 1251 109 1272 q 141 1261 134 1261 l 144 1261 l 157 1245 q 171 1251 166 1251 l 171 1275 q 176 1280 172 1280 l 184 1280 q 195 1256 193 1280 q 176 1242 187 1246 l 165 1194 q 179 1229 170 1194 q 201 1272 194 1229 l 212 1272 q 217 1267 217 1272 l 217 1259 l 214 1253 l 225 1253 l 225 1267 q 241 1275 228 1275 q 255 1256 245 1275 q 269 1283 262 1283 l 266 1289 l 266 1291 l 271 1299 q 269 1310 269 1304 l 277 1316 l 293 1316 l 293 1335 l 279 1324 q 239 1340 269 1337 l 239 1343 q 236 1340 236 1343 l 217 1343 l 198 1343 l 198 1340 q 209 1324 209 1340 l 201 1318 l 198 1318 q 190 1326 194 1318 l 190 1337 l 193 1343 l 138 1343 q 125 1337 132 1337 m 149 1329 l 152 1324 q 146 1318 152 1318 l 144 1324 q 149 1329 144 1329 m 136 1321 l 138 1316 q 133 1310 138 1310 l 130 1316 q 136 1321 131 1321 m 212 1318 l 220 1318 q 231 1308 224 1318 l 231 1305 q 225 1299 231 1299 l 222 1299 q 212 1302 216 1299 l 209 1302 l 209 1299 q 220 1291 220 1298 l 220 1286 q 212 1278 220 1282 l 206 1278 q 190 1291 190 1287 q 206 1302 190 1297 l 203 1308 l 203 1310 q 212 1318 203 1314 m 179 1305 l 182 1299 l 176 1297 l 174 1302 l 179 1305 m 149 1294 l 152 1294 q 157 1289 157 1293 l 157 1286 q 152 1280 157 1280 l 149 1280 q 144 1286 144 1280 l 144 1289 q 149 1294 144 1294 m 98 1278 l 98 1272 l 100 1272 l 100 1278 l 98 1278 m 81 1270 q 87 1264 82 1264 l 87 1270 l 81 1270 m 290 1164 l 290 1153 l 293 1153 l 293 1164 l 290 1164 m 285 1145 q 279 1131 285 1138 l 279 1128 q 290 1139 283 1128 q 285 1145 290 1145 m 269 1123 l 271 1118 l 271 1112 q 263 1107 271 1107 q 266 1099 266 1101 q 260 1082 266 1094 l 266 1082 l 277 1123 l 269 1123 m 258 871 l 258 863 l 250 863 l 244 865 l 241 860 q 255 854 248 860 q 260 865 255 859 l 260 871 l 258 871 m 87 800 l 87 792 l 90 792 l 90 800 l 87 800 m 255 751 q 252 749 255 749 l 255 743 l 255 738 q 250 732 255 732 q 252 724 252 727 l 263 741 l 266 741 l 266 749 q 255 751 260 749 m 244 716 l 244 713 l 252 713 l 252 719 q 244 716 247 716 m 220 673 q 222 662 222 668 l 225 662 q 228 673 225 668 l 220 673 m 209 637 l 214 637 l 214 643 q 209 637 209 642 m 182 627 q 171 600 182 619 l 171 594 l 174 594 q 184 621 174 602 l 184 627 l 182 627 m 290 559 l 290 553 l 293 553 l 293 559 l 290 559 m 277 521 l 277 518 l 282 518 l 282 526 q 277 521 277 526 m 155 524 l 155 521 l 165 521 l 165 524 l 155 524 m 274 515 l 252 477 l 263 477 q 269 488 263 481 l 269 502 l 277 502 l 277 515 l 274 515 m 146 510 l 146 507 l 155 507 l 155 513 q 146 510 149 510 m 138 496 l 138 491 l 146 491 l 146 496 l 138 496 m 241 456 l 241 453 l 252 453 l 252 456 l 241 456 m 49 420 l 49 412 l 52 412 l 52 420 l 49 420 m 24 377 l 24 369 l 30 369 q 35 382 30 382 q 46 396 37 396 l 46 410 q 24 377 43 410 m 241 410 l 241 401 q 247 407 247 401 l 247 410 l 241 410 m 201 309 l 201 307 l 203 307 q 217 334 203 313 q 214 342 214 339 q 236 380 222 345 l 236 382 q 209 336 220 374 q 201 309 203 336 m 19 366 l 19 355 l 22 355 l 22 366 l 19 366 m 95 366 q 73 326 83 326 l 73 323 q 90 320 85 323 q 106 347 94 347 l 106 355 q 100 366 100 362 l 95 366 m 14 336 l 14 326 l 19 326 l 19 336 l 14 336 m 119 277 q 122 269 122 271 l 119 255 l 119 250 l 122 250 q 127 279 122 254 l 125 279 l 119 277 m 117 247 l 117 236 l 119 236 l 119 247 l 117 247 m 111 233 q 106 220 111 227 l 106 212 l 109 212 q 114 222 109 222 l 114 233 l 111 233 m 90 174 l 92 160 l 95 160 q 106 190 95 178 l 100 193 q 90 174 97 193 m 136 119 l 136 106 l 138 106 l 138 119 l 136 119 m 553 19 l 553 16 l 564 16 l 564 19 l 553 19 m 632 16 l 632 8 l 635 8 q 640 14 640 8 l 640 16 l 632 16 m 65 14 l 65 11 q 68 3 68 5 l 71 3 l 71 11 l 65 14 m 532 -14 l 532 -19 l 534 -19 q 545 -3 534 -9 q 553 5 545 5 l 553 14 q 532 -14 546 14 m 556 -92 q 562 -98 562 -93 q 589 -62 576 -98 q 608 -35 592 -62 q 618 -22 612 -35 l 629 -22 l 624 -14 l 624 -11 l 629 -3 l 629 5 l 627 5 q 556 -92 591 -33 m 787 -35 l 792 -35 q 798 -24 792 -24 l 798 -19 q 787 -35 792 -19 m 518 -33 l 524 -33 l 524 -27 q 518 -33 518 -28 m 499 -52 l 499 -54 l 505 -54 q 515 -41 505 -47 l 515 -35 l 513 -35 q 499 -52 508 -35 m 776 -38 q 768 -52 776 -43 l 768 -54 l 770 -54 q 784 -43 784 -47 l 784 -38 l 776 -38 m 757 -60 l 757 -68 q 762 -62 762 -68 l 762 -60 l 757 -60 m 684 -79 l 684 -81 l 689 -81 l 689 -79 l 684 -79 m 87 -92 l 87 -98 l 90 -98 l 90 -92 l 87 -92 m 363 -100 l 363 -103 q 372 -100 369 -100 l 372 -92 q 363 -100 368 -92 m 673 -92 l 673 -95 l 678 -95 l 678 -92 l 673 -92 m 814 -119 q 800 -144 800 -138 l 803 -144 l 814 -127 l 817 -127 l 817 -119 l 814 -119 m 73 -125 l 73 -130 l 76 -130 l 76 -125 l 73 -125 m 673 -144 l 673 -149 l 678 -149 l 678 -144 l 673 -144 m 798 -146 l 798 -152 l 800 -152 l 800 -146 l 798 -146 m 662 -155 l 662 -160 l 667 -160 l 667 -155 l 662 -155 m 789 -155 q 787 -165 789 -161 l 792 -165 l 792 -155 l 789 -155 m 779 -171 q 768 -193 779 -178 l 776 -193 q 781 -182 776 -182 l 781 -171 l 779 -171 m 643 -176 l 643 -179 q 648 -184 644 -184 l 648 -176 l 643 -176 m 521 -182 l 521 -184 l 526 -184 l 526 -182 l 521 -182 m 71 -195 l 71 -201 l 73 -201 l 73 -195 l 71 -195 m 146 -225 l 152 -222 l 149 -217 q 157 -209 149 -215 q 155 -201 155 -203 q 146 -225 148 -201 m 789 -201 q 787 -217 787 -215 l 792 -217 q 795 -212 792 -212 q 792 -201 792 -207 l 789 -201 m 38 -203 l 38 -209 l 41 -209 l 41 -203 l 38 -203 m 119 -203 l 111 -236 l 119 -236 q 130 -209 125 -236 l 119 -203 m 65 -206 l 65 -214 l 68 -214 l 68 -206 l 65 -206 m 600 -206 l 600 -209 l 605 -209 l 605 -206 l 600 -206 m 684 -209 l 684 -214 l 686 -214 l 686 -209 l 684 -209 m 879 -214 l 873 -222 q 884 -236 884 -222 l 887 -236 l 887 -228 q 879 -214 884 -214 m 675 -220 l 675 -225 l 678 -225 l 678 -220 l 675 -220 m 665 -239 l 673 -239 l 673 -231 q 665 -239 669 -231 m 762 -241 l 762 -247 q 773 -236 766 -247 l 773 -233 q 762 -241 766 -241 m 290 -236 l 290 -244 l 293 -244 l 293 -236 l 290 -236 m 136 -241 l 136 -250 l 141 -250 l 141 -241 l 136 -241 m 857 -255 l 857 -258 l 873 -258 q 882 -241 873 -250 l 876 -241 q 857 -255 865 -255 m 654 -258 q 662 -250 658 -258 l 662 -244 q 654 -258 656 -244 m 195 -247 l 193 -258 l 198 -258 l 198 -247 l 195 -247 m 800 -247 l 800 -250 l 806 -250 l 806 -247 l 800 -247 z "},"M":{"ha":1492,"x_min":0,"x_max":1424,"o":"m 0 1356 l 304 1356 l 711 342 l 713 342 l 1123 1356 l 1424 1356 l 1424 -271 l 1123 -271 q 1118 -266 1118 -271 l 1118 434 l 712 -271 l 307 434 l 307 33 l 0 136 l 0 1356 m 14 1343 l 14 1261 l 16 1261 q 24 1286 16 1266 q 22 1297 22 1291 l 24 1302 q 22 1313 22 1307 l 24 1318 q 22 1326 22 1324 q 27 1343 22 1331 l 14 1343 m 68 1343 q 73 1305 73 1336 l 79 1308 l 76 1313 q 87 1321 76 1320 l 81 1329 l 87 1337 q 81 1343 87 1343 l 68 1343 m 95 1337 q 100 1332 100 1337 q 95 1318 95 1323 l 98 1305 l 95 1299 q 98 1289 98 1295 q 95 1280 95 1283 l 100 1278 l 122 1343 l 100 1343 q 95 1337 95 1342 m 138 1337 q 144 1332 144 1337 l 144 1329 l 138 1321 q 144 1316 144 1320 l 144 1313 l 138 1305 q 144 1299 144 1304 l 144 1297 l 138 1289 q 144 1283 144 1288 l 144 1280 l 141 1275 l 146 1272 l 149 1272 q 157 1280 153 1272 q 155 1289 155 1286 q 163 1294 163 1291 q 160 1302 160 1299 l 168 1308 l 165 1313 q 168 1316 165 1316 l 165 1321 q 171 1326 166 1326 q 165 1340 165 1335 q 168 1343 168 1340 l 144 1343 q 138 1337 138 1342 m 187 1337 l 195 1326 q 187 1321 195 1321 q 195 1313 187 1317 q 203 1321 195 1317 l 201 1326 l 201 1329 l 206 1337 l 198 1343 q 187 1337 191 1337 m 1164 1310 l 1164 1305 l 1166 1305 l 1166 1310 l 1164 1310 m 195 1278 q 198 1267 198 1273 q 212 1289 203 1267 l 212 1308 l 195 1278 m 1278 1289 l 1278 1283 l 1280 1283 l 1280 1289 l 1278 1289 m 79 1280 l 73 1256 l 79 1256 l 81 1275 l 81 1280 l 79 1280 m 307 1210 q 304 1185 307 1200 l 309 1185 q 312 1196 309 1192 q 309 1210 309 1201 l 307 1210 m 1088 1210 l 1088 1207 l 1093 1207 l 1093 1210 l 1088 1210 m 345 1099 q 328 1039 334 1066 q 307 977 320 995 l 307 909 q 315 939 312 909 q 328 971 328 965 l 328 1006 q 336 1031 328 1021 q 331 1036 331 1031 l 331 1039 q 350 1088 345 1065 l 353 1088 q 350 1099 350 1093 l 345 1099 m 1058 974 l 1058 966 l 1061 966 q 1080 1017 1071 1007 q 1082 1036 1082 1028 q 1069 1009 1073 1036 q 1058 974 1062 980 m 1055 949 q 1036 879 1036 909 l 1039 863 q 1034 854 1034 863 l 1034 852 l 1036 852 q 1061 947 1055 888 l 1055 949 m 49 928 l 49 922 l 54 922 l 54 933 q 49 928 49 932 m 24 922 q 19 898 24 918 q 22 890 22 892 q 19 879 19 885 l 24 879 l 27 906 l 27 917 l 30 922 l 24 922 m 149 922 l 149 917 l 152 917 l 152 922 l 149 922 m 146 909 l 146 903 l 149 903 l 149 909 l 146 909 m 293 865 l 298 863 q 301 882 298 871 q 293 865 296 882 m 1036 838 l 1036 833 l 1039 833 l 1039 838 l 1036 838 m 1031 827 q 1025 811 1031 811 q 1028 800 1028 806 l 1031 800 q 1034 822 1031 807 l 1034 827 l 1031 827 m 38 817 l 41 811 q 30 781 30 789 l 30 768 q 46 817 34 768 l 38 817 m 1020 795 l 1020 792 l 1025 792 l 1025 795 l 1020 795 m 282 768 l 271 735 l 274 730 l 274 722 l 271 716 l 277 713 q 288 760 277 741 l 288 768 l 282 768 m 1308 768 q 1302 754 1308 761 l 1302 751 l 1305 751 q 1310 762 1305 755 l 1310 768 l 1308 768 m 60 754 q 57 743 60 748 l 62 741 l 65 751 l 60 754 m 374 754 l 358 684 l 358 681 l 361 681 q 382 746 372 720 q 380 754 380 751 l 374 754 m 1009 689 l 1015 686 q 1020 703 1015 696 q 1017 705 1017 703 q 1009 689 1009 705 m 14 703 l 14 694 l 16 694 l 16 703 l 14 703 m 236 697 l 236 684 l 239 684 q 241 697 239 692 l 236 697 m 1107 692 l 1101 667 q 1107 662 1102 662 l 1109 686 l 1109 692 l 1107 692 m 225 684 l 225 681 l 233 681 l 233 684 l 225 684 m 355 678 l 355 673 l 358 673 l 358 678 l 355 678 m 222 667 l 222 665 l 228 665 l 228 667 l 222 667 m 217 651 l 217 648 l 222 648 l 222 651 l 217 651 m 480 646 l 480 637 l 483 637 l 483 646 l 480 646 m 212 635 q 217 624 217 628 l 220 624 l 222 635 l 212 635 m 339 635 l 339 629 q 345 635 345 629 l 339 635 m 209 618 l 209 616 q 217 613 212 616 l 220 618 l 209 618 m 315 586 l 315 583 q 331 581 327 583 q 342 613 331 583 q 315 586 322 607 m 212 602 l 212 597 q 217 602 217 597 l 212 602 m 30 594 l 33 589 l 33 586 q 24 578 33 582 l 27 572 l 27 570 l 22 562 q 30 548 25 548 q 41 575 37 575 q 38 600 38 590 l 30 594 m 581 600 q 567 578 576 578 l 570 572 l 570 567 q 562 562 570 562 q 564 559 562 559 l 562 532 l 562 529 l 567 521 l 562 513 l 567 505 l 567 499 l 562 499 l 562 494 l 567 494 q 575 526 570 526 l 572 532 l 572 540 q 575 543 572 543 l 572 548 l 572 556 q 575 559 572 559 l 572 564 l 572 572 q 583 597 581 582 l 583 600 l 581 600 m 1375 591 q 1373 583 1375 589 l 1381 583 q 1383 591 1381 586 l 1375 591 m 203 589 l 203 586 q 209 581 209 586 l 212 581 l 212 586 l 206 589 l 203 589 m 418 578 l 418 567 l 420 567 l 420 578 l 418 578 m 203 575 q 198 564 203 571 q 206 562 201 564 q 209 567 206 567 q 206 575 206 572 l 203 575 m 605 567 l 605 559 l 608 559 l 608 567 l 605 567 m 111 553 l 117 553 l 117 559 q 111 553 111 558 m 602 548 l 605 543 l 605 537 l 602 532 q 618 521 605 532 l 621 521 q 613 553 621 528 q 602 548 606 548 m 176 532 l 179 518 l 187 518 l 184 524 l 187 537 q 176 532 180 532 m 296 534 q 290 524 296 530 l 290 507 l 293 507 q 304 534 293 512 l 296 534 m 1318 524 l 1316 518 q 1318 507 1318 513 l 1321 507 l 1324 521 l 1318 524 m 1394 496 l 1394 494 q 1405 491 1400 494 l 1411 499 l 1411 515 q 1394 496 1407 515 m 1305 507 q 1308 499 1308 502 q 1313 505 1313 499 l 1313 507 l 1305 507 m 567 488 l 567 483 l 570 483 l 570 488 l 567 488 m 100 486 l 100 480 l 103 480 l 103 486 l 100 486 m 1364 461 q 1378 442 1378 452 q 1400 461 1390 455 q 1405 483 1405 481 q 1370 469 1395 472 l 1364 461 m 165 477 l 165 475 l 171 475 l 171 477 l 165 477 m 84 475 l 87 469 l 87 467 q 81 445 87 455 q 84 437 84 439 l 87 437 q 92 445 92 437 l 90 458 q 100 464 96 464 q 90 475 100 468 l 84 475 m 1294 456 l 1294 453 l 1299 453 l 1299 456 l 1294 456 m 562 450 l 562 448 l 567 439 l 562 431 l 567 423 l 562 415 l 567 407 l 562 399 l 567 391 l 562 382 l 567 374 l 562 366 l 567 358 l 562 350 l 567 342 l 567 339 l 564 334 l 570 331 l 570 453 q 562 450 564 450 m 1234 448 l 1234 442 q 1240 448 1240 442 l 1240 453 q 1234 448 1234 452 m 477 450 l 475 437 l 475 407 l 477 407 q 483 426 477 412 q 480 437 480 431 l 486 448 l 480 450 l 477 450 m 260 439 q 252 404 260 418 l 266 401 q 271 407 267 407 q 266 420 266 416 q 274 429 270 420 l 274 431 q 260 439 269 431 m 195 434 l 195 431 q 203 420 203 431 l 209 420 l 206 426 l 206 434 l 212 434 l 212 437 l 209 437 q 195 434 204 434 m 1335 437 q 1332 423 1335 428 l 1335 407 l 1326 396 q 1335 382 1335 396 l 1343 382 l 1340 401 l 1343 401 q 1340 410 1340 407 q 1343 418 1340 412 q 1335 437 1340 437 m 68 415 l 76 388 l 81 388 l 79 393 l 79 401 q 81 404 79 404 l 79 410 l 79 415 l 84 423 l 84 431 q 68 415 68 429 m 1381 423 l 1383 418 q 1392 420 1389 420 l 1392 431 q 1381 423 1381 427 m 822 426 l 822 423 l 827 423 l 827 426 l 822 426 m 822 410 l 822 407 l 830 407 l 830 412 q 822 410 825 410 m 174 407 l 163 388 l 163 382 l 165 382 q 187 401 165 399 l 187 404 q 174 407 178 404 m 426 407 l 426 404 q 429 396 429 399 l 431 396 l 431 399 q 429 407 429 404 l 426 407 m 133 401 l 133 393 l 146 393 q 144 401 144 399 l 133 401 m 345 401 l 345 399 q 353 391 345 395 l 355 391 l 355 396 q 345 401 351 396 m 374 401 l 374 385 l 377 385 l 377 401 l 374 401 m 822 393 l 822 391 l 827 391 l 827 393 l 822 393 m 1286 391 q 1272 377 1286 387 l 1267 377 q 1261 388 1261 377 l 1259 388 q 1253 369 1259 375 l 1272 353 l 1272 347 q 1270 345 1272 345 q 1286 309 1270 338 q 1272 301 1277 301 q 1289 279 1289 285 q 1283 255 1287 255 l 1286 250 l 1286 244 l 1283 239 q 1289 231 1289 239 l 1299 231 l 1299 247 q 1305 252 1300 252 l 1313 252 l 1318 250 l 1324 258 l 1318 260 l 1321 274 l 1321 282 l 1305 269 l 1302 274 q 1305 285 1305 279 q 1286 304 1295 285 l 1289 317 q 1280 353 1280 317 l 1280 361 q 1291 382 1291 372 l 1291 385 q 1286 391 1291 391 m 1210 374 l 1210 369 l 1213 369 l 1213 374 l 1210 374 m 475 366 l 475 350 q 483 363 481 350 l 477 366 l 475 366 m 1348 363 l 1348 361 q 1362 342 1348 348 l 1378 342 l 1378 345 q 1362 363 1365 363 l 1348 363 m 27 336 q 35 328 31 336 q 22 317 30 317 q 14 320 16 320 l 14 312 l 22 312 l 41 320 q 52 345 41 330 l 43 350 l 38 350 q 27 336 35 350 m 236 347 l 236 342 q 250 326 246 342 l 252 326 l 252 328 q 241 347 249 347 l 236 347 m 285 339 q 290 334 290 338 l 290 331 q 269 317 290 325 l 269 315 q 277 307 269 311 q 290 320 277 313 l 293 326 l 293 347 q 285 339 289 347 m 1226 347 q 1218 331 1226 341 l 1218 328 q 1229 312 1229 328 l 1229 301 l 1218 288 q 1232 274 1221 288 l 1232 269 l 1226 260 l 1226 244 l 1240 244 l 1237 258 l 1237 277 q 1253 285 1237 285 l 1251 298 l 1261 315 q 1256 320 1256 315 l 1256 323 l 1259 328 q 1237 347 1242 347 l 1226 347 m 152 336 l 152 334 l 157 334 l 157 336 l 152 336 m 475 334 l 475 298 l 480 301 l 477 312 q 483 331 477 317 l 477 334 l 475 334 m 117 331 l 117 317 q 100 290 102 303 l 122 290 q 117 307 117 299 l 117 312 q 130 326 130 322 q 119 331 126 326 l 117 331 m 62 307 l 71 307 q 76 312 76 307 l 76 326 q 62 307 73 326 m 1329 323 q 1326 312 1329 317 l 1332 312 l 1332 323 l 1329 323 m 144 312 l 144 309 q 160 307 158 307 l 160 312 l 155 320 q 144 312 144 316 m 252 317 l 252 312 l 255 312 l 255 317 l 252 317 m 225 298 l 228 298 q 236 301 233 301 l 236 307 l 233 307 q 225 298 229 307 m 52 304 q 49 293 52 298 l 57 293 l 57 304 l 52 304 m 171 304 l 171 298 l 174 298 l 174 304 l 171 304 m 16 290 l 16 288 q 22 282 17 282 q 30 285 27 285 l 30 293 q 16 290 25 290 m 38 293 q 35 282 38 287 q 38 269 38 277 l 49 269 l 43 277 l 43 288 l 46 293 l 38 293 m 71 293 l 71 285 l 73 285 l 73 293 l 71 293 m 122 288 q 111 260 122 260 l 111 258 q 133 247 133 255 l 133 241 q 122 231 133 237 l 117 231 q 111 239 111 231 l 103 239 l 106 233 l 106 231 q 98 222 106 227 l 90 228 q 76 220 81 220 q 90 195 86 195 l 92 190 q 84 184 92 184 l 84 182 l 90 174 l 90 171 l 84 163 q 100 155 87 155 q 114 160 107 160 l 109 168 l 109 171 l 111 176 q 95 182 95 176 q 100 195 96 195 l 98 201 l 98 209 q 103 214 98 214 l 111 214 q 117 209 117 214 l 117 206 l 111 198 q 127 190 119 198 l 136 190 q 141 203 136 197 l 141 206 q 130 212 130 206 l 130 222 q 152 236 130 227 l 155 236 q 174 212 168 212 l 176 225 q 165 236 172 225 l 165 247 q 174 252 165 252 l 174 255 q 149 269 149 255 l 149 277 q 122 288 146 277 m 168 277 q 179 260 172 277 l 179 252 l 184 250 l 184 258 q 179 288 179 276 q 168 277 175 288 m 157 285 l 157 279 l 163 279 q 157 285 163 285 m 209 282 l 209 274 q 222 271 218 274 l 222 274 l 212 282 l 209 282 m 247 274 l 250 274 q 255 279 255 274 l 252 279 q 247 274 247 279 m 92 274 q 71 269 92 269 l 76 260 q 71 241 71 253 q 81 239 77 241 q 100 263 90 263 l 100 266 q 92 274 100 270 m 1356 269 l 1362 266 l 1367 274 l 1362 274 q 1356 269 1356 273 m 1378 263 l 1378 255 q 1394 271 1382 255 l 1392 271 q 1378 263 1383 263 m 1308 263 l 1310 258 l 1305 255 l 1302 260 l 1308 263 m 233 258 l 231 252 q 247 231 238 252 q 277 198 277 218 l 288 198 l 285 203 l 285 209 l 293 220 l 293 244 q 277 252 293 249 q 271 247 277 247 l 263 247 q 258 255 258 247 l 247 255 l 233 258 m 1370 252 l 1370 247 l 1373 247 l 1373 252 l 1370 252 m 1270 250 l 1270 244 q 1272 233 1272 239 l 1275 233 l 1275 239 q 1272 250 1272 243 l 1270 250 m 1321 244 l 1321 239 l 1324 239 l 1324 244 l 1321 244 m 222 236 q 214 220 222 220 l 209 220 l 203 222 l 201 203 l 201 198 q 212 195 207 198 l 214 201 l 206 214 l 212 217 q 220 214 217 214 q 228 220 220 220 l 225 225 l 225 228 l 228 233 l 222 236 m 274 236 l 277 231 l 271 228 l 269 233 l 274 236 m 1242 233 l 1242 228 q 1259 190 1242 216 l 1259 184 l 1251 174 l 1261 174 q 1264 179 1261 179 l 1261 184 l 1264 198 q 1248 231 1264 212 l 1248 233 l 1242 233 m 1356 233 q 1364 225 1356 229 l 1367 225 l 1367 228 q 1362 233 1367 233 l 1356 233 m 1275 220 q 1278 203 1278 216 l 1280 203 l 1286 206 q 1283 225 1283 217 l 1275 220 m 231 220 l 231 217 l 236 217 l 236 220 l 231 220 m 513 214 l 513 209 l 515 209 q 524 212 521 212 l 524 214 l 513 214 m 1297 212 l 1299 193 l 1299 179 q 1316 174 1316 179 l 1316 165 q 1302 122 1310 159 l 1291 119 l 1289 125 l 1291 130 q 1264 155 1286 130 l 1264 149 q 1275 117 1275 127 q 1280 106 1280 110 l 1278 100 q 1280 90 1280 96 q 1278 87 1278 90 q 1283 79 1283 87 l 1286 79 q 1294 92 1286 83 q 1291 100 1291 98 q 1297 106 1297 100 q 1289 111 1289 106 q 1294 117 1289 117 q 1297 109 1297 111 l 1299 109 q 1318 122 1299 122 q 1351 165 1327 136 q 1337 195 1341 165 l 1335 195 q 1324 179 1335 187 l 1316 179 q 1299 212 1299 194 l 1297 212 m 784 198 l 784 193 l 789 193 l 789 203 q 784 198 784 203 m 513 198 l 513 193 q 521 184 521 193 l 524 184 q 532 193 528 184 l 532 195 l 513 198 m 174 179 q 187 171 187 178 l 187 165 q 171 155 182 155 l 171 152 l 174 152 l 187 155 q 193 149 188 149 l 195 149 q 203 160 195 160 l 203 163 q 193 182 193 163 l 193 190 q 174 179 174 185 m 271 190 q 263 179 271 179 l 258 179 l 252 182 l 252 176 q 266 171 252 171 q 274 179 266 175 l 277 179 q 282 174 282 178 l 282 165 l 279 152 l 288 152 q 293 157 293 152 l 293 179 l 288 187 l 282 184 l 279 184 l 271 190 m 784 182 l 784 176 l 789 176 l 789 187 q 784 182 784 186 m 513 182 l 513 176 l 521 176 l 521 182 l 513 182 m 510 171 l 507 165 q 521 152 521 159 l 529 152 q 537 165 529 165 l 537 168 q 521 171 525 168 q 515 165 521 165 q 510 171 515 171 m 1326 174 l 1332 174 q 1337 168 1337 173 l 1337 160 q 1332 155 1337 155 l 1326 155 q 1321 160 1321 155 l 1321 168 q 1326 174 1322 174 m 222 165 q 209 155 222 157 q 201 146 209 146 q 206 125 206 136 l 206 117 q 184 95 191 96 l 176 95 l 171 98 l 171 92 q 214 81 205 81 q 228 87 214 87 l 228 90 l 222 98 l 222 100 q 236 122 231 122 l 241 122 l 250 117 q 274 136 274 132 q 266 138 266 136 l 260 136 l 255 136 l 247 141 q 239 133 247 137 l 236 133 q 222 146 233 133 l 222 152 q 228 157 223 157 q 225 165 225 163 l 222 165 m 117 160 q 138 136 117 151 l 138 130 l 144 130 q 149 138 144 138 l 152 138 l 152 136 l 146 127 l 152 125 l 157 125 q 119 160 157 144 l 117 160 m 510 155 l 510 152 q 513 144 513 146 l 518 144 l 518 149 q 513 155 513 149 l 510 155 m 35 144 q 38 136 38 138 l 43 138 q 41 146 41 144 l 35 144 m 510 138 l 510 136 q 513 125 513 131 q 510 117 510 119 l 515 114 l 521 117 l 513 138 l 510 138 m 73 130 l 73 125 l 79 125 q 73 130 79 130 m 271 106 l 269 100 l 269 98 q 285 90 271 90 l 288 90 q 271 106 281 104 m 768 98 l 768 -19 l 776 -19 l 776 57 q 779 98 776 71 l 768 98 m 1256 95 l 1256 92 q 1261 87 1257 87 l 1261 95 l 1256 95 m 1259 81 q 1253 49 1259 59 l 1259 46 q 1261 49 1259 49 l 1259 54 q 1264 79 1259 58 l 1259 81 m 1234 76 l 1234 52 q 1242 43 1234 47 q 1245 46 1242 46 l 1242 52 q 1245 62 1242 58 q 1234 76 1240 75 m 266 62 l 266 60 l 279 57 q 271 62 279 62 l 266 62 m 282 57 l 282 54 l 290 54 l 290 57 l 282 57 m 1240 -3 l 1240 -5 l 1245 -5 q 1253 3 1249 -5 l 1253 8 q 1240 -3 1240 1 m 735 -35 q 732 -41 735 -41 l 735 -46 l 735 -54 q 732 -57 735 -57 q 735 -68 735 -62 l 738 -68 l 741 -49 l 741 -41 q 735 -35 741 -35 m 1261 -38 q 1267 -43 1262 -43 l 1267 -38 l 1261 -38 m 1270 -43 l 1270 -52 l 1272 -52 l 1272 -43 l 1270 -43 m 1351 -98 l 1351 -106 l 1354 -106 q 1364 -92 1354 -92 l 1364 -84 q 1351 -98 1351 -90 m 1169 -90 l 1169 -117 l 1172 -117 l 1175 -90 l 1169 -90 m 1229 -92 q 1218 -109 1229 -109 q 1207 -119 1218 -119 l 1207 -122 q 1226 -125 1215 -122 q 1237 -109 1226 -109 l 1240 -92 l 1229 -92 m 1196 -133 q 1194 -152 1196 -141 l 1204 -152 q 1202 -144 1202 -146 q 1204 -136 1204 -138 l 1199 -133 l 1196 -133 m 1291 -141 l 1294 -146 l 1294 -149 l 1291 -155 q 1297 -160 1297 -155 q 1308 -157 1301 -157 l 1308 -155 l 1302 -146 q 1313 -141 1302 -141 l 1313 -138 q 1302 -136 1302 -138 l 1291 -141 m 1183 -258 l 1256 -258 q 1294 -212 1259 -257 l 1294 -209 q 1289 -203 1294 -203 q 1283 -212 1289 -212 q 1275 -203 1279 -212 q 1289 -198 1275 -198 l 1286 -193 l 1286 -190 l 1291 -182 q 1280 -160 1280 -167 q 1234 -206 1274 -160 q 1183 -255 1196 -255 l 1183 -258 m 1137 -171 l 1137 -179 l 1139 -179 l 1139 -171 l 1137 -171 m 1169 -171 q 1166 -184 1169 -180 q 1169 -195 1169 -189 l 1166 -201 q 1169 -212 1169 -205 q 1153 -231 1164 -224 l 1147 -231 q 1137 -217 1142 -229 l 1139 -206 q 1137 -198 1137 -201 q 1139 -190 1139 -193 q 1137 -182 1137 -184 l 1134 -182 l 1134 -258 l 1161 -258 q 1191 -198 1164 -223 l 1191 -195 q 1169 -171 1183 -195 m 681 -176 q 678 -184 678 -182 q 681 -193 681 -190 l 684 -193 q 686 -179 684 -184 l 681 -176 m 1199 -182 l 1199 -187 l 1202 -187 l 1202 -182 l 1199 -182 m 705 -212 l 705 -222 l 708 -222 l 708 -212 l 705 -212 m 1270 -212 l 1272 -212 q 1278 -217 1278 -212 l 1278 -220 q 1272 -225 1278 -225 q 1264 -217 1268 -225 q 1270 -212 1265 -212 m 1386 -225 l 1386 -228 l 1392 -228 l 1392 -225 l 1386 -225 m 705 -228 l 705 -233 l 708 -233 l 708 -228 l 705 -228 m 1259 -225 l 1261 -225 q 1267 -231 1267 -226 l 1267 -233 q 1261 -239 1267 -239 q 1253 -231 1257 -239 q 1259 -225 1254 -225 m 1373 -236 l 1373 -239 l 1381 -239 l 1381 -233 q 1373 -236 1375 -236 z "},"N":{"ha":1200,"x_min":0,"x_max":1120,"o":"m 304 1356 l 814 414 l 814 1356 l 1120 1356 l 1120 -673 l 307 637 l 307 -271 l 1 -271 l 0 1356 l 304 1356 m 903 1136 q 906 1125 906 1131 l 909 1125 l 909 1139 l 903 1136 m 898 1122 q 890 1106 898 1114 l 890 1103 l 895 1103 q 901 1114 895 1107 l 901 1122 l 898 1122 m 1069 1065 l 1069 1063 q 1074 1068 1074 1063 l 1074 1071 q 1069 1065 1069 1070 m 1061 1055 l 1061 1049 l 1069 1049 l 1069 1057 q 1061 1055 1063 1055 m 1050 1022 l 1050 1019 l 1055 1019 l 1055 1022 l 1050 1022 m 1001 965 l 1006 965 l 1006 970 q 1001 965 1001 970 m 996 954 l 996 946 l 998 946 l 998 954 l 996 954 m 990 935 l 990 932 q 996 938 996 932 l 996 941 q 990 935 990 940 m 1009 932 l 1009 930 l 1017 930 l 1017 932 l 1009 932 m 990 895 l 990 889 l 993 889 l 993 895 l 990 895 m 1101 884 l 1101 881 q 1107 876 1102 876 l 1107 878 q 1101 884 1107 884 m 1093 867 l 1093 862 q 1101 859 1096 862 l 1101 862 q 1096 867 1101 867 l 1093 867 m 977 862 l 977 859 l 982 859 l 982 862 l 977 862 m 1088 854 q 1080 832 1080 838 l 1080 829 l 1088 829 l 1085 843 l 1090 846 l 1096 843 l 1096 846 q 1088 854 1096 850 m 971 846 l 971 843 l 977 843 l 977 846 l 971 846 m 1066 802 q 1069 775 1069 779 l 1074 775 l 1072 781 l 1072 786 q 1080 791 1072 791 l 1077 797 l 1077 813 l 1074 813 q 1066 802 1067 813 m 1063 762 l 1063 759 l 1069 759 l 1069 762 l 1063 762 m 1055 743 l 1061 743 l 1061 748 q 1055 743 1055 747 m 1050 732 q 1042 713 1050 721 l 1042 710 q 1055 715 1050 715 q 1053 732 1053 720 l 1050 732 m 458 718 l 458 713 l 461 713 l 461 718 l 458 718 m 922 715 q 911 702 922 702 l 911 694 l 917 694 q 925 702 917 702 l 922 707 l 925 713 l 925 715 l 922 715 m 445 696 l 450 696 l 450 702 q 445 696 445 701 m 914 688 l 911 675 l 911 672 l 917 672 l 917 675 l 914 680 l 917 686 l 917 688 l 914 688 m 33 656 l 33 653 l 38 653 l 38 656 l 33 656 m 1015 656 q 1001 615 1009 627 q 1006 607 1006 615 l 1009 607 q 1017 626 1009 618 l 1012 634 l 1012 640 l 1020 650 q 1015 656 1020 656 m 22 642 l 22 640 l 24 640 q 30 645 30 640 l 30 648 l 27 648 q 22 642 22 647 m 16 637 l 16 631 l 19 631 l 19 637 l 16 637 m 876 615 q 865 580 876 600 l 865 574 q 871 569 866 569 q 884 599 884 597 q 879 615 879 599 l 876 615 m 922 612 l 922 604 l 925 604 l 925 612 l 922 612 m 990 596 l 990 591 l 1004 591 l 1004 596 l 998 593 l 996 593 l 990 596 m 928 585 q 941 561 928 568 l 944 561 q 949 572 944 565 l 949 580 q 939 588 939 580 l 933 588 l 928 585 m 993 583 q 974 555 993 576 q 982 539 982 543 q 998 577 985 539 l 998 583 l 993 583 m 1085 577 q 1082 569 1085 574 l 1088 569 l 1088 577 l 1085 577 m 1074 558 l 1069 558 l 1063 561 q 1055 528 1063 547 l 1058 528 q 1082 555 1071 528 l 1082 564 l 1074 558 m 830 539 l 830 531 q 846 517 846 531 l 854 517 q 865 528 854 528 q 854 536 865 535 l 836 534 q 830 539 836 539 m 1023 536 q 1015 515 1023 522 l 1015 512 q 1028 517 1021 517 l 1028 536 l 1023 536 m 914 531 q 930 523 914 523 q 933 531 933 528 l 914 531 m 960 520 l 960 501 q 947 474 947 486 q 974 498 966 498 l 977 498 q 963 520 977 512 l 960 520 m 1085 515 l 1085 509 l 1090 509 q 1085 515 1090 515 m 884 501 l 903 501 q 901 509 901 507 q 884 501 884 508 m 1034 509 l 1034 493 q 1042 509 1042 496 l 1034 509 m 852 504 q 844 498 852 498 l 844 490 q 863 471 844 486 q 879 493 863 493 q 882 501 879 496 q 852 504 862 501 m 903 498 q 895 479 903 488 q 936 452 916 479 l 936 444 l 930 436 l 936 428 l 933 414 l 939 412 q 947 422 939 422 q 941 447 941 440 q 947 452 947 447 l 947 455 l 944 469 l 936 463 q 930 469 930 463 l 930 488 q 903 498 927 488 m 1099 496 q 1096 488 1099 493 l 1107 488 l 1107 496 l 1099 496 m 1042 455 q 1036 466 1036 455 l 1034 466 l 1025 460 l 1012 460 q 1004 479 1006 460 q 1006 482 1006 479 l 996 490 l 985 490 l 985 482 q 998 474 998 480 l 998 463 q 990 439 990 453 l 990 417 q 998 422 991 417 l 1012 422 l 1025 412 q 1050 433 1025 427 q 1066 422 1053 433 l 1069 422 l 1069 436 l 1072 441 q 1063 450 1067 441 l 1072 455 l 1074 455 l 1080 452 q 1085 466 1080 457 q 1074 471 1074 466 q 1085 488 1074 488 q 1080 493 1085 493 q 1063 474 1063 488 q 1042 455 1063 472 m 1028 488 l 1028 482 l 1031 482 l 1031 488 l 1028 488 m 1090 471 l 1090 466 q 1107 458 1098 466 l 1107 469 l 1093 471 l 1090 471 m 841 466 q 830 452 841 452 l 830 436 q 841 420 838 420 l 857 422 q 860 420 857 420 q 863 431 860 426 q 846 439 846 431 l 846 441 l 854 452 q 841 466 848 464 m 963 466 l 963 460 l 966 460 l 966 466 l 963 466 m 1015 455 l 1017 455 q 1025 447 1021 455 q 1020 441 1025 441 l 1012 441 q 1006 447 1006 441 q 1015 455 1006 451 m 1034 450 l 1039 450 q 1044 444 1044 449 q 1025 428 1044 439 l 1023 433 q 1034 450 1030 450 m 1101 439 q 1088 425 1101 431 l 1080 414 l 1085 412 q 1090 417 1086 417 l 1093 417 l 1107 414 l 1107 433 q 1101 439 1107 439 m 892 433 l 892 431 l 898 422 l 898 414 l 895 409 l 898 409 q 914 414 909 414 q 917 412 914 412 q 920 417 917 417 q 917 433 917 421 l 892 433 m 722 412 l 722 409 l 727 409 l 727 412 l 722 412 m 757 406 l 765 401 q 768 404 765 404 q 765 412 765 409 l 762 412 q 757 406 757 411 m 854 406 l 854 401 l 857 401 l 857 406 l 854 406 m 1096 398 l 1099 385 q 1080 371 1099 381 l 1080 368 q 1090 355 1085 356 l 1093 355 q 1104 371 1093 363 q 1107 398 1104 374 l 1096 398 m 936 395 q 933 385 936 389 q 936 374 936 380 q 933 366 933 368 q 941 368 939 368 l 939 382 l 941 387 q 939 395 939 393 l 936 395 m 1047 385 l 1047 379 l 1063 379 l 1063 395 q 1047 385 1047 388 m 735 379 q 746 357 735 370 q 738 352 746 352 l 746 341 q 738 336 746 336 l 746 325 l 741 317 l 746 309 l 743 298 q 749 281 749 289 q 757 284 754 284 l 751 292 l 751 295 l 757 303 q 749 311 753 303 q 757 336 749 323 q 751 341 751 336 l 751 344 l 757 352 q 749 363 753 352 q 757 385 749 372 l 751 387 l 743 387 q 735 379 739 387 m 768 382 l 768 376 q 773 382 773 376 l 768 382 m 852 371 q 846 355 852 361 l 846 349 q 857 344 850 349 q 860 347 857 347 l 857 352 l 857 371 l 852 371 m 914 363 q 906 341 914 341 l 898 341 l 898 336 q 914 328 901 328 l 914 333 q 920 352 915 352 q 917 363 917 357 l 914 363 m 713 355 q 700 322 703 338 q 697 319 697 322 q 705 311 697 315 l 719 311 l 719 314 q 716 322 716 319 l 722 325 q 716 341 716 334 l 716 344 q 719 347 716 347 q 716 355 716 352 l 713 355 m 1082 344 q 1080 336 1082 341 q 1082 325 1082 331 l 1080 319 q 1090 311 1090 318 q 1099 314 1096 314 l 1093 322 l 1093 325 l 1099 333 l 1099 338 l 1093 336 l 1090 336 q 1085 344 1085 336 l 1082 344 m 849 333 l 846 314 l 846 306 q 860 317 859 309 q 854 333 854 317 l 849 333 m 1082 300 q 1080 260 1080 273 l 1080 254 l 1085 254 q 1088 265 1085 265 l 1085 271 l 1085 279 l 1099 300 q 1096 303 1096 300 q 1082 300 1091 300 m 659 290 q 651 271 656 279 l 656 262 l 651 254 l 651 252 q 659 254 656 254 l 659 279 l 665 287 l 659 290 m 909 281 l 909 279 l 914 279 l 914 281 l 909 281 m 898 265 l 898 262 l 914 262 l 914 265 l 898 265 m 846 257 l 846 254 q 854 252 849 254 l 854 257 l 846 257 m 651 238 l 656 230 l 651 222 l 659 222 l 659 246 q 651 238 655 246 m 895 246 l 895 230 l 898 230 l 898 246 l 895 246 m 1080 241 q 1077 238 1080 238 l 1080 233 l 1080 227 q 1077 224 1080 224 l 1080 219 q 1074 195 1077 199 l 1077 195 l 1088 200 l 1085 205 l 1085 214 q 1088 216 1085 216 l 1085 222 l 1085 230 l 1088 235 l 1080 241 m 920 211 q 911 200 920 200 q 920 192 911 196 q 925 211 920 203 l 920 211 m 279 203 l 252 168 q 266 159 257 168 q 274 165 266 165 l 274 178 q 288 197 286 188 l 293 197 l 293 203 l 279 203 m 651 176 l 651 170 l 654 170 l 654 176 l 651 176 m 648 154 l 654 154 l 654 159 q 648 154 648 159 m 654 151 q 648 140 654 147 l 648 138 l 656 138 l 656 151 l 654 151 m 860 132 l 860 127 l 863 127 l 863 132 l 860 132 m 914 124 l 911 100 l 920 100 l 917 113 q 920 116 917 116 q 917 124 917 121 l 914 124 m 184 24 l 176 10 l 182 10 q 193 21 182 21 l 193 24 l 184 24 m 873 -25 l 879 -25 l 879 -20 q 873 -25 873 -20 m 871 -44 l 871 -47 l 876 -55 q 871 -60 871 -56 l 871 -63 q 879 -71 871 -67 l 879 -47 q 871 -44 876 -47 m 857 -109 q 854 -220 854 -180 q 863 -237 863 -233 l 865 -237 l 865 -201 l 860 -193 l 860 -185 q 868 -134 868 -177 l 868 -101 q 857 -109 857 -105 m 109 -125 l 109 -128 l 114 -128 l 114 -125 l 109 -125 m 184 -155 l 184 -163 l 190 -163 l 190 -155 l 184 -155 m 174 -169 l 174 -177 l 179 -177 l 179 -169 l 174 -169 m 998 -172 l 998 -201 l 1006 -201 l 1009 -182 l 1009 -169 q 998 -172 1004 -172 m 149 -180 l 157 -180 l 157 -174 l 155 -174 q 149 -180 149 -175 m 130 -199 q 138 -207 138 -199 q 136 -215 136 -212 l 141 -215 q 155 -204 149 -204 l 155 -199 q 146 -182 146 -190 q 130 -199 142 -182 m 163 -182 l 163 -191 l 165 -191 q 168 -182 165 -188 l 163 -182 m 998 -223 q 996 -310 996 -281 l 1009 -310 l 1009 -237 l 1017 -226 q 1009 -220 1009 -223 q 998 -223 1004 -223 m 966 -229 l 966 -237 l 968 -237 l 968 -229 l 966 -229 m 288 -237 l 288 -239 l 293 -239 l 293 -237 l 288 -237 m 960 -248 l 968 -253 l 968 -242 l 966 -242 q 960 -248 960 -243 m 220 -256 l 220 -258 l 225 -258 l 225 -256 l 220 -256 m 960 -264 l 966 -264 l 966 -258 q 960 -264 960 -259 m 920 -277 l 920 -283 l 922 -283 l 922 -277 l 920 -277 m 911 -294 l 911 -296 q 922 -299 918 -296 q 925 -291 922 -296 l 922 -291 q 911 -294 918 -294 m 911 -310 q 920 -318 911 -314 l 925 -307 l 922 -307 q 911 -310 918 -310 m 920 -323 l 920 -329 l 922 -329 l 922 -323 l 920 -323 m 1020 -375 q 1023 -386 1023 -380 q 1020 -394 1020 -391 l 1023 -394 q 1036 -370 1036 -389 q 1034 -361 1034 -364 l 1031 -361 q 1020 -375 1025 -363 m 1020 -405 l 1020 -410 l 1025 -410 q 1020 -405 1025 -405 m 1020 -435 l 1017 -462 l 1017 -478 l 1015 -484 q 1020 -492 1020 -484 l 1025 -492 l 1023 -486 l 1023 -478 q 1025 -475 1023 -475 l 1023 -470 l 1023 -462 q 1025 -459 1023 -459 l 1023 -454 l 1023 -446 q 1025 -443 1023 -443 q 1023 -435 1023 -437 l 1020 -435 m 1042 -524 l 1042 -527 q 1072 -576 1047 -527 l 1074 -576 l 1074 -565 q 1069 -543 1074 -562 l 1069 -541 q 1082 -519 1076 -519 l 1085 -519 l 1085 -516 q 1074 -513 1074 -516 q 1042 -524 1052 -524 m 1085 -565 l 1090 -568 q 1082 -589 1090 -576 q 1107 -627 1097 -619 l 1107 -549 q 1085 -565 1085 -559 z "},"O":{"ha":1695,"x_min":0,"x_max":1628,"o":"m 798 1356 l 830 1356 q 1381 1128 1131 1356 q 1628 559 1628 874 l 1628 526 q 1400 -24 1628 226 q 830 -271 1145 -271 l 798 -271 q 445 -184 625 -271 q 429 -171 429 -174 l 741 138 q 814 133 806 133 q 1166 336 1034 133 q 1223 543 1223 435 q 1020 895 1223 763 q 814 952 921 952 q 461 749 593 952 q 404 543 404 649 q 556 225 404 358 q 640 174 612 183 l 640 168 q 347 -125 494 19 q 133 95 222 -39 q 0 526 0 304 l 0 559 q 228 1109 0 860 q 798 1356 482 1356 m 320 1166 q 307 1153 307 1156 l 307 1150 l 309 1150 q 326 1164 309 1157 l 326 1166 l 320 1166 m 285 1139 l 285 1131 q 296 1137 292 1137 l 296 1139 l 285 1139 m 274 1128 q 277 1115 277 1124 l 279 1115 q 285 1126 279 1119 l 285 1128 l 274 1128 m 252 1104 q 258 1099 258 1103 q 269 1101 262 1101 l 269 1109 l 258 1109 q 252 1104 252 1109 m 152 990 l 152 985 l 187 1025 q 193 1020 188 1020 q 209 1039 193 1034 q 214 1034 210 1034 q 220 1039 220 1034 q 214 1044 214 1039 l 214 1058 q 236 1080 214 1061 l 231 1080 q 160 996 160 1012 q 152 990 152 996 m 1185 1061 q 1164 1028 1183 1055 l 1164 1025 q 1188 1058 1166 1025 l 1188 1061 l 1185 1061 m 195 1020 l 195 1017 l 201 1017 l 201 1020 l 195 1020 m 1156 1017 q 1153 1009 1156 1015 l 1156 1009 l 1158 1015 l 1158 1017 l 1156 1017 m 1199 977 l 1202 977 q 1218 987 1218 984 l 1213 990 q 1199 977 1209 990 m 1191 963 l 1191 960 q 1196 966 1196 960 l 1196 968 q 1191 963 1191 968 m 149 952 l 157 952 l 157 958 l 155 958 q 149 952 149 957 m 133 949 q 125 939 133 939 l 127 925 l 130 925 q 144 941 130 941 l 144 949 l 133 949 m 111 922 q 106 917 111 917 l 109 911 q 103 906 109 906 l 106 901 l 106 892 l 100 892 l 95 895 q 90 882 90 886 q 95 876 95 881 l 95 865 l 92 860 q 106 852 97 860 l 122 852 l 122 849 q 119 841 119 844 l 122 841 l 141 846 l 141 854 l 136 854 l 127 849 l 122 852 l 125 865 l 125 876 q 109 871 116 871 q 103 876 103 871 l 103 887 q 125 903 109 903 l 119 911 l 119 914 l 122 920 q 111 922 116 920 m 231 860 l 231 857 l 236 857 l 236 860 l 231 860 m 71 844 l 71 836 q 90 811 90 823 l 95 811 q 98 822 95 817 l 81 836 l 71 844 m 1451 841 q 1446 827 1451 834 l 1446 825 l 1451 825 q 1457 838 1451 829 l 1451 841 m 1530 830 q 1519 811 1530 827 q 1525 806 1525 810 l 1525 792 l 1522 787 q 1535 781 1529 787 l 1538 781 l 1538 789 q 1533 798 1533 796 l 1533 803 q 1560 825 1533 822 l 1563 825 q 1557 830 1563 830 q 1538 825 1546 825 q 1533 830 1538 830 l 1530 830 m 1563 798 q 1565 776 1565 783 q 1533 760 1537 760 q 1541 749 1537 749 l 1549 749 q 1573 762 1549 762 l 1584 757 l 1584 762 q 1571 806 1576 771 q 1563 798 1567 806 m 79 803 l 79 798 l 81 798 l 81 803 l 79 803 m 1500 787 l 1500 779 q 1514 773 1507 779 l 1514 781 q 1500 787 1507 781 m 144 781 l 144 776 l 149 776 q 144 781 149 781 m 1240 776 l 1240 773 q 1245 779 1245 773 l 1245 781 q 1240 776 1240 781 m 46 768 q 57 765 57 768 q 71 768 62 768 l 71 773 q 62 779 62 773 q 46 768 46 772 m 184 762 l 193 762 l 193 768 l 190 768 q 184 762 184 767 m 103 738 l 117 738 l 117 762 q 103 738 103 762 m 157 741 l 157 732 q 176 749 176 746 l 176 760 q 157 741 164 757 m 1478 749 q 1465 722 1465 728 l 1473 716 q 1484 738 1473 724 l 1484 743 q 1478 749 1484 749 m 263 746 l 263 741 l 269 741 q 263 746 269 746 m 1560 746 q 1552 730 1560 730 l 1546 730 l 1541 732 q 1535 722 1541 722 l 1530 722 l 1522 727 q 1506 711 1520 727 q 1516 694 1506 707 l 1511 692 l 1508 697 l 1503 694 l 1497 694 l 1492 697 q 1473 681 1492 692 q 1468 670 1473 677 q 1492 665 1487 670 q 1500 667 1497 667 q 1503 665 1500 665 q 1508 675 1503 675 l 1506 681 q 1514 689 1506 685 l 1516 689 q 1522 684 1522 688 l 1522 678 l 1519 673 l 1522 673 l 1527 675 l 1525 681 l 1525 689 q 1530 694 1525 694 l 1538 694 q 1541 692 1541 694 q 1579 711 1548 692 l 1581 711 q 1560 746 1571 743 m 38 741 l 35 722 q 41 716 36 716 l 43 716 l 46 730 q 41 741 41 730 l 38 741 m 76 741 q 62 732 76 732 q 81 686 67 686 q 90 700 83 700 l 98 700 q 103 694 103 699 l 103 686 l 81 670 q 73 667 81 667 l 81 651 l 79 646 q 81 635 81 641 q 90 637 87 637 q 84 654 84 646 q 100 659 93 659 l 106 659 l 111 656 l 109 670 l 109 673 q 141 703 134 686 q 130 708 130 703 l 130 711 q 136 716 131 716 q 133 727 133 721 q 109 711 117 721 l 100 711 q 79 722 93 719 l 79 741 l 76 741 m 1427 741 q 1402 703 1418 715 q 1386 675 1402 695 q 1383 667 1386 673 l 1386 667 q 1411 684 1400 684 l 1408 689 q 1430 716 1408 712 l 1427 722 l 1427 724 l 1432 732 q 1430 741 1430 738 l 1427 741 m 144 713 l 144 708 l 146 708 l 146 713 l 144 713 m 1587 703 l 1598 703 l 1598 711 q 1587 703 1587 707 m 27 694 l 27 692 q 38 686 31 692 q 41 689 38 689 q 35 703 35 698 q 27 694 31 703 m 60 673 l 60 670 l 68 670 l 68 673 l 60 673 m 1552 673 q 1546 659 1552 666 l 1554 654 q 1568 673 1560 654 l 1552 673 m 393 665 l 393 656 l 396 656 l 396 665 l 393 665 m 1373 656 l 1373 651 l 1375 651 l 1375 656 l 1373 656 m 1495 637 l 1500 637 q 1511 646 1500 646 l 1511 654 q 1495 637 1495 654 m 22 648 l 19 643 l 27 643 q 22 648 27 648 m 1587 643 q 1590 627 1590 639 l 1592 627 l 1592 643 l 1587 643 m 27 640 q 16 618 27 629 l 16 610 l 14 578 l 27 578 q 33 572 33 577 l 33 570 q 14 532 26 532 l 14 518 q 35 551 22 518 q 46 564 37 551 l 41 572 l 41 575 q 46 581 41 581 q 33 605 44 596 l 33 608 q 41 616 33 612 l 54 616 l 54 618 q 27 640 54 622 m 1451 627 l 1457 627 l 1457 632 q 1451 627 1451 631 m 1443 624 l 1443 618 l 1446 618 l 1446 624 l 1443 624 m 1576 624 q 1535 589 1539 589 l 1535 586 l 1544 586 l 1554 594 l 1560 591 q 1565 605 1560 605 l 1571 602 l 1571 616 l 1576 616 l 1581 613 l 1581 618 q 1576 624 1581 624 m 1432 572 l 1438 572 l 1438 578 q 1432 572 1432 577 m 1476 521 l 1476 518 l 1487 518 q 1495 529 1488 529 l 1500 526 q 1506 540 1500 540 l 1511 537 q 1530 562 1511 555 l 1530 567 q 1525 572 1530 572 q 1481 521 1498 546 l 1476 521 m 1421 562 l 1427 562 l 1427 567 q 1421 562 1421 566 m 1573 559 l 1573 553 q 1584 548 1577 553 l 1584 564 q 1573 559 1577 559 m 1416 562 q 1411 551 1416 557 l 1413 551 q 1419 559 1419 551 l 1419 562 l 1416 562 m 1568 537 q 1565 529 1568 534 l 1568 529 q 1576 534 1568 534 l 1576 537 l 1568 537 m 1549 518 l 1557 518 l 1557 524 l 1554 524 q 1549 518 1549 523 m 1535 510 l 1535 507 l 1544 507 l 1544 513 q 1535 510 1538 510 m 1525 496 l 1530 496 l 1530 502 q 1525 496 1525 501 m 46 496 q 52 491 47 491 q 57 496 57 491 l 46 496 m 1584 458 l 1584 453 l 1587 453 l 1587 458 l 1584 458 m 1606 458 q 1595 445 1606 449 q 1584 437 1595 437 l 1584 431 l 1592 431 q 1609 448 1596 431 l 1609 458 l 1606 458 m 1573 448 l 1573 442 l 1576 442 l 1576 448 l 1573 448 m 84 437 q 81 426 84 431 l 87 426 l 87 437 l 84 437 m 1552 426 l 1552 420 l 1554 420 l 1554 426 l 1552 426 m 1576 426 q 1581 420 1577 420 l 1581 426 l 1576 426 m 412 404 l 412 399 l 415 399 l 415 404 l 412 404 m 81 391 l 81 388 l 87 388 l 87 391 l 81 391 m 71 388 q 68 385 71 385 q 71 377 71 380 l 81 377 q 71 388 81 381 m 388 382 q 382 372 388 372 l 382 363 l 385 363 q 393 374 387 374 q 391 382 391 380 l 388 382 m 57 363 q 52 369 57 369 l 38 350 q 43 342 43 350 q 41 334 41 336 q 62 345 58 345 l 60 350 q 71 355 60 355 l 65 363 q 76 366 70 366 q 68 374 76 370 l 57 363 m 1313 374 q 1318 369 1314 369 l 1318 374 l 1313 374 m 369 345 q 366 336 369 342 l 372 336 l 372 345 l 369 345 m 347 315 l 355 315 q 363 326 355 326 l 363 328 l 361 328 q 347 315 353 326 m 445 320 l 445 317 q 450 323 450 317 l 450 326 q 445 320 445 325 m 439 312 l 439 307 l 442 307 l 442 312 l 439 312 m 336 288 l 336 282 l 339 282 l 339 288 l 336 288 m 163 282 l 160 277 l 160 263 l 152 263 l 152 252 q 174 279 159 255 q 163 282 164 282 m 100 277 q 76 233 100 271 q 79 225 79 228 l 81 225 q 106 269 95 266 l 106 277 l 100 277 m 331 277 l 331 271 l 334 271 l 334 277 l 331 277 m 317 252 l 317 250 q 323 255 323 250 l 323 258 q 317 252 317 257 m 146 250 l 146 241 l 149 241 q 152 250 149 244 l 146 250 m 396 247 l 391 231 q 393 222 393 225 q 407 244 397 222 q 396 247 401 244 m 141 239 l 141 233 l 146 233 l 146 239 l 141 239 m 426 231 l 426 225 q 431 231 431 225 l 426 231 m 133 228 l 133 222 l 138 222 l 138 228 l 133 228 m 127 217 l 127 209 l 130 209 l 130 217 l 127 217 m 418 217 l 418 206 l 420 206 q 423 217 420 212 l 418 217 m 258 152 l 258 146 q 269 163 261 146 l 269 165 q 258 152 265 165 m 117 157 l 122 157 l 122 163 q 117 157 117 162 m 990 155 l 998 149 l 998 160 l 996 160 q 990 155 990 159 m 412 152 l 412 146 l 415 146 l 415 152 l 412 152 m 279 136 l 285 133 l 288 133 q 293 146 288 140 l 288 149 q 279 136 283 149 m 401 141 q 393 130 401 130 l 393 122 l 399 122 q 407 138 399 130 l 407 141 l 401 141 m 382 119 l 382 114 l 388 114 l 388 119 l 382 119 m 787 119 q 770 106 787 106 l 770 103 q 776 98 771 98 l 795 119 l 787 119 m 138 117 l 138 111 l 141 111 l 141 117 l 138 117 m 955 111 l 955 106 l 958 106 l 958 111 l 955 111 m 374 109 l 374 103 l 380 103 l 380 109 l 374 109 m 944 109 l 939 90 l 944 90 l 947 103 l 947 109 l 944 109 m 751 98 q 757 92 752 92 l 757 98 l 751 98 m 909 92 l 909 87 l 911 87 l 911 92 l 909 92 m 768 79 l 768 71 l 773 71 q 787 87 773 75 q 784 90 784 87 q 768 79 768 84 m 279 87 q 258 57 279 84 l 260 57 q 282 84 282 80 l 282 87 l 279 87 m 193 54 l 198 54 q 209 68 198 60 l 209 71 q 193 54 198 65 m 833 68 q 830 54 833 59 l 836 54 l 836 68 l 833 68 m 722 65 l 722 62 q 730 57 730 62 l 735 60 l 743 60 q 789 19 762 49 l 789 14 q 787 11 789 11 l 789 5 l 789 0 q 776 -24 776 -11 q 787 -33 787 -26 l 787 -35 q 762 -43 787 -43 l 768 -52 q 760 -60 768 -56 l 751 -54 l 749 -54 l 751 -60 l 751 -62 q 746 -68 751 -68 q 757 -84 751 -84 q 787 -52 757 -65 q 792 -38 787 -45 l 792 -33 l 784 -22 l 784 -19 q 795 -8 784 -15 l 800 -11 q 806 -5 801 -5 l 803 0 l 803 3 q 808 8 804 8 l 811 8 q 817 0 817 8 l 819 0 q 830 33 819 10 q 822 54 822 33 l 811 35 q 795 41 804 35 q 789 33 795 33 l 776 33 l 776 38 l 784 49 q 779 57 779 49 l 765 57 q 760 65 760 57 l 746 62 l 735 62 q 724 65 729 62 l 722 65 m 263 -30 l 258 -30 l 258 -24 l 252 -24 q 271 -43 252 -28 q 323 43 290 -33 q 263 -30 284 9 m 353 43 l 353 38 l 355 38 l 355 43 l 353 43 m 632 8 l 646 8 q 667 30 647 30 q 675 22 667 26 q 692 33 692 29 l 692 38 l 678 35 l 667 43 q 632 8 663 43 m 244 35 l 244 30 l 247 30 l 247 35 l 244 35 m 705 35 q 700 22 705 31 l 711 14 l 716 14 q 719 35 716 20 l 705 35 m 741 27 q 727 16 741 16 l 727 14 q 738 8 738 14 l 738 0 l 735 -14 q 746 -19 746 -14 l 746 -22 q 719 -33 746 -30 l 719 -41 q 735 -52 719 -44 l 743 -52 q 754 -24 743 -46 q 768 11 754 -8 l 762 11 q 751 -5 762 0 q 741 8 748 -5 l 741 14 q 743 24 741 20 l 743 27 l 741 27 m 884 14 l 887 8 l 887 5 q 873 -19 880 -2 q 865 -33 867 -19 l 882 -33 q 887 -27 887 -33 q 879 -19 883 -27 l 887 -14 l 890 -14 q 895 -19 895 -14 l 895 -24 l 892 -30 l 901 -30 l 898 -16 l 898 -14 q 914 -8 898 -8 l 914 0 q 909 5 914 5 l 901 0 l 895 8 l 895 14 l 901 22 l 895 24 l 884 14 m 811 19 l 814 14 l 808 11 l 806 16 l 811 19 m 700 -24 q 703 -35 703 -29 q 700 -38 700 -35 l 711 -38 l 711 -14 l 713 0 l 700 -24 m 608 -33 l 608 -35 q 610 -49 610 -40 l 613 -49 l 613 -41 q 610 -33 610 -35 l 608 -33 m 806 -41 l 803 -57 l 806 -57 q 819 -46 818 -52 l 819 -41 l 806 -41 m 293 -60 l 293 -62 q 304 -57 300 -57 l 304 -49 q 293 -60 300 -49 m 808 -122 l 806 -122 q 800 -114 800 -122 l 792 -114 q 779 -138 792 -120 l 779 -141 l 784 -149 l 784 -152 q 768 -174 774 -174 l 768 -179 q 776 -190 776 -179 l 781 -190 l 779 -184 q 792 -165 785 -167 q 789 -163 792 -163 q 795 -138 792 -138 l 792 -133 q 798 -127 793 -127 q 825 -144 798 -135 l 825 -149 l 830 -149 l 830 -141 l 827 -114 l 836 -109 l 838 -109 q 854 -122 848 -122 q 863 -119 860 -119 l 849 -106 q 865 -79 859 -98 l 873 -79 q 868 -73 873 -73 l 860 -79 l 857 -79 q 849 -71 853 -79 l 849 -60 l 852 -54 l 846 -52 q 822 -106 832 -52 q 808 -122 812 -122 m 979 -54 l 979 -57 l 985 -57 l 985 -54 l 979 -54 m 363 -57 q 350 -71 363 -71 q 347 -68 350 -68 l 328 -92 l 328 -95 q 342 -103 333 -95 q 366 -68 342 -94 l 369 -57 l 363 -57 m 648 -62 l 648 -68 q 659 -65 653 -65 l 659 -62 l 648 -62 m 556 -65 q 570 -79 559 -79 q 578 -76 575 -76 l 578 -65 q 570 -68 572 -68 l 556 -65 m 627 -65 l 627 -71 l 632 -71 l 632 -65 l 627 -65 m 673 -68 l 673 -76 l 675 -76 l 675 -68 l 673 -68 m 1009 -73 l 1009 -76 l 1017 -76 l 1017 -71 q 1009 -73 1012 -73 m 591 -84 l 591 -87 l 594 -87 q 602 -84 600 -84 l 602 -79 l 597 -79 q 591 -84 591 -79 m 844 -76 l 852 -76 l 852 -84 q 846 -90 852 -90 l 844 -90 q 838 -84 838 -90 l 838 -81 q 844 -76 839 -76 m 610 -87 l 610 -103 l 613 -103 l 613 -87 l 610 -87 m 640 -103 q 656 -117 656 -103 l 659 -117 l 665 -98 l 665 -95 q 659 -90 665 -90 l 651 -90 q 640 -103 648 -90 m 540 -111 l 540 -114 l 545 -114 q 564 -106 545 -106 q 553 -92 557 -92 l 543 -111 l 540 -111 m 838 -92 l 841 -92 l 841 -95 q 836 -100 841 -100 l 833 -95 l 838 -92 m 510 -114 q 521 -119 514 -114 l 518 -138 l 518 -144 l 524 -144 q 534 -114 524 -125 q 526 -100 526 -105 l 524 -100 q 510 -114 520 -100 m 732 -100 l 732 -106 l 735 -106 l 735 -100 l 732 -100 m 570 -109 l 570 -111 l 575 -111 l 575 -109 l 570 -109 m 892 -114 q 898 -119 893 -119 q 901 -117 898 -117 q 898 -109 898 -111 q 892 -114 892 -109 m 700 -125 q 697 -127 700 -127 l 700 -133 l 700 -136 q 689 -155 692 -155 l 684 -155 q 662 -149 665 -149 l 659 -149 q 654 -160 659 -153 l 654 -163 q 665 -171 665 -163 l 673 -171 q 689 -160 673 -162 q 711 -146 694 -151 l 713 -130 q 700 -125 713 -125 m 871 -127 q 865 -138 871 -132 l 865 -144 l 876 -144 l 876 -133 q 871 -127 876 -127 m 966 -127 l 966 -133 l 968 -133 l 968 -127 l 966 -127 m 618 -141 q 635 -146 627 -146 l 640 -138 q 637 -130 637 -133 q 618 -141 618 -138 m 825 -127 l 827 -133 q 822 -138 827 -138 l 819 -133 q 825 -127 820 -127 m 480 -144 l 496 -141 l 496 -138 q 491 -133 496 -133 q 480 -144 487 -133 m 722 -141 q 724 -149 724 -146 l 732 -149 q 727 -138 727 -142 l 722 -141 m 521 -157 l 521 -160 q 532 -171 521 -164 q 543 -163 532 -163 l 540 -157 l 540 -155 q 548 -149 540 -149 l 548 -141 l 543 -141 q 526 -157 539 -141 l 521 -157 m 513 -146 l 513 -152 l 515 -152 l 515 -146 l 513 -146 m 735 -155 q 732 -163 735 -163 q 738 -193 735 -167 q 727 -198 731 -198 l 716 -193 q 700 -212 716 -212 l 697 -217 q 703 -222 703 -218 l 697 -225 q 692 -220 697 -220 l 684 -220 q 708 -244 684 -224 l 708 -250 l 711 -250 q 724 -231 711 -240 q 741 -255 741 -231 l 746 -255 q 749 -236 746 -247 q 730 -212 739 -220 l 730 -206 q 743 -176 739 -199 l 751 -176 q 735 -155 739 -155 m 914 -155 q 890 -184 914 -165 q 868 -201 890 -201 l 863 -193 l 863 -190 q 873 -168 873 -178 l 873 -163 q 841 -187 854 -182 l 833 -201 q 844 -209 844 -201 l 841 -228 q 849 -244 849 -231 q 846 -252 846 -250 l 854 -258 l 860 -258 q 871 -222 863 -222 l 879 -222 q 898 -233 891 -233 l 898 -228 q 884 -220 884 -228 q 901 -187 884 -195 q 906 -182 901 -182 l 909 -182 q 917 -190 913 -182 l 911 -198 q 914 -206 914 -203 q 909 -212 909 -207 l 914 -212 q 936 -201 914 -202 l 936 -193 q 917 -174 931 -193 l 917 -171 l 925 -160 q 920 -155 925 -155 l 914 -155 m 567 -160 l 567 -163 q 581 -168 574 -163 l 583 -168 l 583 -165 q 575 -157 575 -165 q 567 -160 570 -160 m 944 -157 l 941 -171 l 947 -171 q 955 -160 947 -160 l 960 -163 l 963 -163 l 963 -160 l 949 -157 l 944 -157 m 548 -163 q 553 -179 553 -169 l 556 -179 l 556 -165 q 548 -163 551 -163 m 461 -174 l 467 -174 l 467 -168 q 461 -174 461 -169 m 692 -168 q 689 -176 692 -171 l 700 -176 q 697 -168 697 -171 l 692 -168 m 496 -179 q 486 -184 496 -184 q 505 -195 486 -189 l 505 -187 q 496 -179 505 -183 m 570 -198 l 570 -203 q 578 -209 578 -203 l 578 -212 q 567 -217 578 -217 l 567 -220 l 570 -220 q 594 -217 585 -217 l 594 -203 q 602 -195 594 -199 l 594 -179 q 578 -193 578 -179 q 570 -198 578 -198 m 700 -179 l 700 -187 l 703 -187 l 703 -179 l 700 -179 m 939 -182 q 960 -190 939 -187 l 960 -187 l 955 -179 l 939 -182 m 990 -182 l 979 -206 l 979 -209 l 982 -209 q 1001 -195 982 -201 q 1004 -184 1001 -189 l 998 -182 l 990 -182 m 529 -184 l 521 -195 l 521 -203 q 540 -206 532 -206 q 548 -193 540 -201 q 540 -184 540 -193 l 534 -187 l 529 -184 m 689 -201 l 694 -201 l 694 -195 q 689 -201 689 -196 m 1072 -212 l 1072 -214 l 1074 -214 q 1088 -195 1088 -210 q 1072 -212 1082 -196 m 960 -198 q 958 -201 960 -201 l 960 -206 l 960 -220 l 933 -236 q 955 -244 937 -236 q 1001 -236 965 -244 l 1001 -233 q 979 -225 991 -233 q 971 -239 979 -239 l 968 -239 q 960 -231 964 -239 q 974 -217 960 -228 q 979 -222 975 -222 q 982 -220 979 -220 q 960 -198 981 -213 m 665 -203 l 659 -203 l 662 -217 q 684 -201 677 -214 l 665 -203 m 825 -201 q 808 -244 813 -244 l 806 -244 q 789 -228 789 -239 q 776 -236 781 -236 q 781 -258 778 -258 q 806 -255 791 -258 l 830 -255 l 833 -250 q 817 -241 817 -250 l 817 -231 q 830 -201 826 -223 l 825 -201 m 757 -212 l 762 -214 l 762 -206 q 757 -212 757 -207 m 553 -214 q 562 -217 556 -214 l 562 -209 l 559 -209 q 553 -214 553 -210 m 860 -212 l 863 -217 q 857 -222 863 -222 l 854 -217 q 860 -212 855 -212 m 640 -220 l 640 -222 q 659 -228 653 -222 q 662 -220 659 -225 q 651 -217 651 -220 q 640 -220 646 -220 m 613 -220 l 608 -228 l 610 -228 q 618 -225 616 -225 q 613 -220 618 -220 m 727 -217 l 730 -222 l 724 -225 l 722 -220 l 727 -217 m 898 -239 q 884 -250 898 -250 l 884 -255 l 898 -255 l 901 -241 l 901 -239 l 898 -239 z "},"P":{"ha":1099,"x_min":0,"x_max":1020,"o":"m 613 1356 q 909 1212 774 1356 q 1020 846 1020 1078 q 760 371 1020 492 q 613 338 675 338 l 312 338 q 307 333 307 338 l 307 -171 l 0 -271 l 0 1356 l 613 1356 m 16 1342 l 16 1310 l 19 1310 q 30 1329 19 1316 q 35 1339 30 1333 l 35 1342 l 16 1342 m 296 1342 l 296 1339 l 309 1339 l 309 1342 l 296 1342 m 548 1342 l 548 1339 l 553 1339 l 553 1342 l 548 1342 m 572 1339 q 567 1329 572 1335 l 567 1323 q 581 1339 575 1325 l 572 1339 m 317 1334 l 317 1329 l 320 1329 l 320 1334 l 317 1334 m 659 1331 l 659 1323 l 667 1323 q 678 1329 674 1329 l 678 1334 q 659 1331 667 1331 m 361 1326 l 361 1310 q 374 1312 366 1312 l 374 1318 q 363 1323 363 1318 q 372 1326 369 1326 l 372 1331 l 366 1331 q 361 1326 361 1331 m 98 1326 q 100 1318 100 1320 l 103 1318 l 103 1326 l 98 1326 m 692 1315 l 697 1315 l 697 1320 q 692 1315 692 1320 m 716 1320 l 716 1315 l 722 1315 l 722 1320 l 716 1320 m 73 1310 q 71 1301 73 1307 l 79 1301 l 79 1304 q 73 1310 79 1310 m 537 1304 l 540 1304 q 545 1310 545 1304 l 543 1310 q 537 1304 537 1309 m 770 1301 q 762 1280 762 1288 q 768 1274 768 1280 q 776 1277 773 1277 l 776 1280 l 768 1280 l 768 1285 q 773 1291 768 1291 q 776 1282 776 1285 l 781 1285 q 770 1301 776 1301 m 68 1299 l 68 1291 l 71 1291 l 71 1299 l 68 1299 m 312 1291 l 312 1288 l 317 1288 l 317 1291 l 312 1291 m 488 1282 q 483 1261 483 1269 q 488 1255 488 1261 l 491 1255 l 491 1258 q 488 1266 488 1263 l 491 1280 l 491 1282 l 488 1282 m 396 1272 l 396 1269 l 401 1269 l 401 1272 l 396 1272 m 814 1272 l 814 1269 l 822 1269 l 822 1272 l 814 1272 m 385 1258 l 391 1258 q 396 1263 396 1258 l 396 1266 l 393 1266 q 385 1258 389 1266 m 741 1263 l 741 1261 l 749 1261 l 749 1263 l 741 1263 m 806 1261 l 806 1258 l 811 1258 l 811 1261 l 806 1261 m 738 1258 l 738 1253 l 741 1253 l 741 1258 l 738 1258 m 380 1250 l 380 1247 q 385 1253 385 1247 l 385 1255 q 380 1250 380 1255 m 477 1255 q 472 1247 477 1247 q 475 1239 475 1242 l 477 1239 q 483 1247 477 1247 q 480 1255 480 1253 l 477 1255 m 806 1244 l 806 1242 l 814 1242 q 822 1255 819 1242 l 819 1255 q 806 1244 811 1244 m 19 1250 l 16 1239 l 24 1239 l 24 1250 l 19 1250 m 266 1244 l 266 1239 q 271 1244 271 1239 l 266 1244 m 722 1244 l 722 1242 l 727 1242 l 727 1244 l 722 1244 m 92 1236 l 92 1228 l 95 1228 l 95 1236 l 92 1236 m 258 1217 l 258 1215 l 260 1215 q 269 1228 260 1222 q 266 1236 266 1234 q 258 1217 260 1236 m 448 1236 q 429 1209 429 1214 l 429 1204 l 431 1204 l 453 1220 l 450 1225 l 450 1231 l 453 1236 l 448 1236 m 713 1236 l 713 1231 l 719 1231 l 719 1236 l 713 1236 m 724 1171 l 724 1168 q 730 1147 730 1149 q 724 1141 724 1146 q 730 1136 725 1136 q 741 1147 730 1143 q 765 1185 741 1164 q 795 1225 777 1194 l 795 1231 q 751 1193 783 1231 l 724 1171 m 307 1187 l 307 1185 l 309 1185 q 331 1201 309 1194 l 328 1206 l 328 1212 q 331 1215 328 1215 q 328 1228 328 1219 q 307 1187 321 1228 m 844 1182 l 846 1168 l 846 1155 l 852 1155 q 865 1166 852 1163 q 871 1171 866 1171 q 882 1160 871 1167 l 882 1166 l 876 1174 q 879 1177 876 1177 q 868 1193 879 1179 q 844 1182 862 1192 m 903 1193 l 895 1179 l 906 1179 l 909 1190 l 903 1193 m 122 1187 l 122 1182 l 125 1182 l 125 1187 l 122 1187 m 90 1185 l 90 1177 l 95 1177 q 92 1185 92 1182 l 90 1185 m 339 1177 l 345 1177 l 345 1182 q 339 1177 339 1181 m 195 1177 l 193 1171 l 193 1163 q 214 1158 206 1163 q 220 1174 214 1168 q 217 1177 217 1174 l 203 1174 q 195 1177 198 1177 m 263 1177 l 263 1160 q 269 1166 269 1160 q 266 1177 266 1171 l 263 1177 m 917 1168 l 917 1166 l 922 1166 l 922 1168 l 917 1168 m 49 1163 q 33 1128 49 1128 l 35 1122 l 35 1120 l 33 1114 l 43 1112 l 43 1114 l 38 1122 l 38 1128 q 52 1147 52 1128 l 54 1147 q 57 1131 57 1143 l 65 1131 l 60 1139 l 60 1144 l 62 1149 q 52 1163 52 1149 l 49 1163 m 100 1155 l 100 1152 l 106 1152 l 106 1155 l 100 1155 m 817 1139 l 817 1133 l 819 1133 q 841 1149 831 1133 l 838 1149 q 817 1139 833 1149 m 307 1144 q 296 1120 296 1130 q 298 1112 298 1114 l 307 1112 l 301 1120 q 307 1125 302 1125 l 312 1122 l 312 1125 q 309 1133 309 1131 q 312 1141 312 1139 l 307 1144 m 827 1112 l 838 1112 q 849 1125 838 1122 l 863 1141 l 868 1141 l 868 1144 l 863 1144 q 827 1112 856 1144 m 911 1098 l 911 1093 q 944 1125 917 1093 l 944 1131 q 911 1098 940 1131 m 46 1125 l 46 1122 l 54 1122 l 54 1125 l 46 1125 m 16 1120 l 16 1084 l 19 1084 q 22 1098 19 1093 q 19 1106 19 1103 l 22 1112 q 19 1120 19 1117 l 16 1120 m 730 1120 q 724 1109 730 1116 l 724 1103 l 727 1103 q 735 1112 729 1103 q 732 1120 732 1117 l 730 1120 m 355 1101 l 355 1093 l 358 1093 q 372 1112 372 1101 l 369 1112 q 355 1101 361 1101 m 288 1106 l 288 1103 l 296 1103 l 296 1106 l 288 1106 m 955 1101 q 941 1074 941 1081 q 963 1093 950 1075 q 960 1101 960 1098 l 955 1101 m 277 1098 l 277 1095 l 285 1095 l 285 1098 l 277 1098 m 336 1098 l 336 1090 l 342 1090 l 342 1098 l 336 1098 m 803 1090 l 803 1087 l 811 1087 l 811 1095 l 808 1095 q 803 1090 803 1095 m 868 1093 q 860 1084 868 1084 l 860 1079 l 865 1079 q 873 1087 865 1087 l 873 1093 l 868 1093 m 719 1052 l 722 1052 q 749 1076 736 1069 l 751 1087 q 749 1090 749 1087 q 719 1060 733 1090 l 719 1052 m 890 1074 l 898 1068 l 909 1068 l 906 1087 q 909 1090 909 1087 l 901 1090 q 890 1074 890 1084 m 241 1074 l 241 1065 l 244 1065 l 244 1074 l 241 1074 m 773 1071 q 776 1063 776 1065 q 789 1065 781 1065 l 789 1074 l 787 1074 l 773 1071 m 849 1074 q 841 1065 849 1065 l 841 1060 l 846 1060 q 854 1068 846 1068 l 854 1074 l 849 1074 m 326 1071 q 323 1063 326 1068 l 331 1063 l 331 1071 l 326 1071 m 152 1068 q 138 1046 144 1046 q 141 1038 141 1041 q 138 1030 138 1033 q 144 1022 144 1030 l 146 1022 q 155 1065 155 1061 l 155 1068 l 152 1068 m 917 1011 l 909 1011 l 898 1019 q 892 1014 892 1019 l 892 1008 l 909 1003 q 914 1008 909 1008 l 928 1006 q 949 1025 928 1025 l 947 1030 q 977 1055 977 1052 q 974 1065 974 1059 q 917 1011 969 1065 m 833 1030 l 833 1025 q 841 1022 836 1025 q 857 1038 842 1038 q 863 1049 857 1049 l 871 1049 l 876 1046 l 876 1063 q 857 1049 865 1063 q 836 1030 852 1049 l 833 1030 m 239 1060 l 239 1055 l 241 1055 l 241 1060 l 239 1060 m 309 1049 l 309 645 l 507 645 q 700 767 644 645 q 713 848 713 812 q 581 1036 713 989 q 480 1049 540 1049 l 309 1049 m 727 1019 l 727 1017 q 760 1046 731 1017 l 760 1049 q 727 1019 755 1049 m 819 1046 l 819 1038 l 825 1038 l 825 1046 l 819 1046 m 260 979 l 263 979 q 282 995 282 992 l 274 1011 l 274 1017 l 279 1017 l 279 1027 q 260 979 260 1004 m 68 1003 l 73 1003 q 79 1017 73 1010 l 79 1019 q 68 1003 73 1019 m 798 998 l 806 992 q 814 1000 806 996 l 817 1000 l 822 998 q 830 1006 822 1000 q 825 1019 830 1019 q 798 998 798 1019 m 971 1003 l 971 998 q 977 987 977 991 q 990 998 989 992 l 990 1008 l 982 1008 q 971 1003 975 1003 m 90 981 q 81 962 84 962 q 84 951 84 958 l 87 951 q 100 981 100 978 l 90 981 m 939 965 l 939 949 l 941 949 q 966 970 941 956 l 960 979 q 939 965 939 971 m 27 965 l 27 962 l 33 962 l 33 965 l 27 965 m 252 941 q 269 932 252 935 l 269 938 q 260 943 260 938 q 252 941 255 941 m 982 930 l 979 930 l 974 932 q 968 919 974 919 l 966 919 l 960 922 q 952 913 960 913 l 952 905 l 958 908 q 966 900 962 908 l 966 876 q 974 873 968 876 q 990 900 974 900 q 1004 905 990 905 l 1001 938 l 993 938 l 982 930 m 231 927 l 231 919 q 239 916 233 919 l 241 932 q 231 927 235 927 m 81 927 l 81 919 l 84 919 q 87 927 84 922 l 81 927 m 985 919 q 990 913 990 918 l 990 908 q 985 903 990 903 l 977 903 l 977 911 q 985 919 977 915 m 258 913 q 250 900 258 909 q 255 895 250 895 l 260 895 q 269 903 260 903 l 269 913 l 258 913 m 884 862 l 884 857 l 898 859 l 909 854 q 917 857 914 857 l 917 859 q 906 867 906 859 q 928 897 906 882 q 939 905 928 905 l 939 911 q 892 867 912 904 q 884 862 892 862 m 930 895 q 928 884 930 888 l 930 884 q 939 892 935 884 l 939 895 l 930 895 m 43 873 l 43 867 l 46 867 l 46 873 l 43 873 m 990 870 l 990 867 l 1001 867 l 1001 870 l 990 870 m 263 865 l 263 859 q 269 865 269 859 l 263 865 m 944 859 l 944 854 l 947 854 l 947 859 l 944 859 m 255 857 l 255 854 q 260 848 256 848 l 260 857 l 255 857 m 998 840 l 998 821 q 979 789 998 811 l 985 789 l 985 794 l 996 794 q 1001 786 1001 794 l 1004 786 l 1004 789 l 1001 794 q 1004 819 1004 809 l 1001 829 q 1004 840 1004 834 l 998 840 m 233 813 l 233 808 l 236 808 l 236 813 l 233 813 m 16 802 l 16 794 l 19 794 l 19 802 l 16 802 m 909 802 l 909 797 l 911 797 l 911 802 l 909 802 m 293 794 l 293 789 l 296 789 l 296 794 l 293 794 m 903 794 l 903 789 l 906 789 l 906 794 l 903 794 m 293 786 l 293 772 l 296 772 l 296 786 l 293 786 m 138 778 l 138 772 l 141 772 q 146 778 146 772 l 146 783 l 144 783 q 138 778 138 783 m 977 778 q 960 759 960 762 l 960 756 q 996 764 969 764 l 996 767 l 977 778 m 127 767 l 127 764 q 133 759 128 759 l 136 759 l 136 767 l 127 767 m 16 751 l 16 745 q 33 713 31 730 l 41 718 q 16 751 29 751 m 182 751 q 179 743 182 748 q 184 734 182 734 q 193 737 190 737 l 193 748 q 182 751 186 748 m 111 743 l 111 734 l 117 734 q 114 743 114 740 l 111 743 m 16 707 l 16 691 q 22 669 22 672 q 16 664 16 669 l 16 656 l 22 659 l 35 659 q 38 664 35 664 l 35 669 q 41 675 36 675 l 46 672 l 52 680 q 41 691 41 683 l 35 688 l 30 688 q 22 707 24 688 l 16 707 m 41 702 l 41 696 l 43 696 l 43 702 l 41 702 m 190 686 l 190 680 l 198 680 q 193 686 198 686 l 190 686 m 203 677 q 214 650 211 650 q 220 659 220 650 l 217 664 l 222 675 q 212 683 212 679 q 203 677 203 680 m 73 680 l 73 672 l 79 672 q 76 680 76 677 l 73 680 m 79 661 q 76 653 79 659 l 81 653 l 81 661 l 79 661 m 125 661 l 125 659 q 127 648 127 654 q 114 634 124 648 l 111 634 l 111 629 q 125 610 120 629 q 133 607 130 607 l 133 615 l 136 629 q 125 634 125 629 l 125 642 q 136 648 125 648 q 125 661 129 661 m 146 661 l 141 645 q 165 621 141 640 q 182 634 165 634 l 184 648 l 184 653 l 174 653 l 174 640 q 168 634 174 634 l 155 634 q 149 640 149 634 l 149 653 l 155 661 l 146 661 m 27 634 q 19 642 27 638 l 16 642 l 16 618 q 30 607 16 614 l 33 607 l 41 612 l 41 610 l 54 618 l 65 618 q 68 615 68 618 l 73 618 l 79 618 l 84 615 l 84 621 q 54 645 70 621 l 54 648 l 60 656 l 54 656 q 38 637 51 656 q 27 634 33 634 m 98 645 l 98 637 l 103 637 l 106 650 l 103 650 q 98 645 98 650 m 35 629 l 43 629 q 49 623 49 628 q 41 615 49 619 l 35 615 q 30 621 30 615 l 30 623 q 35 629 31 629 m 46 583 l 41 583 q 19 591 33 583 l 19 588 q 33 566 33 574 l 35 566 q 54 585 35 574 q 62 583 60 583 q 92 593 65 593 l 92 599 q 81 607 92 606 q 68 593 78 607 q 46 583 60 593 m 138 599 q 125 588 138 588 l 125 585 q 149 580 145 580 q 152 588 149 583 q 144 599 145 588 l 138 599 m 98 580 l 98 574 l 100 574 l 100 580 l 98 580 m 171 580 q 155 572 171 572 l 165 558 l 165 553 q 141 536 165 549 l 141 534 q 155 520 141 530 l 157 520 l 157 523 q 149 528 149 523 l 149 536 q 174 545 149 541 q 187 566 177 566 l 187 574 l 171 580 m 136 564 q 130 553 136 559 l 141 553 l 141 558 q 136 564 141 564 m 68 561 q 57 555 68 555 l 65 545 q 54 536 65 536 l 54 534 q 71 526 71 534 l 71 517 q 49 493 49 504 q 71 507 71 502 l 76 504 q 95 520 95 513 q 100 526 100 520 l 100 536 q 73 558 78 536 l 68 561 m 133 504 q 130 501 133 501 l 133 488 l 133 485 l 130 479 l 136 479 q 144 501 136 486 l 133 504 m 111 498 q 90 485 111 488 q 79 469 81 479 l 103 477 q 111 474 109 474 l 111 490 q 119 496 111 496 l 119 498 l 111 498 m 84 425 l 84 422 l 95 420 q 114 450 105 433 q 111 460 111 454 q 95 425 98 460 l 84 425 m 30 441 q 19 428 30 436 l 19 425 q 35 433 30 433 l 35 441 l 30 441 m 46 436 q 52 422 52 429 l 54 422 l 65 431 q 62 439 62 436 l 46 436 m 79 414 q 68 401 79 405 l 65 390 l 68 390 q 84 404 80 393 q 81 414 81 408 l 79 414 m 43 92 l 43 86 l 46 86 l 46 92 l 43 92 m 16 73 l 16 62 l 19 62 l 19 73 l 16 73 m 27 -79 l 33 -79 q 43 -60 40 -79 l 41 -60 q 27 -79 37 -60 m 16 -204 l 16 -210 q 24 -212 19 -210 q 43 -182 33 -182 l 57 -161 l 57 -158 l 54 -158 q 30 -188 37 -164 q 16 -204 26 -188 z "},"Q":{"ha":1695,"x_min":0,"x_max":1628,"o":"m 798 1356 l 830 1356 q 1381 1128 1131 1356 q 1628 558 1628 873 l 1628 526 q 1522 135 1628 332 l 1628 135 l 1628 -271 l 798 -272 q 445 -185 625 -272 q 429 -172 429 -174 l 741 138 q 814 132 806 132 q 1166 336 1034 132 q 1223 542 1223 435 q 1020 895 1223 762 q 814 951 921 951 q 461 748 593 951 q 404 542 404 648 q 556 224 404 357 q 640 173 612 182 l 640 168 q 347 -125 494 18 q 133 94 222 -39 q 0 526 0 303 l 0 558 q 228 1109 0 859 q 798 1356 482 1356 m 833 1337 l 833 1339 q 819 1334 824 1334 q 817 1337 819 1337 q 808 1329 817 1333 q 806 1331 806 1329 q 770 1318 773 1318 l 770 1320 q 757 1315 762 1315 q 751 1320 757 1320 q 713 1307 751 1317 q 662 1296 669 1296 l 662 1293 q 678 1291 674 1293 q 716 1301 678 1297 q 719 1293 719 1296 l 724 1293 l 732 1299 q 741 1296 738 1296 q 746 1301 741 1301 l 751 1299 q 803 1315 751 1303 q 806 1312 803 1312 q 811 1318 806 1318 l 814 1318 l 819 1315 q 825 1323 819 1323 l 827 1323 l 833 1320 q 838 1326 833 1326 l 841 1326 l 846 1323 q 854 1329 846 1329 l 868 1320 q 892 1329 868 1326 l 892 1331 q 854 1342 892 1340 q 846 1339 849 1339 l 846 1342 q 833 1337 838 1337 m 963 1329 l 958 1310 q 966 1323 964 1310 l 966 1329 l 963 1329 m 553 1299 l 553 1296 l 564 1296 q 613 1307 578 1296 q 610 1315 610 1312 l 553 1299 m 941 1307 l 941 1301 l 947 1301 q 941 1307 947 1307 m 1034 1296 q 1042 1288 1034 1292 l 1044 1293 l 1034 1296 m 640 1285 l 643 1285 q 659 1293 659 1288 l 656 1293 q 640 1285 640 1291 m 825 1253 l 825 1239 q 846 1234 838 1239 q 873 1242 868 1242 q 871 1250 871 1247 q 960 1282 871 1263 l 960 1288 l 947 1285 q 944 1288 947 1288 q 939 1282 944 1282 l 936 1282 q 925 1293 933 1282 q 846 1263 846 1280 q 825 1253 825 1258 m 1023 1282 l 1023 1280 l 1028 1280 l 1028 1282 l 1023 1282 m 996 1272 q 1004 1269 998 1272 q 1017 1277 1004 1276 l 1017 1280 l 1015 1280 q 996 1272 996 1277 m 958 1250 l 955 1250 l 949 1253 q 944 1247 949 1247 l 941 1247 l 936 1250 l 936 1247 q 941 1236 941 1240 q 996 1258 996 1244 q 987 1266 991 1258 q 993 1272 993 1266 l 985 1272 l 966 1263 q 958 1250 966 1250 m 1004 1263 q 1001 1255 1004 1261 l 1004 1255 q 1009 1261 1009 1255 l 1004 1263 m 711 1258 l 711 1255 l 716 1255 l 716 1258 l 711 1258 m 673 1250 l 673 1244 l 675 1244 l 675 1250 l 673 1250 m 526 1244 l 526 1239 l 529 1239 l 529 1244 l 526 1244 m 1115 1239 l 1115 1234 l 1118 1234 l 1118 1239 l 1115 1239 m 515 1231 l 521 1231 l 521 1236 q 515 1231 515 1236 m 648 1231 l 654 1231 l 654 1236 q 648 1231 648 1236 m 404 1231 l 404 1225 l 407 1225 l 407 1231 l 404 1231 m 979 1223 l 979 1220 l 985 1220 l 985 1223 l 979 1223 m 963 1217 l 963 1212 l 971 1212 l 971 1217 l 963 1217 m 949 1215 l 949 1209 l 955 1209 l 955 1215 l 949 1215 m 939 1209 q 928 1201 939 1201 l 928 1196 l 947 1198 l 947 1201 q 939 1209 947 1205 m 703 1187 l 708 1187 l 722 1190 l 722 1196 q 703 1187 703 1193 m 949 1185 l 949 1182 q 955 1179 955 1182 q 963 1182 960 1182 l 963 1187 q 949 1185 958 1185 m 667 1177 l 670 1177 q 675 1182 675 1177 l 673 1182 q 667 1177 667 1181 m 781 1171 l 781 1168 l 789 1168 l 789 1171 l 781 1171 m 1004 1163 l 1009 1163 l 1009 1168 q 1004 1163 1004 1168 m 567 1147 l 567 1144 q 572 1139 568 1139 l 575 1144 q 567 1147 572 1144 m 811 1133 l 811 1128 l 814 1128 q 833 1141 828 1141 l 833 1147 l 830 1147 q 819 1136 826 1147 q 811 1133 814 1133 m 760 1139 l 760 1131 q 765 1136 765 1131 l 765 1139 l 760 1139 m 719 1114 l 719 1109 q 724 1103 720 1103 q 746 1114 724 1107 q 757 1128 746 1116 q 751 1136 751 1128 q 724 1114 739 1136 l 719 1114 m 911 1136 l 911 1133 l 920 1133 l 920 1136 l 911 1136 m 882 1125 q 887 1120 882 1120 l 895 1120 q 906 1133 899 1120 l 903 1133 q 882 1125 888 1125 m 532 1128 l 532 1125 l 537 1125 l 537 1128 l 532 1128 m 510 1112 l 510 1106 l 515 1106 q 526 1114 515 1114 l 526 1120 l 524 1120 q 510 1112 515 1112 m 255 1112 q 252 1101 255 1105 l 258 1101 l 258 1112 l 255 1112 m 594 1106 l 602 1106 l 602 1112 l 600 1112 q 594 1106 594 1111 m 852 1112 l 852 1109 l 857 1109 l 857 1112 l 852 1112 m 236 1095 l 236 1084 l 239 1084 q 250 1093 239 1093 l 250 1101 q 236 1095 243 1095 m 898 1101 l 898 1098 l 903 1098 l 903 1101 l 898 1101 m 865 1082 l 865 1079 l 871 1079 l 887 1082 l 887 1090 q 865 1082 882 1090 m 469 1076 l 469 1071 l 475 1071 q 483 1079 475 1079 l 483 1084 q 469 1076 474 1076 m 556 1071 l 562 1071 q 570 1079 562 1079 l 570 1084 q 556 1071 566 1084 m 1283 1074 q 1278 1063 1283 1069 l 1283 1060 q 1291 1071 1287 1060 q 1283 1074 1289 1071 m 1253 927 l 1253 924 l 1259 927 l 1275 927 q 1286 941 1275 937 q 1313 984 1286 946 q 1329 1017 1329 1014 l 1337 1017 l 1335 1022 l 1335 1025 l 1348 1041 q 1364 1063 1358 1063 l 1364 1068 q 1359 1074 1364 1074 q 1308 1003 1339 1054 q 1267 935 1305 1003 q 1253 927 1253 935 m 345 1063 l 350 1063 l 350 1068 q 345 1063 345 1067 m 545 1063 l 551 1063 l 551 1068 q 545 1063 545 1067 m 884 1063 l 884 1060 q 892 1068 888 1060 l 890 1068 q 884 1063 884 1067 m 458 1065 l 458 1063 l 464 1063 l 464 1065 l 458 1065 m 543 1046 l 543 1041 l 548 1041 q 570 1060 570 1056 l 567 1060 l 543 1046 m 534 1057 l 534 1055 l 540 1055 l 540 1057 l 534 1057 m 526 1055 q 518 1046 526 1046 l 518 1041 q 532 1055 529 1043 l 526 1055 m 328 1052 l 328 1046 q 334 1052 334 1046 l 328 1052 m 317 1044 l 317 1038 q 323 1044 323 1038 l 317 1044 m 920 1041 l 920 1033 q 933 1044 932 1038 l 928 1044 q 920 1041 922 1041 m 621 1030 l 646 1038 l 646 1041 l 637 1041 q 621 1030 624 1041 m 448 989 q 464 981 455 989 q 499 1011 490 1011 q 507 1008 505 1008 q 529 1027 511 1008 l 529 1030 l 524 1027 q 518 1038 518 1027 q 467 1000 513 1038 q 448 989 454 1000 m 532 1033 l 537 1033 l 537 1038 q 532 1033 532 1038 m 1066 1038 l 1066 1033 q 1072 1038 1072 1033 l 1066 1038 m 1012 1036 l 1012 1033 l 1017 1033 l 1017 1036 l 1012 1036 m 426 1033 q 404 1006 426 1021 l 399 995 l 401 995 q 431 1017 415 995 l 437 1017 q 429 1033 434 1033 l 426 1033 m 1061 1025 l 1061 1022 q 1066 1027 1066 1022 l 1066 1030 q 1061 1025 1061 1029 m 987 1027 l 987 1025 l 993 1025 l 993 1027 l 987 1027 m 876 1022 l 876 1008 l 882 1008 q 879 1022 879 1013 l 876 1022 m 1408 1017 q 1402 1008 1408 1008 q 1405 1000 1405 1003 l 1413 1000 q 1419 1014 1413 1007 l 1413 1017 l 1408 1017 m 285 1014 q 274 1006 285 1006 l 274 1000 l 290 1000 q 293 1011 290 1006 l 288 1014 l 285 1014 m 317 1006 l 317 1003 l 323 1003 l 323 1006 l 317 1006 m 594 1006 q 597 998 597 1000 q 602 1003 602 998 l 602 1006 l 594 1006 m 895 998 l 882 1000 l 882 998 q 890 984 884 984 q 906 995 890 995 l 906 1003 l 903 1003 l 895 998 m 1462 1003 q 1454 984 1462 1000 l 1459 984 q 1468 998 1459 998 l 1468 1003 l 1462 1003 m 1397 992 l 1397 989 l 1405 989 l 1405 995 q 1397 992 1400 992 m 298 992 l 298 987 q 307 989 304 989 l 307 992 l 298 992 m 963 989 l 963 987 q 971 984 966 987 l 971 989 l 963 989 m 266 987 l 266 984 l 271 984 l 271 987 l 266 987 m 288 987 l 288 979 q 296 981 293 981 l 296 984 q 288 987 293 984 m 553 984 l 553 979 l 556 979 l 556 984 l 553 984 m 1343 911 q 1345 903 1345 905 l 1348 903 l 1364 927 q 1389 973 1389 963 q 1397 976 1394 976 l 1397 984 q 1351 922 1392 984 q 1343 911 1345 911 m 277 979 l 277 968 l 282 970 q 279 979 279 976 l 277 979 m 543 973 l 543 970 q 551 979 547 970 l 548 979 q 543 973 543 978 m 157 976 l 157 973 l 163 973 l 163 976 l 157 976 m 244 965 l 250 965 l 250 970 q 244 965 244 970 m 266 970 l 266 965 l 269 965 l 269 970 l 266 970 m 1218 970 l 1213 962 l 1213 957 l 1215 957 q 1221 970 1215 964 l 1218 970 m 146 968 l 146 965 l 155 965 l 155 968 l 146 968 m 255 962 l 255 949 l 258 949 l 258 962 l 255 962 m 1435 962 l 1432 957 l 1432 951 l 1435 951 q 1438 962 1435 958 l 1435 962 m 1204 954 l 1204 943 l 1207 943 l 1207 954 l 1204 954 m 241 951 q 244 941 244 947 l 250 941 q 255 946 255 941 q 244 951 251 946 l 241 951 m 502 949 l 502 943 l 510 943 l 510 951 q 502 949 505 949 m 220 943 l 217 930 q 231 922 222 930 l 231 924 q 228 935 228 929 l 233 938 l 236 938 l 236 932 l 239 932 q 244 938 244 932 q 236 943 236 938 l 231 941 l 225 941 l 220 943 m 117 935 q 119 927 119 930 l 127 927 l 127 930 q 122 941 122 937 q 117 935 117 940 m 537 941 l 537 938 l 543 938 l 543 941 l 537 941 m 1438 941 l 1438 935 l 1440 935 l 1440 941 l 1438 941 m 494 938 l 494 935 l 499 935 l 499 938 l 494 938 m 1497 938 l 1495 932 l 1495 927 l 1497 927 q 1500 938 1497 933 l 1497 938 m 578 935 l 578 927 l 581 927 l 581 935 l 578 935 m 483 930 q 488 924 484 924 l 488 930 l 483 930 m 1042 927 q 1031 919 1042 919 l 1031 916 l 1034 916 q 1053 924 1047 924 l 1053 927 l 1042 927 m 567 927 l 567 919 q 575 927 571 919 l 567 927 m 1487 924 l 1487 916 l 1489 916 l 1489 924 l 1487 924 m 1245 919 l 1245 913 q 1253 916 1251 916 l 1253 922 q 1245 919 1248 919 m 559 919 l 556 913 l 556 911 l 559 911 q 564 916 559 916 l 564 919 l 559 919 m 1375 916 q 1370 905 1375 905 q 1367 908 1370 908 l 1367 895 q 1383 908 1383 904 l 1383 911 q 1378 916 1383 916 l 1375 916 m 545 911 l 545 903 q 553 911 549 903 l 545 911 m 1478 911 q 1473 900 1478 907 l 1473 897 l 1476 897 q 1481 903 1476 903 l 1481 911 l 1478 911 m 203 908 l 203 905 l 212 905 l 212 908 l 203 908 m 193 900 l 193 897 l 201 897 l 203 903 l 201 903 q 193 900 195 900 m 534 903 l 534 892 l 529 892 l 524 895 q 513 884 524 884 l 513 876 l 515 876 q 543 903 536 889 l 534 903 m 174 895 l 174 889 q 184 892 178 892 l 184 897 l 182 897 q 174 895 176 895 m 157 859 l 165 859 q 171 867 165 867 l 168 884 q 157 859 161 884 m 1359 881 l 1359 873 l 1362 873 l 1362 881 l 1359 881 m 95 878 q 84 873 95 873 q 90 867 85 867 q 100 878 94 867 l 95 878 m 168 859 l 168 854 l 171 854 l 171 859 l 168 859 m 1544 854 q 1538 846 1544 846 l 1538 843 l 1544 843 l 1549 851 l 1549 854 l 1544 854 m 320 851 l 320 846 l 323 846 l 323 851 l 320 851 m 472 848 q 461 838 472 838 q 475 827 463 832 q 480 832 475 832 q 472 848 477 848 m 1215 843 l 1215 838 l 1218 838 l 1218 843 l 1215 843 m 1514 800 l 1519 797 q 1538 829 1529 829 q 1535 838 1535 835 q 1514 800 1525 838 m 84 821 q 98 786 90 803 l 103 786 q 117 821 103 793 l 114 821 q 106 835 106 821 l 84 821 m 130 827 q 138 813 138 818 l 141 813 q 144 835 141 825 q 130 827 135 827 m 1202 805 l 1207 805 q 1215 821 1207 812 l 1215 824 q 1202 805 1211 824 m 298 810 l 298 805 l 304 805 q 298 810 304 810 m 1565 808 q 1557 786 1565 802 l 1563 786 q 1568 797 1563 790 l 1568 808 l 1565 808 m 57 802 l 57 794 l 68 791 l 71 791 l 71 794 q 57 802 66 794 m 52 775 l 49 764 q 57 772 53 764 l 52 775 m 98 770 q 81 740 98 765 l 81 737 l 84 737 l 84 743 l 87 743 q 92 737 92 742 q 87 732 87 736 q 92 726 92 731 q 111 756 102 726 l 119 756 q 98 770 119 760 m 301 762 l 304 762 q 312 764 309 764 l 312 770 q 301 762 301 766 m 43 764 l 43 759 l 46 759 l 46 764 l 43 764 m 293 759 l 293 753 q 301 756 298 756 l 301 759 l 293 759 m 136 756 l 136 751 q 144 748 138 751 l 146 753 q 136 756 140 753 m 171 737 q 163 732 171 732 l 163 726 l 168 726 q 174 737 168 730 l 171 737 m 46 718 q 57 696 57 714 l 60 696 q 65 713 60 707 q 57 726 57 713 l 54 726 q 46 718 50 726 m 141 724 q 130 699 130 709 l 136 699 q 146 713 136 709 q 157 718 146 718 l 157 721 l 141 724 m 217 718 l 222 718 l 222 724 q 217 718 217 723 m 1587 713 l 1587 710 q 1595 707 1590 710 l 1595 715 q 1587 713 1590 713 m 404 713 q 396 699 396 704 l 396 696 l 399 696 q 410 705 399 705 l 410 707 q 404 713 410 713 m 1552 713 q 1546 702 1552 709 l 1546 699 l 1549 699 q 1560 713 1549 703 l 1552 713 m 149 696 l 152 696 q 157 702 157 696 l 155 702 q 149 696 149 701 m 43 694 l 49 694 l 49 699 q 43 694 43 699 m 1544 696 q 1527 661 1544 690 l 1527 659 l 1533 661 l 1541 661 l 1552 653 l 1554 653 q 1563 669 1554 659 l 1563 672 l 1557 669 q 1541 677 1543 669 q 1546 694 1541 685 l 1546 696 l 1544 696 m 95 683 q 87 677 95 677 l 87 675 q 103 667 103 675 l 103 664 q 90 650 103 661 q 68 656 87 650 q 65 642 68 647 q 73 637 73 642 l 73 623 q 54 588 62 612 q 60 580 60 588 l 62 580 l 76 583 l 76 585 l 60 585 l 60 596 q 73 618 73 605 q 95 648 90 648 l 100 648 l 106 645 q 127 664 106 664 q 125 683 125 667 l 119 680 l 114 680 q 95 683 102 683 m 255 683 l 255 680 l 260 680 l 260 683 l 255 683 m 220 675 l 220 672 q 228 675 225 675 l 228 680 l 225 680 q 220 675 220 680 m 209 667 l 209 661 q 217 664 214 664 l 217 669 q 209 667 212 667 m 1240 669 l 1240 664 l 1242 664 l 1242 669 l 1240 669 m 57 661 l 65 661 l 65 667 l 62 667 q 57 661 57 666 m 1229 656 l 1223 648 l 1223 645 q 1234 653 1230 653 l 1234 656 l 1229 656 m 1525 656 l 1525 648 l 1527 648 l 1527 656 l 1525 656 m 22 653 l 19 642 l 24 642 l 24 653 l 22 653 m 1424 650 l 1400 599 l 1389 580 l 1394 572 q 1389 566 1394 566 q 1383 572 1389 572 l 1383 566 l 1389 558 l 1383 550 l 1383 545 q 1400 534 1383 541 q 1405 545 1400 538 l 1402 558 q 1408 564 1408 558 l 1408 572 l 1400 583 l 1400 585 q 1427 626 1408 604 q 1430 637 1427 632 q 1427 650 1427 642 l 1424 650 m 114 634 l 117 615 l 119 615 q 130 637 119 625 l 130 645 q 114 634 119 634 m 165 631 l 165 610 l 168 610 q 193 631 180 623 q 187 645 187 640 l 184 645 q 165 631 175 631 m 1544 642 l 1544 640 l 1549 640 l 1549 642 l 1544 642 m 1326 637 q 1308 602 1326 632 l 1308 596 l 1313 596 q 1329 634 1313 601 l 1329 637 l 1326 637 m 38 629 l 38 621 l 43 621 l 43 629 l 38 629 m 252 618 l 252 615 l 260 615 q 271 618 265 618 l 271 623 l 266 623 q 252 618 259 618 m 1375 618 q 1370 604 1375 611 q 1375 599 1371 599 l 1383 615 q 1375 618 1381 615 m 244 607 l 244 604 l 250 604 l 250 607 l 244 607 m 155 604 l 155 602 l 160 602 l 160 604 l 155 604 m 1367 447 l 1370 433 l 1373 433 q 1383 458 1378 458 l 1386 458 q 1392 452 1392 457 l 1392 450 q 1383 444 1392 444 q 1389 439 1384 439 q 1430 517 1426 517 q 1465 580 1437 517 l 1470 580 l 1468 585 l 1468 588 q 1484 593 1468 593 q 1476 602 1484 597 q 1454 577 1466 599 q 1413 512 1436 568 q 1375 460 1386 465 q 1367 447 1373 460 m 1419 588 l 1419 585 l 1424 585 l 1424 593 q 1419 588 1419 593 m 14 591 l 14 583 l 16 583 l 16 591 l 14 591 m 1272 564 l 1280 558 q 1289 580 1280 564 l 1280 580 q 1272 564 1276 580 m 100 577 l 100 569 l 109 569 q 100 577 109 573 m 14 542 l 14 517 l 16 517 l 24 523 l 27 523 q 38 509 31 523 q 54 523 52 509 l 52 539 l 52 542 l 60 553 l 60 555 l 57 555 l 49 550 q 35 566 46 550 q 24 545 32 566 q 14 542 20 542 m 1367 547 l 1373 547 q 1381 555 1377 547 l 1381 561 q 1367 547 1373 559 m 1270 547 l 1275 547 l 1275 553 q 1270 547 1270 552 m 1522 539 q 1495 496 1510 513 q 1465 441 1482 480 q 1481 433 1470 441 l 1481 428 q 1476 422 1481 422 q 1470 428 1476 428 l 1470 422 l 1476 422 l 1476 417 l 1473 412 l 1468 414 l 1465 414 l 1465 412 l 1470 412 l 1470 406 l 1468 401 l 1462 404 l 1459 404 l 1459 401 l 1465 401 l 1465 395 l 1462 390 l 1457 393 l 1454 393 l 1454 390 l 1459 390 l 1459 385 q 1454 379 1459 379 q 1451 382 1454 382 q 1443 363 1449 371 l 1443 360 q 1449 355 1444 355 q 1495 444 1495 428 l 1495 447 q 1481 433 1491 447 q 1478 436 1481 436 q 1497 477 1485 477 q 1525 531 1497 481 l 1525 539 l 1522 539 m 1348 526 l 1348 520 q 1354 526 1354 520 l 1354 531 q 1348 526 1348 530 m 1462 531 l 1462 526 l 1465 526 l 1465 531 l 1462 531 m 160 517 l 160 512 l 163 512 l 163 517 l 160 517 m 125 509 l 125 501 l 138 504 l 138 507 l 125 509 m 1568 507 q 1573 501 1569 501 l 1576 501 q 1579 509 1576 504 l 1576 509 q 1568 507 1571 507 m 1316 474 l 1316 469 q 1321 474 1321 469 l 1316 474 m 1600 447 l 1609 447 l 1611 463 q 1600 447 1608 463 m 22 452 l 19 447 l 24 439 l 52 447 l 52 452 l 41 450 l 35 452 q 24 450 31 450 q 22 452 24 452 m 1289 444 l 1289 436 l 1294 436 q 1302 444 1298 436 l 1302 450 l 1299 450 q 1289 444 1293 444 m 220 422 q 222 414 222 417 q 239 428 234 418 l 239 431 q 220 422 225 422 m 1446 420 q 1424 387 1446 404 l 1419 368 l 1424 368 q 1451 420 1430 368 l 1446 420 m 1329 417 l 1329 412 q 1335 417 1335 412 l 1329 417 m 179 412 q 168 406 179 406 l 168 398 l 171 398 q 184 404 178 404 l 184 406 q 179 412 184 412 m 1351 404 l 1351 401 q 1356 406 1356 401 l 1356 409 q 1351 404 1351 408 m 1370 409 l 1370 404 l 1373 404 l 1373 409 l 1370 409 m 298 371 q 301 363 301 366 l 307 363 q 328 379 307 370 l 331 379 q 336 374 336 378 l 331 366 l 334 366 q 345 371 340 371 l 345 374 l 339 382 l 339 385 q 350 395 339 389 q 358 393 355 393 q 361 395 358 395 q 358 406 358 400 l 355 406 q 298 371 298 376 m 1598 406 l 1598 401 l 1600 401 l 1600 406 l 1598 406 m 1500 385 l 1503 385 q 1516 398 1510 387 l 1516 401 q 1500 385 1504 401 m 157 398 l 157 393 l 160 393 q 165 398 165 393 l 157 398 m 1345 393 l 1351 393 l 1351 398 q 1345 393 1345 397 m 1592 395 q 1587 382 1592 389 q 1598 379 1593 382 l 1598 382 l 1595 395 l 1592 395 m 146 390 l 146 387 l 152 387 l 152 390 l 146 390 m 399 366 l 399 357 l 407 363 l 410 363 l 415 360 q 426 368 415 367 l 426 376 q 399 366 410 366 m 1354 376 l 1354 371 l 1356 371 l 1356 376 l 1354 376 m 1546 374 l 1538 349 l 1544 347 q 1554 371 1544 355 l 1554 374 l 1546 374 m 1362 368 q 1356 357 1362 364 l 1356 352 l 1362 352 q 1370 363 1366 352 l 1362 368 m 1345 366 q 1351 360 1346 360 l 1351 366 l 1345 366 m 1565 363 l 1565 360 l 1573 360 l 1573 363 l 1565 363 m 35 355 l 35 352 l 41 352 l 41 355 l 35 355 m 100 333 l 100 330 q 109 328 103 330 l 109 336 l 111 336 l 119 330 q 130 341 119 341 q 125 355 125 350 q 103 333 117 353 l 100 333 m 396 355 l 391 347 q 401 344 397 347 l 401 349 q 396 355 401 355 m 1497 349 l 1500 349 q 1506 355 1506 349 l 1503 355 q 1497 349 1497 354 m 1527 352 q 1511 328 1514 328 q 1514 319 1514 322 q 1530 349 1520 319 l 1533 349 l 1533 352 l 1527 352 m 1560 352 q 1530 309 1557 332 l 1533 303 l 1514 287 l 1514 281 l 1530 281 q 1554 325 1530 288 q 1565 349 1565 345 l 1560 352 m 374 341 l 374 330 q 391 341 391 338 l 391 344 q 374 341 387 341 m 1308 328 l 1308 325 q 1326 344 1321 325 l 1324 344 q 1308 328 1322 344 m 1438 341 q 1427 322 1438 333 l 1427 319 q 1443 336 1431 319 l 1443 341 l 1438 341 m 1470 341 l 1470 336 q 1476 341 1476 336 l 1470 341 m 1492 341 l 1492 336 l 1495 336 l 1495 341 l 1492 341 m 81 309 l 92 309 q 106 314 99 314 q 98 330 98 323 l 87 314 q 81 309 81 313 m 1487 330 q 1484 319 1487 324 l 1489 319 l 1489 330 l 1487 330 m 43 328 l 43 319 q 49 325 49 319 l 49 328 l 43 328 m 1581 328 q 1576 314 1581 321 l 1576 311 l 1581 311 l 1584 325 l 1584 328 l 1581 328 m 1454 311 l 1454 306 l 1459 306 q 1465 319 1459 313 l 1465 322 q 1454 311 1461 322 m 1297 314 q 1291 303 1297 310 l 1291 300 q 1305 311 1299 311 l 1305 314 l 1297 314 m 1435 279 l 1443 279 q 1449 295 1443 289 l 1449 298 l 1446 298 q 1435 279 1442 298 m 323 284 l 323 279 q 345 290 340 290 l 345 295 q 323 284 330 284 m 1408 254 q 1421 252 1411 252 q 1432 279 1432 272 l 1430 279 q 1408 254 1409 260 m 81 273 l 81 271 l 87 271 l 87 273 l 81 273 m 1506 271 l 1506 265 l 1508 265 l 1508 271 l 1506 271 m 68 268 l 68 265 l 76 265 l 76 268 l 68 268 m 165 252 l 165 246 q 190 260 182 260 l 190 265 l 187 265 q 165 252 165 256 m 1500 262 l 1500 254 l 1503 254 l 1503 262 l 1500 262 m 374 257 l 374 254 q 382 246 374 250 l 385 246 q 391 252 391 246 q 385 260 385 252 q 374 257 380 257 m 363 249 q 347 233 363 243 l 350 233 q 369 238 368 238 q 366 249 366 243 l 363 249 m 1495 249 l 1495 243 l 1497 243 l 1497 249 l 1495 249 m 458 227 l 458 214 l 464 214 l 480 222 q 477 238 477 226 q 458 227 458 231 m 212 227 l 209 222 l 209 219 l 212 219 q 217 224 212 224 l 217 227 l 212 227 m 526 227 l 526 224 l 532 224 l 532 227 l 526 227 m 464 184 l 464 181 l 469 181 q 483 195 469 187 l 491 205 l 491 208 l 464 184 m 250 200 l 258 200 l 258 205 l 255 205 q 250 200 250 205 m 437 195 l 437 186 l 442 186 q 453 192 449 192 l 453 197 l 450 197 l 437 195 m 228 195 l 225 189 l 228 189 q 239 192 233 192 l 239 195 l 228 195 m 179 165 q 182 157 182 159 q 203 176 199 163 q 217 186 217 176 q 179 165 179 171 m 1500 149 l 1500 138 l 1503 138 q 1522 173 1503 149 l 1522 176 q 1500 149 1516 176 m 559 165 l 545 154 l 553 154 q 567 162 560 162 l 567 165 l 559 165 m 144 154 l 144 151 q 155 154 149 154 l 155 159 l 149 159 q 144 154 144 159 m 494 124 l 494 121 q 507 119 503 121 q 540 140 507 126 q 543 154 540 149 l 537 154 q 494 124 531 154 m 551 130 l 559 124 l 564 124 q 583 146 564 130 l 581 146 q 551 130 551 135 m 130 138 l 136 138 l 136 143 q 130 138 130 142 m 282 105 l 282 100 q 317 119 304 119 q 334 130 328 130 l 334 135 l 328 132 l 326 132 q 320 138 320 132 q 282 105 298 138 m 426 127 l 426 121 l 429 121 l 429 127 l 426 127 m 461 121 l 461 119 l 467 119 l 467 121 l 461 121 m 532 121 q 502 105 532 117 l 499 105 l 494 108 q 477 97 494 104 l 475 97 l 469 100 q 448 92 469 94 q 429 70 435 90 q 393 37 422 70 q 396 35 396 37 q 426 59 410 38 q 429 56 429 59 q 475 89 460 68 q 488 97 481 89 l 491 97 q 494 94 494 97 q 532 116 532 111 q 537 119 532 119 l 537 121 l 532 121 m 1549 116 q 1579 102 1562 102 l 1579 105 q 1568 121 1568 113 l 1560 121 q 1549 116 1553 116 m 144 102 l 152 102 q 168 116 152 110 l 168 119 l 165 119 q 144 102 151 113 m 415 119 l 415 113 q 420 119 420 113 l 415 119 m 179 111 l 179 108 l 184 108 l 184 111 l 179 111 m 168 102 l 168 100 l 174 100 l 174 102 l 168 102 m 157 94 l 157 92 l 165 92 l 165 94 l 157 94 m 1595 94 l 1595 92 q 1598 83 1598 86 q 1609 94 1602 83 l 1595 94 m 296 86 l 296 81 q 307 89 307 85 l 307 92 q 296 86 300 86 m 1508 92 l 1508 89 l 1514 89 l 1514 92 l 1508 92 m 269 86 l 269 81 l 271 81 l 271 86 l 269 86 m 499 54 l 502 54 q 532 81 509 54 l 529 81 q 499 54 507 67 m 1508 81 q 1503 70 1508 77 q 1525 51 1507 58 l 1538 70 q 1511 81 1518 75 l 1508 81 m 255 73 l 260 73 l 260 78 q 255 73 255 77 m 1579 56 l 1584 54 l 1587 54 q 1598 67 1591 54 q 1579 56 1579 61 m 263 35 q 239 7 263 25 l 236 2 l 239 2 q 271 29 250 8 q 266 35 271 35 l 263 35 m 1560 24 l 1560 18 q 1565 24 1565 18 l 1560 24 m 1527 21 q 1516 13 1527 13 l 1516 7 q 1525 2 1525 7 q 1538 16 1528 2 l 1544 16 l 1544 18 q 1527 21 1529 21 m 266 -36 l 266 -39 q 279 -52 266 -42 l 282 -52 q 301 -33 282 -44 q 374 -3 301 -17 l 374 -1 q 361 10 361 -1 q 282 -25 319 -18 q 266 -36 272 -36 m 1427 -12 l 1427 -17 l 1435 -17 q 1440 -12 1440 -17 l 1427 -12 m 1506 -14 q 1511 -31 1511 -23 l 1503 -36 l 1500 -36 q 1492 -17 1492 -36 l 1489 -17 q 1481 -28 1489 -28 l 1481 -31 l 1484 -44 q 1481 -47 1481 -44 q 1495 -52 1488 -47 l 1527 -14 l 1527 -12 l 1525 -12 l 1506 -14 m 1419 -22 l 1419 -28 l 1424 -28 l 1424 -22 l 1419 -22 m 317 -31 q 307 -39 317 -39 l 307 -47 l 317 -47 q 326 -39 317 -39 q 323 -31 323 -33 l 317 -31 m 336 -33 l 336 -36 l 345 -36 l 345 -33 l 336 -33 m 1408 -33 l 1408 -39 q 1416 -36 1413 -36 l 1416 -33 l 1408 -33 m 1587 -33 q 1573 -55 1587 -42 l 1568 -55 q 1563 -50 1563 -55 q 1554 -52 1557 -52 l 1554 -58 l 1560 -55 q 1573 -60 1569 -60 l 1595 -33 l 1587 -33 m 1397 -44 q 1386 -58 1397 -54 q 1375 -68 1386 -64 q 1373 -77 1375 -71 l 1373 -79 l 1375 -79 l 1405 -44 l 1397 -44 m 298 -50 l 298 -55 l 307 -55 l 307 -50 l 298 -50 m 317 -50 q 296 -66 317 -59 q 301 -71 296 -71 q 326 -63 306 -71 l 326 -50 l 317 -50 m 1459 -58 l 1459 -66 l 1465 -66 q 1473 -52 1465 -61 l 1473 -50 l 1470 -50 q 1459 -58 1459 -54 m 288 -58 l 288 -60 l 296 -60 l 296 -58 l 288 -58 m 1424 -68 q 1413 -79 1424 -79 q 1405 -77 1408 -77 l 1405 -82 q 1416 -90 1416 -82 l 1419 -90 q 1432 -79 1419 -79 q 1427 -68 1427 -73 l 1424 -68 m 1500 -71 q 1492 -77 1500 -77 l 1492 -79 l 1495 -79 q 1506 -77 1499 -77 q 1500 -71 1506 -71 m 1535 -74 q 1530 -79 1535 -79 l 1530 -85 q 1541 -74 1534 -85 l 1535 -74 m 1394 -87 q 1389 -98 1394 -92 q 1402 -109 1401 -109 q 1408 -98 1402 -105 q 1397 -87 1397 -98 l 1394 -87 m 342 -101 q 347 -106 342 -106 l 350 -101 l 342 -101 m 1492 -101 q 1481 -112 1492 -108 l 1473 -123 l 1473 -131 l 1476 -131 l 1497 -101 l 1492 -101 m 1549 -128 l 1552 -142 l 1557 -142 q 1587 -104 1557 -128 l 1587 -101 l 1584 -101 q 1560 -128 1579 -101 l 1549 -128 m 1454 -104 l 1454 -109 l 1457 -109 l 1457 -104 l 1454 -104 m 1514 -117 q 1519 -139 1519 -134 l 1522 -139 q 1530 -128 1522 -128 l 1530 -125 l 1522 -115 q 1514 -117 1516 -117 m 1600 -136 q 1603 -150 1603 -141 l 1609 -150 q 1614 -136 1609 -143 l 1614 -120 q 1600 -136 1605 -125 m 1535 -131 l 1535 -134 l 1541 -134 l 1541 -131 l 1535 -131 m 548 -134 q 529 -155 548 -139 l 529 -158 l 537 -158 q 556 -134 537 -153 l 548 -134 m 1527 -142 l 1525 -147 l 1525 -150 l 1527 -150 q 1533 -144 1527 -144 l 1533 -142 l 1527 -142 m 1430 -150 l 1430 -155 l 1438 -155 l 1438 -147 q 1430 -150 1432 -150 m 1468 -193 l 1470 -199 q 1454 -218 1470 -214 q 1424 -237 1454 -235 q 1416 -234 1419 -234 q 1405 -248 1405 -246 q 1408 -258 1408 -252 l 1421 -258 l 1432 -248 l 1440 -248 l 1449 -253 l 1468 -218 l 1487 -199 q 1481 -182 1481 -190 l 1481 -180 q 1489 -172 1481 -176 l 1511 -172 l 1511 -163 q 1503 -147 1503 -163 q 1468 -193 1493 -151 m 1516 -153 l 1516 -161 l 1519 -161 l 1519 -153 l 1516 -153 m 494 -185 l 494 -193 q 526 -161 511 -193 l 524 -161 q 494 -185 498 -185 m 1587 -163 l 1587 -169 l 1592 -169 l 1592 -163 l 1587 -163 m 1527 -169 q 1519 -182 1527 -174 l 1519 -185 l 1525 -185 q 1530 -180 1530 -185 l 1530 -169 l 1527 -169 m 1324 -172 q 1308 -196 1324 -196 q 1289 -207 1308 -203 l 1289 -212 q 1302 -220 1302 -213 l 1294 -231 l 1294 -234 l 1297 -234 q 1318 -199 1318 -208 q 1332 -182 1322 -199 l 1332 -180 q 1324 -172 1332 -176 m 1568 -185 l 1568 -191 l 1573 -191 l 1573 -185 l 1568 -185 m 1389 -204 l 1389 -212 l 1394 -212 l 1394 -199 q 1389 -204 1389 -199 m 1525 -245 l 1525 -253 q 1530 -258 1525 -258 l 1538 -258 q 1560 -245 1538 -248 l 1563 -250 l 1563 -253 l 1560 -258 l 1565 -258 q 1579 -245 1569 -258 q 1611 -218 1589 -244 l 1614 -218 l 1614 -210 l 1609 -210 q 1587 -226 1609 -220 q 1571 -218 1571 -223 l 1571 -215 l 1576 -207 l 1573 -207 q 1527 -245 1560 -207 l 1525 -245 m 1373 -223 l 1373 -226 l 1375 -226 q 1383 -223 1381 -223 l 1383 -215 l 1381 -215 q 1373 -223 1377 -215 m 1595 -256 l 1600 -258 q 1614 -242 1604 -258 l 1614 -234 q 1595 -256 1611 -234 m 1568 -234 l 1571 -239 q 1565 -245 1571 -245 l 1563 -239 q 1568 -234 1563 -234 m 1362 -245 q 1370 -253 1362 -249 q 1373 -245 1370 -250 l 1362 -245 m 1270 -250 q 1267 -258 1270 -253 l 1278 -258 l 1278 -256 q 1272 -250 1278 -250 l 1270 -250 z "}}}
